<svg width="40" height="40" viewBox="0 0 40 40" fill="none" xmlns="http://www.w3.org/2000/svg">
<path opacity="0.2" d="M20.875 16.875C20.875 20.81 17.685 24 13.75 24C9.81497 24 6.625 20.81 6.625 16.875C6.625 12.94 9.81497 9.75 13.75 9.75C17.685 9.75 20.875 12.94 20.875 16.875Z" fill="#0A65CC" stroke="#0A65CC" stroke-width="2"/>
<path d="M13.75 25C18.2373 25 21.875 21.3623 21.875 16.875C21.875 12.3877 18.2373 8.75 13.75 8.75C9.26269 8.75 5.625 12.3877 5.625 16.875C5.625 21.3623 9.26269 25 13.75 25Z" stroke="#0A65CC" stroke-width="2" stroke-miterlimit="10"/>
<path d="M24.2832 9.05256C25.4007 8.7377 26.5728 8.66597 27.7204 8.84221C28.8679 9.01845 29.9644 9.43856 30.936 10.0743C31.9075 10.7099 32.7316 11.5465 33.3526 12.5274C33.9737 13.5084 34.3773 14.6111 34.5363 15.7612C34.6953 16.9113 34.6059 18.0821 34.2743 19.1948C33.9427 20.3075 33.3766 21.3362 32.6139 22.2116C31.8513 23.0871 30.9099 23.7889 29.8531 24.2699C28.7964 24.7508 27.6489 24.9998 26.4878 24.9999" stroke="#0A65CC" stroke-width="2" stroke-linecap="round" stroke-linejoin="round"/>
<path d="M2.49951 30.8432C3.76847 29.0382 5.45309 27.565 7.41115 26.548C9.36921 25.531 11.5432 25.0001 13.7496 25C15.9561 24.9999 18.1301 25.5307 20.0882 26.5476C22.0464 27.5644 23.7311 29.0375 25.0002 30.8424" stroke="#0A65CC" stroke-width="2" stroke-linecap="round" stroke-linejoin="round"/>
<path d="M26.4878 25C28.6944 24.9984 30.8689 25.5285 32.8272 26.5455C34.7855 27.5625 36.4699 29.0364 37.7378 30.8424" stroke="#0A65CC" stroke-width="2" stroke-linecap="round" stroke-linejoin="round"/>
</svg>
