<svg width="68" height="68" viewBox="0 0 68 68" fill="none" xmlns="http://www.w3.org/2000/svg">
<rect width="68" height="68" rx="8" fill="#E7F0FA"/>
<g clip-path="url(#clip0_1647_32071)">
<path opacity="0.2" d="M44.7207 23.3733C44.8698 23.3298 45.0269 23.3216 45.1796 23.3494C45.3324 23.3772 45.4765 23.4401 45.6007 23.5333C45.7249 23.6264 45.8257 23.7472 45.8952 23.886C45.9646 24.0249 46.0007 24.178 46.0007 24.3333V41.6666C46.0007 41.8218 45.9646 41.9749 45.8952 42.1138C45.8257 42.2526 45.7249 42.3734 45.6007 42.4666C45.4765 42.5597 45.3324 42.6227 45.1796 42.6504C45.0269 42.6782 44.8698 42.67 44.7207 42.6266L33 39.208V26.7918L44.7207 23.3733Z" fill="#0A65CC"/>
<path d="M46.0007 24.3333V41.6666C46.0007 41.8218 45.9646 41.9749 45.8952 42.1138C45.8257 42.2526 45.7249 42.3734 45.6007 42.4666C45.4765 42.5597 45.3324 42.6227 45.1796 42.6504C45.0269 42.6782 44.8698 42.67 44.7207 42.6266L22.7207 36.2099C22.513 36.1493 22.3306 36.023 22.2007 35.8499C22.0709 35.6768 22.0007 35.4663 22.0007 35.2499V30.7499C22.0007 30.5335 22.0709 30.323 22.2007 30.1499C22.3306 29.9768 22.513 29.8505 22.7207 29.7899L44.7207 23.3733C44.8698 23.3298 45.0269 23.3216 45.1796 23.3494C45.3324 23.3772 45.4765 23.4401 45.6007 23.5333C45.7249 23.6264 45.8257 23.7472 45.8952 23.886C45.9646 24.0249 46.0007 24.178 46.0007 24.3333V24.3333Z" stroke="#0A65CC" stroke-width="2" stroke-linecap="round" stroke-linejoin="round"/>
<path d="M27 37.4582V42.0001C27 42.2653 27.1054 42.5197 27.2929 42.7072C27.4804 42.8948 27.7348 43.0001 28 43.0001H32C32.2652 43.0001 32.5196 42.8948 32.7071 42.7072C32.8946 42.5197 33 42.2653 33 42.0001V26.792" stroke="#0A65CC" stroke-width="2" stroke-linecap="round" stroke-linejoin="round"/>
</g>
<defs>
<clipPath id="clip0_1647_32071">
<rect width="32" height="32" fill="white" transform="matrix(-1 0 0 1 50 18)"/>
</clipPath>
</defs>
</svg>
