<svg width="70" height="69" viewBox="0 0 70 69" fill="none" xmlns="http://www.w3.org/2000/svg">
<rect x="1.17834" y="0.124268" width="68" height="68" rx="8" transform="rotate(0.297544 1.17834 0.124268)" fill="#F9E7F5"/>
<path opacity="0.2" d="M44.006 33.348L41.2474 25.874C41.1866 25.7093 41.0836 25.5636 40.9487 25.4514C40.8138 25.3392 40.6517 25.2644 40.4788 25.2347L23.0634 22.2391L25.878 39.6847C25.9059 39.8579 25.9789 40.0207 26.0897 40.1568C26.2005 40.2929 26.3452 40.3974 26.5092 40.4599L33.9542 43.2959L44.006 33.348ZM31.0092 32.7798C31.0117 32.2853 31.1609 31.8027 31.4377 31.393C31.7145 30.9834 32.1066 30.665 32.5644 30.4781C33.0222 30.2913 33.5251 30.2444 34.0096 30.3434C34.494 30.4423 34.9382 30.6827 35.286 31.0342C35.6339 31.3856 35.8696 31.8323 35.9636 32.3178C36.0575 32.8032 36.0054 33.3056 35.8138 33.7614C35.6222 34.2173 35.2998 34.606 34.8872 34.8786C34.4747 35.1512 33.9906 35.2953 33.4961 35.2927C33.1678 35.291 32.8431 35.2247 32.5404 35.0975C32.2378 34.9702 31.9631 34.7847 31.7322 34.5513C31.5013 34.318 31.3185 34.0414 31.1945 33.7375C31.0704 33.4335 31.0075 33.1081 31.0092 32.7798Z" fill="#6A0A76"/>
<path d="M31.0092 32.7797C31.002 34.1604 32.1155 35.2854 33.4962 35.2926C34.8769 35.2998 36.0019 34.1863 36.0091 32.8056C36.0163 31.4249 34.9028 30.2999 33.5221 30.2927C32.1414 30.2855 31.0163 31.399 31.0092 32.7797Z" stroke="#6A0A76" stroke-width="2" stroke-linecap="round" stroke-linejoin="round"/>
<path d="M23.0634 22.2391L31.7506 31.0158" stroke="#6A0A76" stroke-width="2" stroke-linecap="round" stroke-linejoin="round"/>
<path d="M23.0634 22.2391L25.878 39.6847C25.9059 39.8579 25.979 40.0207 26.0898 40.1568C26.2006 40.2929 26.3452 40.3974 26.5092 40.4599L33.9542 43.2959L44.006 33.348L41.2474 25.874C41.1866 25.7093 41.0836 25.5636 40.9487 25.4514C40.8138 25.3392 40.6517 25.2644 40.4788 25.2347L23.0634 22.2391Z" stroke="#6A0A76" stroke-width="2" stroke-linecap="round" stroke-linejoin="round"/>
<path d="M33.9541 43.296L37.2299 46.606C37.3222 46.6993 37.4321 46.7735 37.5531 46.8244C37.6742 46.8753 37.8041 46.9018 37.9354 46.9025C38.0667 46.9032 38.1969 46.878 38.3185 46.8284C38.4401 46.7788 38.5507 46.7057 38.644 46.6133L47.2743 38.0722C47.4628 37.8857 47.5695 37.6319 47.5709 37.3666C47.5722 37.1014 47.4682 36.8465 47.2817 36.658L44.0059 33.3481" stroke="#6A0A76" stroke-width="2" stroke-linecap="round" stroke-linejoin="round"/>
</svg>
