<svg width="56" height="57" viewBox="0 0 56 57" fill="none" xmlns="http://www.w3.org/2000/svg">
<rect y="0.618652" width="56" height="56" rx="4" fill="#EDEFF5"/>
<g clip-path="url(#clip0_1647_32475)">
<path fill-rule="evenodd" clip-rule="evenodd" d="M24.8312 16.6187C23.5072 16.6196 22.4358 17.6941 22.4368 19.0182C22.4358 20.3422 23.5082 21.4167 24.8321 21.4177H27.2275V19.0191C27.2285 17.6951 26.1561 16.6206 24.8312 16.6187C24.8321 16.6187 24.8321 16.6187 24.8312 16.6187V16.6187ZM24.8312 23.0187H18.4454C17.1215 23.0196 16.0491 24.0941 16.0501 25.4182C16.0481 26.7422 17.1205 27.8167 18.4445 27.8187H24.8312C26.1551 27.8177 27.2275 26.7432 27.2265 25.4191C27.2275 24.0941 26.1551 23.0196 24.8312 23.0187Z" fill="#36C5F0"/>
<path fill-rule="evenodd" clip-rule="evenodd" d="M40 25.4182C40.001 24.0941 38.9285 23.0196 37.6046 23.0187C36.2807 23.0196 35.2082 24.0941 35.2092 25.4182V27.8187H37.6046C38.9285 27.8177 40.001 26.7432 40 25.4182ZM33.6133 25.4182V19.0182C33.6143 17.6951 32.5428 16.6206 31.2189 16.6187C29.895 16.6196 28.8225 17.6941 28.8235 19.0182V25.4182C28.8215 26.7422 29.894 27.8167 31.2179 27.8187C32.5418 27.8177 33.6143 26.7432 33.6133 25.4182Z" fill="#2EB67D"/>
<path fill-rule="evenodd" clip-rule="evenodd" d="M31.2179 40.6187C32.5418 40.6177 33.6143 39.5432 33.6133 38.2192C33.6143 36.8952 32.5418 35.8207 31.2179 35.8197H28.8225V38.2192C28.8215 39.5423 29.894 40.6168 31.2179 40.6187ZM31.2179 34.2177H37.6046C38.9285 34.2168 40.001 33.1423 40 31.8182C40.0019 30.4942 38.9295 29.4197 37.6056 29.4177H31.2189C29.895 29.4187 28.8225 30.4932 28.8235 31.8172C28.8225 33.1423 29.894 34.2168 31.2179 34.2177Z" fill="#ECB22E"/>
<path fill-rule="evenodd" clip-rule="evenodd" d="M16.05 31.8182C16.0491 33.1423 17.1215 34.2168 18.4454 34.2177C19.7693 34.2168 20.8418 33.1423 20.8408 31.8182V29.4187H18.4454C17.1215 29.4197 16.0491 30.4942 16.05 31.8182ZM22.4368 31.8182V38.2182C22.4348 39.5423 23.5072 40.6168 24.8312 40.6187C26.1551 40.6177 27.2275 39.5432 27.2265 38.2192V31.8202C27.2285 30.4961 26.1561 29.4216 24.8321 29.4197C23.5072 29.4197 22.4358 30.4942 22.4368 31.8182C22.4368 31.8192 22.4368 31.8182 22.4368 31.8182Z" fill="#E01E5A"/>
</g>
<defs>
<clipPath id="clip0_1647_32475">
<rect width="24" height="24" fill="white" transform="translate(16 16.6187)"/>
</clipPath>
</defs>
</svg>
