<svg width="56" height="57" viewBox="0 0 56 57" fill="none" xmlns="http://www.w3.org/2000/svg">
<rect y="0.618652" width="56" height="56" rx="4" fill="#EA4C89"/>
<g clip-path="url(#clip0_1647_32442)">
<path d="M16 28.6187C16 26.4426 16.536 24.4347 17.608 22.5947C18.68 20.7546 20.136 19.2987 21.976 18.2267C23.816 17.1546 25.824 16.6187 28 16.6187C30.176 16.6187 32.184 17.1546 34.024 18.2267C35.864 19.2987 37.32 20.7546 38.392 22.5947C39.464 24.4347 40 26.4426 40 28.6187C40 30.7947 39.464 32.8026 38.392 34.6427C37.32 36.4827 35.864 37.9386 34.024 39.0107C32.184 40.0827 30.176 40.6187 28 40.6187C25.824 40.6187 23.816 40.0827 21.976 39.0107C20.136 37.9386 18.68 36.4827 17.608 34.6427C16.536 32.8026 16 30.7947 16 28.6187ZM17.992 28.6187C17.992 31.1147 18.832 33.3147 20.512 35.2187C21.28 33.7146 22.496 32.2827 24.16 30.9227C25.824 29.5626 27.448 28.7067 29.032 28.3547C28.792 27.7947 28.56 27.2907 28.336 26.8427C25.584 27.7227 22.608 28.1627 19.408 28.1627C18.784 28.1627 18.32 28.1547 18.016 28.1387C18.016 28.2027 18.012 28.2827 18.004 28.3787C17.996 28.4747 17.992 28.5546 17.992 28.6187ZM18.304 26.1467C18.656 26.1786 19.176 26.1947 19.864 26.1947C22.536 26.1947 25.072 25.8347 27.472 25.1147C26.256 22.9547 24.92 21.1547 23.464 19.7147C22.2 20.3547 21.116 21.2427 20.212 22.3787C19.308 23.5146 18.672 24.7707 18.304 26.1467ZM21.88 36.5147C23.688 37.9227 25.728 38.6267 28 38.6267C29.184 38.6267 30.36 38.4027 31.528 37.9547C31.208 35.2187 30.584 32.5707 29.656 30.0107C28.184 30.3306 26.7 31.1387 25.204 32.4347C23.708 33.7307 22.6 35.0907 21.88 36.5147ZM25.552 18.9467C26.96 20.4027 28.264 22.2186 29.464 24.3947C31.64 23.4827 33.28 22.3227 34.384 20.9147C32.528 19.3787 30.4 18.6107 28 18.6107C27.184 18.6107 26.368 18.7227 25.552 18.9467ZM30.328 26.0987C30.568 26.6106 30.84 27.2586 31.144 28.0427C32.328 27.9306 33.616 27.8747 35.008 27.8747C36 27.8747 36.984 27.8987 37.96 27.9467C37.832 25.7706 37.048 23.8347 35.608 22.1387C34.568 23.6907 32.808 25.0107 30.328 26.0987ZM31.744 29.7227C32.56 32.0907 33.112 34.5227 33.4 37.0187C34.664 36.2027 35.696 35.1546 36.496 33.8747C37.296 32.5947 37.776 31.2107 37.936 29.7227C36.768 29.6427 35.704 29.6027 34.744 29.6027C33.864 29.6027 32.864 29.6427 31.744 29.7227Z" fill="white"/>
</g>
<defs>
<clipPath id="clip0_1647_32442">
<rect width="24" height="24" fill="white" transform="translate(16 16.6187)"/>
</clipPath>
</defs>
</svg>
