<svg width="580" height="540" viewBox="0 0 580 540" fill="none" xmlns="http://www.w3.org/2000/svg">
<g clip-path="url(#clip0_1647_28876)">
<path d="M46.1481 155.019C52.7192 139.272 72.3526 144.303 84.5347 148.813C95.9567 153.051 107.289 158.383 119.541 159.629C130.203 160.723 139.874 157.62 149.546 153.412C160.838 148.552 172.48 142.526 185.102 145.227C186.042 145.428 186.452 143.982 185.502 143.781C174.34 141.391 163.938 145.489 153.837 149.907C147.476 152.689 141.104 155.652 134.313 157.239C126.652 158.887 118.708 158.666 111.149 156.596C93.8263 152.288 55.7298 128.225 44.7179 154.587C44.3378 155.481 45.798 155.873 46.1581 154.989L46.1481 155.019Z" fill="#C8CCD1"/>
<path d="M133.553 438.91C154.437 412.547 195.404 415.872 224.899 420.049C257.175 424.619 289.26 430.765 320.705 418.613C336.788 412.397 351.491 403.177 366.033 394.008C366.843 393.496 366.093 392.191 365.273 392.703C351.341 401.49 337.268 410.358 321.946 416.514C305.663 423.052 288.66 425.302 271.187 424.378C238.671 422.64 206.416 412.106 173.69 417.107C158.358 419.447 142.425 425.312 132.493 437.845C131.893 438.598 132.943 439.673 133.553 438.91Z" fill="#C8CCD1"/>
<path d="M338.198 431.337C351.411 421.726 366.803 415.108 383.276 414.525C399.279 413.973 414.742 418.733 429.614 424.096C444.107 429.328 458.429 435.354 473.552 438.558C488.243 441.736 503.459 441.534 518.061 437.967C532.663 434.4 546.272 427.56 557.866 417.96C558.617 417.347 557.546 416.283 556.806 416.896C531.952 437.292 499.226 443.77 468.221 435.756C439.746 428.374 412.631 411.653 382.406 413.049C365.983 413.812 350.601 420.431 337.398 430.031C336.628 430.594 337.398 431.899 338.158 431.337H338.198Z" fill="#C8CCD1"/>
<path d="M346.74 358.325C364.853 351.295 384.176 355.313 402.429 359.611C420.683 363.909 439.046 368.649 457.779 370.788C488.914 374.424 522.98 370.106 546.664 347.69C547.364 347.017 546.304 345.953 545.604 346.615C519.7 371.17 481.993 373.349 448.587 368.037C430.464 365.154 412.801 360.244 394.888 356.377C378.885 352.912 362.052 350.813 346.37 356.909C345.48 357.251 345.87 358.707 346.77 358.355L346.74 358.325Z" fill="#C8CCD1"/>
<path d="M228.529 212.083C255.674 196.597 287.79 201.789 316.925 207.373C346.06 212.957 374.815 217.265 403.58 207.443C417.728 202.564 430.842 195.071 442.246 185.349C442.986 184.726 441.926 183.662 441.186 184.285C426.743 196.569 409.566 205.181 391.107 209.391C371.204 213.871 351.201 212.083 331.357 208.528C297.411 202.502 259.855 192.459 227.779 210.747C227.607 210.847 227.481 211.012 227.429 211.205C227.378 211.398 227.405 211.603 227.504 211.777C227.604 211.95 227.768 212.076 227.96 212.128C228.152 212.18 228.357 212.153 228.529 212.053V212.083Z" fill="#C8CCD1"/>
<path d="M309.284 167.291C317.935 172.564 328.127 170.967 337.509 168.758C349.111 166.026 360.333 161.929 371.514 157.711C393.958 149.235 416.712 140.065 441.106 140.638C441.305 140.638 441.496 140.559 441.637 140.417C441.778 140.276 441.857 140.084 441.857 139.885C441.857 139.685 441.778 139.493 441.637 139.352C441.496 139.211 441.305 139.131 441.106 139.131C418.923 138.569 397.979 146.031 377.505 153.784C367.144 157.711 356.792 161.718 346.15 164.831C334.888 168.145 320.926 172.514 310.084 165.906C309.254 165.403 308.504 166.709 309.324 167.211L309.284 167.291Z" fill="#C8CCD1"/>
<path d="M206.266 41.2749C243.902 50.9762 277.658 26.6828 311.644 14.9327C350.481 1.50554 390.408 10.8152 427.664 24.8449C428.574 25.1864 428.964 23.7302 428.064 23.3887C393.168 10.2528 354.911 0.551478 318.045 11.3374C281.569 21.9727 246.523 50.1327 206.656 39.8489C206.561 39.8225 206.461 39.8152 206.363 39.8274C206.265 39.8396 206.17 39.8711 206.085 39.9201C205.911 40.019 205.784 40.183 205.731 40.3761C205.678 40.5692 205.703 40.7756 205.802 40.9498C205.9 41.124 206.063 41.2518 206.256 41.305L206.266 41.2749Z" fill="#C8CCD1"/>
<path d="M156.497 114.788C156.895 114.788 157.276 114.63 157.558 114.347C157.839 114.065 157.997 113.681 157.997 113.282C157.997 112.882 157.839 112.499 157.558 112.217C157.276 111.934 156.895 111.775 156.497 111.775C156.099 111.775 155.718 111.934 155.436 112.217C155.155 112.499 154.997 112.882 154.997 113.282C154.997 113.681 155.155 114.065 155.436 114.347C155.718 114.63 156.099 114.788 156.497 114.788Z" fill="#6A0A76"/>
<path d="M416.392 316.256C417.342 313.856 419.233 313.032 422.043 313.775C422.653 314.258 423.273 314.709 423.903 315.161C424.616 315.633 425.451 315.884 426.304 315.884C428.244 315.754 428.814 314.187 430.205 313.173C433.805 310.532 434.205 313.906 437.206 314.579C439.206 315.041 444.207 310.411 445.297 312.841C445.697 313.715 446.987 312.952 446.587 312.078C445.587 309.879 443.337 310.17 441.447 311.134C439.556 312.098 438.506 313.414 436.136 312.139C435.466 311.767 435.075 310.823 434.365 310.451C433.997 310.21 433.583 310.048 433.149 309.975C432.715 309.902 432.271 309.921 431.845 310.03C430.395 310.371 429.905 311.747 428.844 312.52C425.224 315.041 424.714 312.982 421.773 311.887C418.643 310.722 416.682 313.062 415.122 315.523C414.602 316.346 415.902 317.1 416.422 316.286L416.392 316.256Z" fill="#6A0A76"/>
<path d="M432.465 322.875C435.275 317 439.316 323.016 443.086 321.66C443.856 321.389 444.087 320.716 444.647 320.395C447.167 319.009 449.207 320.465 451.278 321.62C453.708 322.976 457.149 324.392 458.179 320.545C458.214 320.36 458.178 320.168 458.078 320.008C457.979 319.848 457.823 319.731 457.642 319.681C457.461 319.63 457.268 319.65 457.101 319.736C456.933 319.821 456.804 319.967 456.739 320.144C455.649 324.161 449.738 317.834 447.737 317.512C445.317 317.121 444.417 318.848 442.246 319.26C439.846 319.722 438.246 317.964 435.665 318.436C434.668 318.619 433.734 319.051 432.949 319.694C432.163 320.337 431.553 321.169 431.174 322.112C430.754 322.976 432.044 323.749 432.465 322.875Z" fill="#6A0A76"/>
<path d="M33.9558 183.241C34.796 176.803 40.957 183.361 43.4475 182.437C46.378 181.363 45.4478 176.663 49.8286 179.103C51.1488 179.836 51.8289 181.282 53.5792 180.68C54.0793 180.509 54.3893 179.927 54.7994 179.675C55.0101 179.306 55.1972 178.924 55.3595 178.531C58.24 176.351 60.2503 176.663 61.3605 179.434C61.9006 180.238 63.2009 179.434 62.6608 178.681C60.5804 175.618 58.5901 174.062 55.1395 175.729C54.6894 175.95 54.6594 176.853 54.2993 177.064L50.8687 178.069C50.4173 177.585 49.9254 177.142 49.3985 176.743C48.3983 176.442 48.1783 175.859 47.0081 176.11C45.6278 176.402 45.4678 177.506 44.6777 178.39C44.6176 178.849 44.3833 179.267 44.0237 179.557C43.664 179.847 43.2068 179.987 42.7473 179.947C41.7538 180.85 40.8937 180.79 40.1669 179.766C39.2267 179.414 38.8667 178.762 37.8565 178.651C34.856 178.209 32.8056 180.569 32.4556 183.261C32.3355 184.215 33.8358 184.215 33.9558 183.261V183.241Z" fill="#6A0A76"/>
<path d="M49.1486 189.989C50.3888 186.123 54.7995 191.335 56.7999 190.994C58.8002 190.652 58.7402 188.694 60.1105 187.85C63.8811 185.53 64.6012 190.029 67.6618 190.511C69.7821 190.843 71.7925 189.336 73.3627 188.171C74.1329 187.599 73.3627 186.293 72.6026 186.866C71.5298 187.461 70.3413 187.816 69.119 187.906C67.8966 187.996 66.6693 187.819 65.5214 187.388C64.9713 187.077 64.6312 186.153 64.1011 185.761C63.6353 185.294 63.0295 184.994 62.377 184.907C61.7246 184.82 61.0617 184.951 60.4905 185.279C58.6702 186.193 59.4303 186.986 56.7499 187.438C53.5993 187.981 49.3786 184.295 47.7483 189.547C47.4583 190.471 48.8985 190.873 49.1986 189.949L49.1486 189.989Z" fill="#6A0A76"/>
<path d="M168.589 524.182C172.3 519.893 177.721 528.299 182.162 527.365C183.652 527.054 183.922 526.361 185.002 525.507C187.863 523.177 189.413 523.609 192.533 525.306C194.534 526.391 196.604 527.486 198.815 526.311C199.555 525.929 200.045 524.865 200.725 524.543C202.595 523.639 203.625 524.714 205.126 525.236C206.336 525.648 206.636 526.03 207.996 525.778C208.996 525.598 208.546 524.141 207.596 524.322C205.526 524.714 204.195 521.942 202.115 522.113C200.735 522.223 200.715 522.916 199.665 523.479C197.584 524.583 196.584 525.487 194.244 524.483C193.244 524.081 192.343 523.338 191.373 522.866C190.272 522.208 189.014 521.862 187.733 521.862C186.706 521.956 185.744 522.407 185.012 523.137C182.782 525.065 184.012 526.984 178.461 524.935C177.406 524.352 176.402 523.68 175.461 522.926C172.86 521.37 169.74 520.546 167.549 523.067C166.919 523.8 167.969 524.875 168.609 524.131L168.589 524.182Z" fill="#6A0A76"/>
<path d="M192.724 533.582C196.414 529.042 198.545 534.857 201.645 535.098C203.806 535.269 205.546 532.809 207.716 532.939C211.077 533.14 213.347 536.524 216.718 534.325C217.518 533.803 216.768 532.497 215.958 533.03C213.157 534.857 209.957 531.453 207.136 531.332C205.036 531.242 204.006 532.708 201.955 532.698C198.285 532.698 194.954 528.46 191.663 532.517C191.063 533.271 192.114 534.335 192.724 533.582Z" fill="#6A0A76"/>
<path d="M34.9662 131.561C40.7331 131.561 45.408 126.867 45.408 121.076C45.408 115.286 40.7331 110.592 34.9662 110.592C29.1994 110.592 24.5244 115.286 24.5244 121.076C24.5244 126.867 29.1994 131.561 34.9662 131.561Z" stroke="#6A0A76" stroke-miterlimit="10"/>
<path d="M295.191 388.464C297.401 388.464 299.192 386.665 299.192 384.447C299.192 382.228 297.401 380.43 295.191 380.43C292.982 380.43 291.19 382.228 291.19 384.447C291.19 386.665 292.982 388.464 295.191 388.464Z" stroke="#6A0A76" stroke-width="0.5" stroke-miterlimit="10"/>
<path d="M68.7322 472.091C72.4386 472.091 75.4433 469.074 75.4433 465.352C75.4433 461.63 72.4386 458.613 68.7322 458.613C65.0257 458.613 62.021 461.63 62.021 465.352C62.021 469.074 65.0257 472.091 68.7322 472.091Z" stroke="#6A0A76" stroke-miterlimit="10"/>
<path d="M528.241 9.94216C530.838 9.94216 532.942 7.8289 532.942 5.22206C532.942 2.61522 530.838 0.501953 528.241 0.501953C525.645 0.501953 523.541 2.61522 523.541 5.22206C523.541 7.8289 525.645 9.94216 528.241 9.94216Z" stroke="#6A0A76" stroke-miterlimit="10"/>
<path d="M576.979 123.345C578.371 123.345 579.499 122.212 579.499 120.814C579.499 119.416 578.371 118.283 576.979 118.283C575.587 118.283 574.459 119.416 574.459 120.814C574.459 122.212 575.587 123.345 576.979 123.345Z" stroke="#6A0A76" stroke-miterlimit="10"/>
<path d="M160.278 121.708C163.83 121.708 166.709 118.817 166.709 115.25C166.709 111.684 163.83 108.793 160.278 108.793C156.726 108.793 153.847 111.684 153.847 115.25C153.847 118.817 156.726 121.708 160.278 121.708Z" fill="#e06ca9"/>
<path d="M158.658 34.5576C161.314 34.5576 163.468 32.3949 163.468 29.7271C163.468 27.0592 161.314 24.8965 158.658 24.8965C156.001 24.8965 153.847 27.0592 153.847 29.7271C153.847 32.3949 156.001 34.5576 158.658 34.5576Z" fill="#e06ca9"/>
<path d="M422.913 483.228C427.829 483.228 431.815 479.226 431.815 474.29C431.815 469.353 427.829 465.352 422.913 465.352C417.997 465.352 414.012 469.353 414.012 474.29C414.012 479.226 417.997 483.228 422.913 483.228Z" fill="#e06ca9"/>
<path d="M350.761 334.645C353.097 334.645 354.991 332.743 354.991 330.397C354.991 328.05 353.097 326.148 350.761 326.148C348.424 326.148 346.53 328.05 346.53 330.397C346.53 332.743 348.424 334.645 350.761 334.645Z" fill="#e06ca9"/>
<path d="M114.19 504.98C118.277 504.98 121.591 501.653 121.591 497.549C121.591 493.444 118.277 490.117 114.19 490.117C110.102 490.117 106.789 493.444 106.789 497.549C106.789 501.653 110.102 504.98 114.19 504.98Z" stroke="#e06ca9" stroke-miterlimit="10"/>
<path d="M247.923 456.122C248.321 456.122 248.702 455.963 248.984 455.681C249.265 455.398 249.423 455.015 249.423 454.616C249.423 454.216 249.265 453.833 248.984 453.551C248.702 453.268 248.321 453.109 247.923 453.109C247.525 453.109 247.143 453.268 246.862 453.551C246.581 453.833 246.423 454.216 246.423 454.616C246.423 455.015 246.581 455.398 246.862 455.681C247.143 455.963 247.525 456.122 247.923 456.122Z" fill="#e06ca9"/>
<path d="M466.721 398.578C466.321 396.84 473.792 398.899 474.882 398.578C476.662 398.045 477.432 396.649 479.433 396.167C482.273 395.494 485.204 396.519 487.894 397.292C489.72 397.97 491.707 398.079 493.595 397.603C496.596 397.041 498.336 396.74 501.247 397.603C502.553 398.073 503.943 398.265 505.327 398.166C506.327 398.095 506.327 396.589 505.327 396.659C501.487 396.941 498.616 394.329 494.755 395.133C492.375 395.635 490.755 396.318 488.294 395.816C487.294 395.615 486.294 395.203 485.294 394.972C483.476 394.5 481.587 394.37 479.723 394.591C477.152 395.002 475.722 396.71 473.112 396.469C471.481 396.328 469.791 395.364 468.111 395.464C466.041 395.605 464.77 396.971 465.22 398.929C465.43 399.873 466.881 399.471 466.671 398.527L466.721 398.578Z" fill="#e06ca9"/>
<path d="M491.045 405.286C494.895 403.719 497.836 405.788 500.776 407.877C500.947 407.965 501.144 407.985 501.329 407.935C501.514 407.885 501.673 407.768 501.776 407.606C503.927 404.784 506.687 404.362 509.778 405.376C510.528 405.627 511.158 406.119 511.918 406.38C513.678 406.878 515.54 406.878 517.299 406.38C518.239 406.169 517.849 404.713 516.899 404.924C511.318 406.179 507.968 399.903 503.047 403.98C500.146 406.37 500.816 405.346 497.146 403.9C496.134 403.416 495.03 403.158 493.909 403.144C492.788 403.131 491.678 403.361 490.655 403.819C489.774 404.181 490.164 405.637 491.055 405.266L491.045 405.286Z" fill="#e06ca9"/>
<path d="M54.9796 69.5657C54.4817 73.8283 54.3646 78.127 54.6296 82.4105C55.0396 89.2295 55.6897 99.7744 62.5509 109.365C64.285 111.801 66.2993 114.022 68.552 115.983C73.6869 117.506 79.0107 118.29 84.3647 118.313C96.2767 118.313 105.098 114.477 113.37 110.761C121.488 107.099 129.107 102.411 136.044 96.8118C135.824 94.1313 135.366 91.4761 134.673 88.878C129.743 70.2587 114.18 59.754 107.129 55.5762C104.193 59.2369 100.767 62.4713 96.9469 65.1871C93.0962 67.9288 85.1548 73.5728 73.7929 73.9544C67.2513 74.1304 60.774 72.6194 54.9796 69.5657Z" fill="white"/>
<path d="M215.417 56.4193C218.288 58.8516 220.933 61.5407 223.319 64.4535C227.525 69.2228 230.772 74.7646 232.88 80.773C235.033 87.4471 235.548 94.5445 234.381 101.461C245.212 102.89 255.559 106.849 264.591 113.02C273.623 119.19 281.089 127.401 286.39 136.993C288.704 132.742 290.745 128.348 292.501 123.836C301.402 100.939 301.152 79.4574 299.352 64.7548C290.845 58.3537 281.171 53.6896 270.877 51.0263C244.793 44.368 223.029 52.9847 215.417 56.4193Z" fill="white"/>
<path d="M266.666 477.773C267.666 480.234 269.226 483.618 271.237 487.555C274.047 493.068 278.358 501.504 284.629 509.197C295.911 523.006 309.503 529.433 315.194 532.074C322.59 535.478 330.403 537.882 338.428 539.225C344.303 535.59 349.831 531.418 354.941 526.762C365.34 517.254 373.905 505.904 380.206 493.279C375.911 493.077 371.681 492.15 367.693 490.537C358.792 486.912 353.751 480.826 350.12 476.347C339.859 463.673 336.218 449.573 334.778 441.197C321.338 441.412 308.144 444.847 296.293 451.216C284.443 457.585 274.278 466.704 266.646 477.813L266.666 477.773Z" fill="white"/>
<path opacity="0.14" d="M330.507 441.057C322.701 444.831 316.289 450.995 312.194 458.662C307.503 467.59 306.003 478.637 308.783 487.294C314.324 504.497 338.288 516.859 366.253 511.657C359.773 523.306 350.131 532.866 338.449 539.225C332.209 538.13 326.094 536.411 320.195 534.093C308.466 529.526 297.787 522.606 288.81 513.756C278.693 503.369 271.345 490.59 267.446 476.598C275.838 465.026 286.917 455.686 299.722 449.392C309.382 444.725 319.82 441.899 330.507 441.057Z" fill="#474C54"/>
<path opacity="0.14" d="M106.798 56.8613C103.243 61.6817 100.472 67.0373 98.5869 72.7289C92.2458 92.0211 98.3069 109.224 100.807 115.31C90.4233 119.024 79.1206 119.26 68.5917 115.983C62.7731 109.808 58.607 102.253 56.482 94.0238C54.357 85.7946 54.3425 77.1591 56.4396 68.9227C60.4857 71.8078 65.1409 73.7153 70.042 74.4964C90.4555 77.5796 105.778 58.187 106.798 56.8613Z" fill="#474C54"/>
<path opacity="0.14" d="M216.828 57.6655C222.181 61.9825 226.578 67.3731 229.74 73.4929C232.244 78.4111 233.933 83.706 234.741 89.1697C235.524 93.9386 235.695 98.7885 235.251 103.601C240.683 104.631 246.032 106.065 251.254 107.889C260.465 111.113 268.477 113.915 275.728 120.945C280.383 125.495 284.018 130.99 286.39 137.064C285.124 127.206 282.776 117.519 279.388 108.181C271.359 86.5198 258.133 67.1821 240.882 51.8809L216.828 57.6655Z" fill="#474C54"/>
<path d="M54.2296 69.5651C52.2773 86.1755 56.5561 102.921 66.2316 116.535C66.7917 117.319 68.092 116.535 67.5319 115.782C58.014 102.393 53.816 85.9189 55.7598 69.5852C55.8699 68.581 54.3696 68.581 54.2596 69.5852L54.2296 69.5651Z" fill="#18191C"/>
<path d="M55.9094 69.4743C62.8206 75.6506 73.0024 75.1183 81.4938 73.0897C91.4947 70.6344 100.509 65.1679 107.328 57.423C107.968 56.6999 106.908 55.6353 106.268 56.3584C100.338 63.0904 92.6927 68.0727 84.1543 70.7698C75.6128 73.4211 64.1509 74.7869 56.9596 68.3897C56.2395 67.7469 55.1793 68.8014 55.8994 69.4542L55.9094 69.4743Z" fill="#18191C"/>
<path d="M68.3921 116.676C90.0958 124.71 116.73 112.317 134.153 99.6031C134.934 99.0407 134.153 97.7251 133.403 98.2975C116.26 110.831 90.1558 123.103 68.7921 115.25C67.882 114.918 67.4919 116.375 68.3921 116.706V116.676Z" fill="#18191C"/>
<path d="M106.759 56.2285C114.581 59.97 121.315 65.6674 126.313 72.7739C131.312 79.8805 134.408 88.1577 135.303 96.8113C135.393 97.8156 136.894 97.8156 136.804 96.8113C135.904 87.8967 132.738 79.3636 127.61 72.0305C122.482 64.6973 115.564 58.81 107.519 54.9329C106.649 54.5111 105.888 55.8067 106.759 56.2285Z" fill="#18191C"/>
<path d="M269.017 476.61C273.908 465.352 287.14 457.257 297.412 451.503C308.894 445.035 321.556 441.118 334.798 441.952C335.798 442.012 335.798 440.506 334.798 440.446C321.316 439.592 308.343 443.619 296.661 450.207C286.23 456.082 272.657 464.458 267.726 475.887C267.336 476.77 268.637 477.534 269.017 476.65V476.61Z" fill="#18191C"/>
<path d="M335.078 442.493C338.289 465.26 354.491 493.4 380.226 493.992C380.425 493.992 380.616 493.913 380.756 493.772C380.897 493.631 380.976 493.439 380.976 493.239C380.976 493.039 380.897 492.848 380.756 492.707C380.616 492.565 380.425 492.486 380.226 492.486C355.202 491.903 339.639 464.155 336.528 442.061C336.388 441.107 334.948 441.509 335.078 442.463V442.493Z" fill="#18191C"/>
<path d="M267.736 480.053C277.478 511.477 305.743 535.128 338.259 539.165C339.209 539.286 339.199 537.779 338.259 537.659C306.423 533.702 278.708 510.353 269.187 479.652C268.897 478.728 267.446 479.119 267.736 480.053Z" fill="#18191C"/>
<path d="M338.839 539.878C355.861 529.276 369.747 514.293 379.056 496.483C379.506 495.619 378.215 494.856 377.765 495.719C368.583 513.304 354.879 528.1 338.079 538.572C337.268 539.084 338.019 540.39 338.839 539.878Z" fill="#18191C"/>
<path d="M217.558 60.3369C223.671 65.0751 228.395 71.3844 231.229 78.5973C234.064 85.8102 234.904 93.6584 233.661 101.311C233.501 102.255 234.951 102.667 235.101 101.713C236.417 93.741 235.55 85.5597 232.594 78.0437C229.638 70.5277 224.704 63.9595 218.318 59.0414C217.548 58.4489 216.798 59.7544 217.558 60.3369Z" fill="#18191C"/>
<path d="M223.279 55.7572C249.283 49.9223 279.509 48.5264 300.002 68.7224C300.692 69.4053 301.752 68.3408 301.062 67.6579C280.189 47.0803 249.443 48.3858 222.879 54.301C221.939 54.5119 222.339 55.9681 223.279 55.7572Z" fill="#18191C"/>
<path d="M238.501 105.378C257.405 109.656 278.758 117.027 285.64 137.244C285.682 137.383 285.764 137.508 285.876 137.602C285.987 137.696 286.123 137.756 286.267 137.775C286.411 137.794 286.558 137.772 286.69 137.709C286.821 137.647 286.932 137.548 287.01 137.424C299.222 116.264 299.772 91.3883 299.942 67.597C299.942 67.3972 299.863 67.2056 299.722 67.0644C299.582 66.9231 299.391 66.8438 299.192 66.8438C298.993 66.8438 298.802 66.9231 298.661 67.0644C298.521 67.2056 298.442 67.3972 298.442 67.597C298.272 91.1272 297.792 115.742 285.71 136.661L287.08 136.842C280.019 116.073 258.375 108.33 238.902 103.922C237.961 103.711 237.561 105.167 238.501 105.378Z" fill="#18191C"/>
<path d="M311.464 496.413C316.331 493.461 320.793 489.882 324.736 485.768C325.406 485.065 324.346 484 323.676 484.703C319.813 488.729 315.441 492.23 310.674 495.118C309.844 495.62 310.604 496.925 311.424 496.413H311.464Z" fill="#e06ca9"/>
<path d="M314.114 486.25C316.54 490.858 319.741 495.01 323.576 498.523C324.286 499.175 325.356 498.111 324.636 497.458C320.897 494.034 317.774 489.987 315.405 485.497C314.955 484.633 313.664 485.397 314.114 486.25Z" fill="#e06ca9"/>
<path d="M253.454 80.7634C260.17 81.2507 266.422 84.3841 270.847 89.4805C271.487 90.2036 272.547 89.1391 271.907 88.416C267.197 83.0426 260.566 79.7515 253.454 79.257C252.453 79.1767 252.504 80.6831 253.454 80.7634Z" fill="#e06ca9"/>
<path d="M263.185 72.8094L261.185 88.1548C261.055 89.1591 262.565 89.0988 262.685 88.1548L264.685 72.8094C264.805 71.8554 263.305 71.8654 263.185 72.8094Z" fill="#e06ca9"/>
<path d="M86.5049 93.9095C91.7892 91.8573 96.9142 89.4135 101.838 86.5984C101.923 86.5483 101.998 86.4818 102.057 86.4026C102.117 86.3235 102.161 86.2334 102.186 86.1373C102.211 86.0413 102.217 85.9412 102.204 85.8428C102.19 85.7445 102.158 85.6497 102.108 85.564C102.058 85.4782 101.991 85.4032 101.913 85.3432C101.834 85.2832 101.744 85.2393 101.648 85.2142C101.553 85.189 101.453 85.183 101.355 85.1965C101.257 85.21 101.163 85.2427 101.077 85.2928C96.2621 88.0533 91.2471 90.4468 86.0749 92.4533C85.1847 92.8048 85.5648 94.261 86.4649 93.9095H86.5049Z" fill="#e06ca9"/>
<path d="M90.9459 81.6864L100.798 96.2183C101.338 97.0117 102.638 96.2183 102.098 95.455L92.2362 80.9231C91.6961 80.1298 90.3959 80.9231 90.9459 81.6864Z" fill="#e06ca9"/>
<path d="M139.394 278.465C129.763 292.101 121.611 306.733 115.08 322.111C101.688 353.99 95.3119 388.398 96.3864 422.98C103.741 432.331 113.392 439.599 124.391 444.07C154.396 456.011 182.181 440.947 186.402 438.567C187.434 428.154 189.027 417.805 191.173 407.565C199.324 368.207 210.526 355.282 211.396 329.623C211.756 318.857 210.396 303.04 201.555 283.426L139.394 278.465Z" fill="#6A0A76"/>
<path d="M140.684 217.816C139.702 214.68 139.256 211.4 139.364 208.115C139.577 203.144 140.995 198.301 143.495 194.005C150.406 182.305 163.368 179.724 165.128 179.403C173.796 177.954 182.685 179.949 189.913 184.966C194.154 182.516 198.793 180.836 203.615 180.005C208.666 179.152 213.147 178.398 215.837 181.009C218.898 184.022 217.838 189.546 217.478 191.303C216.777 194.858 214.907 199.217 206.646 206.789C199.644 213.247 193.113 219.192 182.181 222.938C177.791 224.444 171.88 224.947 160.068 226.071C155.537 226.483 151.936 226.674 148.066 224.786C144.995 223.215 142.434 220.797 140.684 217.816Z" fill="#e06ca9"/>
<path d="M170.52 223.47C172.463 225.585 174.072 227.986 175.29 230.591C177.411 235.19 177.181 238.374 177.921 243.897C178.813 251.415 180.575 258.803 183.172 265.911C185.312 271.455 186.432 274.277 189.173 276.818C194.764 281.929 202.065 282 204.405 282.03C207.676 282.03 212.017 282.1 215.917 279.208C219.528 276.516 220.718 272.811 222.168 268.291C223.619 263.772 225.059 259.253 223.399 253.649C222.113 249.582 219.587 246.023 216.177 243.476C212.846 240.902 208.859 239.325 204.675 238.926C199.881 235.954 195.007 232.79 190.053 229.436C187.052 227.427 184.129 225.395 181.281 223.34L170.52 223.47Z" fill="#18191C"/>
<path d="M142.705 221.725C142.915 223.311 143.215 225.651 143.505 228.473C144.365 236.739 145.695 249.453 144.645 263.894C143.831 274.776 141.791 285.53 138.564 295.951C146.698 300.143 155.98 301.536 164.979 299.913C173.979 298.291 182.198 293.744 188.373 286.973L187.172 273.796C185.605 271.295 184.266 268.656 183.172 265.913C179.471 256.432 180.571 250.517 178.501 240.997C177.288 235.499 175.354 230.186 172.75 225.199C162.607 227.245 152.08 226.029 142.665 221.725H142.705Z" fill="white"/>
<path d="M182.412 222.598C183.075 225.23 183.986 227.792 185.132 230.25C187.282 234.88 188.703 237.933 191.793 239.721C196.374 242.382 201.795 240.615 203.475 239.992H207.246C206.579 237.314 205.796 234.579 204.896 231.787C203.02 225.794 200.806 219.912 198.264 214.172L182.412 222.598Z" fill="white"/>
<path opacity="0.17" d="M168.629 227.971C166.175 232.448 164.165 237.158 162.628 242.031C159.338 252.575 159.748 259.314 158.727 265.31C157.447 272.842 153.216 283.387 139.474 295.157C141.297 288.164 142.68 281.063 143.615 273.896C144.454 267.407 144.928 260.876 145.035 254.333C145.144 247.732 144.884 241.13 144.255 234.559L168.629 227.971Z" fill="#474C54"/>
<path d="M142.664 222.969C142.974 224.977 143.414 227.84 143.874 231.334C146.675 252.806 145.415 260.458 147.775 261.302C150.135 262.146 156.056 255.959 171.319 225.469C161.702 226.824 151.904 225.969 142.664 222.969Z" fill="#18191C"/>
<path d="M198.714 218.329C202.008 225.353 204.624 232.678 206.526 240.203L207.446 239.269C205.855 238.985 204.24 238.858 202.625 238.887C202.426 238.887 202.235 238.966 202.094 239.108C201.954 239.249 201.875 239.44 201.875 239.64C201.875 239.84 201.954 240.032 202.094 240.173C202.235 240.314 202.426 240.393 202.625 240.393C204.107 240.292 205.595 240.404 207.046 240.725C207.173 240.756 207.306 240.754 207.432 240.719C207.558 240.684 207.673 240.616 207.765 240.524C207.858 240.431 207.925 240.315 207.96 240.189C207.995 240.062 207.997 239.928 207.966 239.801C206.029 232.158 203.366 224.719 200.014 217.586C199.604 216.703 198.304 217.466 198.714 218.339V218.329Z" fill="#18191C"/>
<path d="M181.461 223.129C183.632 228.522 185.352 235.853 190.193 239.539C192.143 240.981 194.455 241.847 196.869 242.041C199.283 242.234 201.702 241.747 203.855 240.634C204.725 240.212 203.965 238.906 203.105 239.328C200.75 240.537 198.046 240.877 195.466 240.288C192.887 239.699 190.595 238.218 188.993 236.104C186.082 232.278 184.692 227.156 182.912 222.727C182.551 221.844 181.101 222.225 181.461 223.129Z" fill="#18191C"/>
<path d="M208.276 240.563C225.509 244.922 227.769 265.741 216.807 277.631C216.147 278.334 217.207 279.409 217.867 278.696C229.589 265.982 226.999 243.747 208.676 239.107C208.581 239.081 208.481 239.074 208.383 239.086C208.285 239.098 208.19 239.13 208.105 239.179C208.019 239.227 207.943 239.293 207.882 239.371C207.822 239.449 207.777 239.539 207.751 239.635C207.724 239.73 207.717 239.83 207.729 239.928C207.742 240.027 207.773 240.122 207.822 240.208C207.87 240.294 207.936 240.37 208.014 240.431C208.091 240.492 208.181 240.537 208.276 240.563Z" fill="#18191C"/>
<path d="M172.91 227.779C182.382 243.978 175.911 267.408 191.823 280.182C192.563 280.785 193.634 279.73 192.883 279.118C177.251 266.534 183.592 243.064 174.2 227.016C174.093 226.857 173.93 226.745 173.744 226.702C173.558 226.66 173.362 226.69 173.197 226.788C173.033 226.885 172.911 227.042 172.858 227.226C172.805 227.41 172.823 227.608 172.91 227.779Z" fill="#18191C"/>
<path d="M141.944 223.129C145.872 247.033 144.789 271.496 138.764 294.955C138.738 295.051 138.73 295.151 138.743 295.249C138.755 295.348 138.786 295.443 138.835 295.529C138.884 295.615 138.949 295.691 139.027 295.752C139.105 295.813 139.194 295.858 139.289 295.884C139.384 295.91 139.484 295.918 139.582 295.906C139.68 295.893 139.774 295.862 139.86 295.813C139.946 295.764 140.022 295.698 140.082 295.62C140.143 295.542 140.188 295.452 140.214 295.357C146.295 271.636 147.375 246.902 143.385 222.738C143.225 221.784 141.784 222.185 141.944 223.129Z" fill="#18191C"/>
<path d="M139.024 217.476C141.234 223.502 147.245 225.671 153.126 226.515C161.819 227.675 170.658 226.991 179.071 224.506C195.395 219.632 209.125 208.453 217.247 193.424C217.718 192.58 216.427 191.817 215.957 192.67C210.719 202.511 202.941 210.756 193.439 216.541C183.937 222.326 173.06 225.437 161.948 225.55C154.707 225.631 143.505 225.229 140.504 217.104C140.174 216.211 138.724 216.592 139.064 217.506L139.024 217.476Z" fill="#18191C"/>
<path d="M141.404 217.616C139.265 210.258 140.068 202.353 143.643 195.581C147.218 188.809 153.283 183.704 160.548 181.351C175.17 176.46 190.553 182.968 199.254 195.24C199.814 196.024 201.115 195.24 200.555 194.477C191.133 181.201 174.31 174.392 158.707 180.417C151.434 183.154 145.46 188.549 141.982 195.522C138.504 202.495 137.78 210.531 139.954 218.017C140.234 218.941 141.684 218.55 141.404 217.616Z" fill="#18191C"/>
<path d="M192.423 185.349C196.316 182.98 200.596 181.324 205.065 180.458C207.956 179.916 212.577 179.062 215.067 181.292C218.478 184.304 217.548 189.788 215.707 193.263C215.247 194.116 216.537 194.879 216.997 194.016C219.528 189.265 219.918 180.87 213.657 178.69C206.986 176.371 197.264 180.699 191.653 184.053C191.495 184.161 191.383 184.324 191.341 184.512C191.299 184.699 191.329 184.895 191.426 185.06C191.523 185.225 191.679 185.347 191.863 185.401C192.046 185.455 192.243 185.436 192.413 185.349H192.423Z" fill="#18191C"/>
<path d="M192.173 221.703C192.918 222.882 193.389 224.213 193.553 225.6L194.953 225.218C193.938 223.845 193.269 222.247 193.003 220.558C192.843 219.554 191.403 220.006 191.553 220.95C191.848 222.767 192.568 224.488 193.653 225.971C194.033 226.493 195.153 226.423 195.053 225.59C194.874 223.938 194.335 222.347 193.473 220.93C192.963 220.106 191.663 220.859 192.173 221.693V221.703Z" fill="#18191C"/>
<path d="M173.81 232.539C169.419 231.213 166.089 236.074 165.969 240.021C165.919 241.079 166.097 242.136 166.49 243.119C166.883 244.102 167.483 244.988 168.247 245.718C169.012 246.448 169.925 247.004 170.922 247.348C171.92 247.693 172.98 247.817 174.03 247.714C174.98 247.603 175.03 246.097 174.03 246.207C164.638 247.212 166.689 231.957 173.41 233.985C173.594 234.02 173.785 233.984 173.945 233.884C174.104 233.785 174.221 233.628 174.271 233.447C174.321 233.265 174.302 233.071 174.216 232.903C174.131 232.735 173.986 232.605 173.81 232.539Z" fill="#18191C"/>
<path d="M191.733 280.023C198.864 283.216 212.217 285.104 218.178 278.386C218.818 277.663 217.758 276.598 217.108 277.321C211.647 283.488 198.964 281.62 192.493 278.727C191.623 278.336 190.853 279.631 191.733 280.023Z" fill="#18191C"/>
<path d="M192.893 227.86C193.311 227.318 193.872 226.906 194.512 226.669C195.152 226.433 195.846 226.383 196.513 226.524C197.453 226.725 197.853 225.279 196.913 225.068C195.99 224.855 195.027 224.904 194.13 225.209C193.233 225.514 192.438 226.063 191.833 226.795C191.233 227.539 192.283 228.613 192.893 227.86Z" fill="#18191C"/>
<path d="M186.422 273.595C186.076 276.063 185.979 278.559 186.132 281.047C186.192 282.051 187.692 282.051 187.632 281.047C187.475 278.701 187.552 276.346 187.862 274.017C187.992 273.073 186.552 272.661 186.422 273.615V273.595Z" fill="#18191C"/>
<path d="M184.701 292.515C187.553 289.339 191.067 286.832 194.993 285.174C201.604 282.422 208.065 282.804 215.466 284.3C229.339 287.112 238.871 292.334 246.362 296.04C258.396 302.019 270.844 307.121 283.608 311.305C291.48 307.147 299.831 302.327 308.473 296.723C315.244 292.334 321.475 287.915 327.226 283.577C328.065 278.723 330.514 274.296 334.174 271.014C337.834 267.733 342.491 265.79 347.389 265.5C355.747 269.961 365.049 272.344 374.514 272.45C373.514 277.702 373.094 281.217 373.694 281.388C374.294 281.558 375.494 279.63 375.104 278.947C374.274 277.471 364.842 280.685 340.668 292.143C330.866 302.739 322.285 311.406 315.664 317.913C303.572 329.764 297.541 335.337 289.659 341.012C284.808 344.517 280.568 347.168 277.557 348.965C274.869 349.336 272.159 349.517 269.446 349.508C261.425 349.403 253.5 347.749 246.102 344.637C236.81 341.042 223.318 336.884 202.654 331.742L184.701 292.515Z" fill="white"/>
<path opacity="0.24" d="M183.171 289.332C186.452 292.074 191.523 296.242 197.844 301.123C233.01 328.298 251.223 342.017 268.856 338.763C272.937 338.01 280.598 331.381 295.911 318.135C324.916 293.028 332.917 281.469 350.99 276.568C358.506 274.583 366.325 274.024 374.044 274.921C375.415 278.115 375.044 279.993 374.524 281.067C371.734 287.093 358.632 282.584 345.669 289.172C343.199 290.417 342.029 291.421 332.977 300.369C316.194 316.87 311.303 322.263 305.662 327.575C296.999 335.715 287.532 342.946 277.408 349.157C270.406 348.765 263.015 348.022 255.224 346.807C236.39 343.857 217.995 338.564 200.464 331.05L183.171 289.332Z" fill="#474C54"/>
<path d="M189.802 289.061C203.854 278.587 221.117 286.43 235.299 292.285L281.537 311.366C282.428 311.728 282.818 310.272 281.937 309.91C264.724 302.8 247.532 295.619 230.279 288.589C217.156 283.236 201.594 278.396 189.041 287.756C188.281 288.328 189.041 289.634 189.802 289.051V289.061Z" fill="#18191C"/>
<path d="M278.188 315.442C291.13 307.609 304.412 300.318 317.344 292.474C321.685 289.843 325.996 286.81 328.926 282.572C330.477 280.343 331.287 277.822 332.457 275.402C333.367 273.362 334.72 271.553 336.415 270.105C338.111 268.658 340.108 267.609 342.259 267.036C342.432 266.969 342.574 266.84 342.658 266.674C342.741 266.508 342.761 266.316 342.712 266.136C342.664 265.957 342.551 265.801 342.395 265.7C342.239 265.599 342.052 265.56 341.869 265.59C339.64 266.167 337.559 267.211 335.763 268.655C333.967 270.099 332.495 271.909 331.447 273.965C329.626 277.521 328.636 280.935 325.916 283.958C323.555 286.457 320.863 288.616 317.914 290.375C304.702 298.711 290.83 306.052 277.457 314.137C277.285 314.238 277.16 314.404 277.109 314.598C277.058 314.792 277.087 314.998 277.187 315.171C277.288 315.344 277.453 315.47 277.647 315.521C277.84 315.572 278.045 315.543 278.218 315.442H278.188Z" fill="#18191C"/>
<path d="M200.274 331.782C214.491 336.892 228.959 341.266 243.622 344.888C250.643 346.629 257.707 348.182 264.815 349.548C269.996 350.552 275.137 351.376 279.998 348.815C285.359 345.983 290.24 341.644 294.91 337.818C300.441 333.279 305.772 328.498 310.913 323.567C321.295 313.675 331.067 303.161 340.838 292.656C341.488 291.943 340.428 290.878 339.768 291.591C321.885 310.833 303.762 330.889 281.958 345.822C275.027 350.552 268.216 348.775 260.554 347.208C253.773 345.816 247.029 344.262 240.321 342.548C226.909 339.124 213.676 335.026 200.634 330.356C199.724 330.035 199.334 331.481 200.244 331.813L200.274 331.782Z" fill="#18191C"/>
<path d="M352.2 268.06C356.03 269.934 360.099 271.269 364.292 272.027C365.908 272.308 367.537 272.499 369.173 272.599C371.664 272.75 372.004 272.127 373.474 274.688C374.834 277.078 374.624 278.294 373.864 280.865C373.829 281.05 373.865 281.242 373.965 281.402C374.064 281.562 374.22 281.679 374.401 281.729C374.582 281.78 374.775 281.76 374.942 281.674C375.11 281.589 375.239 281.443 375.304 281.266C376.194 278.253 377.305 272.79 373.724 271.223C372.733 271.055 371.724 271.021 370.724 271.123C368.696 271.059 366.675 270.865 364.672 270.541C360.604 269.811 356.653 268.527 352.93 266.724C352.06 266.313 351.3 267.608 352.18 268.02L352.2 268.06Z" fill="#18191C"/>
<path d="M341.309 292.556C345.599 286.53 357.982 290.819 364.183 289.905C369.364 289.141 372.184 286.45 374.344 281.81C374.755 280.936 373.464 280.173 373.054 281.057C368.743 290.256 360.352 288.469 351.821 288.087C347.56 287.916 342.699 287.966 340.019 291.763C339.458 292.556 340.759 293.309 341.309 292.516V292.556Z" fill="#18191C"/>
<path d="M0.919922 193.344C1.53003 194.931 30.215 402.705 30.215 402.705L211.176 506.337C206.635 433.4 202.098 360.456 197.564 287.505L0.919922 193.344Z" fill="white" stroke="#18191C" stroke-miterlimit="10"/>
<path opacity="0.18" d="M82.1539 232.229C77.7208 246.74 75.0773 261.742 74.2826 276.9C67.9815 399.642 188.082 489.626 211.176 506.337L30.145 402.695C20.43 332.918 10.6883 263.134 0.919922 193.344L82.1539 232.229Z" fill="#474C54"/>
<path d="M339.949 24.9062C343.479 36.576 346.7 48.8683 349.47 61.7532C364.093 129.793 361.362 191.456 353.541 240.515L541.123 255.518L546.554 35.7926L339.949 24.9062Z" fill="white" stroke="#18191C" stroke-miterlimit="10"/>
<path opacity="0.18" d="M448.818 139.234C448.039 127.365 448.63 115.445 450.578 103.713C453.819 84.2496 455.669 73.1021 465.02 65.3893C476.552 55.8788 496.026 54.4326 509.888 63.5113C525.891 74.0261 521.98 100.81 521.11 121.709C519.77 153.575 522.58 198.566 541.114 255.549L496.226 246.23C495.626 244.141 495.006 242.062 494.356 239.973C483.433 204.613 468.134 170.769 448.818 139.234Z" fill="#474C54"/>
<path d="M408.27 143.793C407.41 144.888 406.19 146.484 404.83 148.483C403.83 149.909 399.569 156.216 397.518 161.759C395.408 167.464 395.598 172.576 396.238 179.415C397.438 191.961 399.443 204.416 402.239 216.704C397.117 220.673 392.206 224.911 387.527 229.398C381.986 234.7 381.406 235.905 376.005 240.776C369.144 246.952 365.723 250.046 360.242 252.878C356.451 254.836 354.431 255.278 350.17 258.09C344.119 262.107 342.649 264.859 342.029 266.355C340.679 269.669 340.559 274.008 342.029 274.721C343.499 275.434 346.86 272.099 348.83 270.061C349.891 268.973 350.868 267.804 351.751 266.566C355.283 269.447 359.655 271.093 364.203 271.256C367.529 271.355 370.83 270.646 373.824 269.187C374.423 266.72 375.373 264.352 376.645 262.157C379.775 256.734 383.826 254.233 391.457 249.101C401.519 242.393 406.53 238.707 407.72 237.834C416.472 231.376 419.302 228.474 421.353 224.376C422.933 221.243 423.443 218.602 424.143 214.946C425.19 208.594 425.416 202.134 424.813 195.724C423.753 185.079 418.582 166.259 408.27 143.793Z" fill="white"/>
<path d="M349.03 287.535C350.271 286.063 351.369 284.476 352.311 282.795C354.661 278.938 354.721 277.683 356.871 274.881C357.992 273.435 359.452 271.537 360.292 271.868C361.412 272.29 360.832 276.337 360.642 277.583C361.482 274.188 364.933 272.682 367.143 273.676C369.014 274.519 370.144 277.261 369.244 279.943C371.474 278.938 372.194 279.42 372.434 279.631C373.614 280.696 371.974 284.311 370.904 286.099C369.934 287.823 368.587 289.303 366.963 290.427C365.193 291.612 363.473 292.044 353.051 292.155C347.96 292.205 346.05 292.155 345.8 291.321C345.549 290.487 346.97 289.885 349.03 287.535Z" fill="white"/>
<path opacity="0.2" d="M413.481 155.844C413.782 160.012 414.192 166.198 414.572 173.7C415.282 187.639 415.642 194.609 415.302 197.923C414.822 202.653 412.531 219.153 400.639 231.747C393.638 239.169 389.467 238.687 378.515 249.824C374.688 253.685 371.186 257.857 368.044 262.297C366.037 265.138 364.185 268.085 362.493 271.125C364.06 272.206 365.948 272.716 367.844 272.571C369.02 272.448 370.159 272.085 371.191 271.505C372.223 270.925 373.126 270.139 373.845 269.197C374.98 265.339 376.84 261.736 379.326 258.581C382.596 254.454 385.567 252.947 393.988 247.424C401.499 242.483 405.26 240.002 408.751 237.14C414.662 232.259 419.553 228.232 422.493 221.825C425.354 215.568 425.174 209.613 424.563 203.346C422.853 185.781 418.092 168.899 413.481 155.844Z" fill="#474C54"/>
<path opacity="0.22" d="M350.951 292.125C353.232 291.609 355.385 290.636 357.282 289.263C364.733 283.79 365.173 273.486 367.143 273.656C367.804 273.717 368.594 274.952 369.244 279.923C370.934 279.24 371.994 279.14 372.434 279.612C373.381 280.636 371.471 284.318 366.703 290.659L350.951 292.125Z" fill="#474C54"/>
<path d="M404.3 147.91C386.527 166.992 400.169 194.529 401.529 216.663C401.589 217.667 403.089 217.667 403.029 216.663C401.699 195.011 388.027 167.624 405.36 148.975C406.02 148.272 404.96 147.197 404.3 147.91Z" fill="#18191C"/>
<path d="M404.12 216.633C395.348 218.441 387.607 228.182 381.566 234.238C373.434 242.382 365.343 249.553 354.961 254.675C348.22 257.999 339.758 263.251 340.639 272.069C341.639 282.343 350.04 269.809 352.331 267.048C352.951 266.304 351.891 265.24 351.27 265.983C349.92 267.6 344.809 275.956 342.339 273.133C340.609 271.125 343.249 265.933 344.339 264.266C345.723 262.318 347.469 260.657 349.48 259.375C355.651 255.217 362.622 252.827 368.573 248.217C374.244 243.829 379.235 238.657 384.296 233.595C389.697 228.202 396.798 219.656 404.5 218.079C405.45 217.878 405.05 216.432 404.1 216.623L404.12 216.633Z" fill="#18191C"/>
<path d="M423.583 202.554C423.973 210.849 424.083 219.697 419.052 226.757C414.422 233.244 407.05 237.452 400.609 241.911C390.097 249.192 376.605 255.6 373.114 269.027C373.088 269.123 373.081 269.222 373.093 269.321C373.105 269.419 373.137 269.514 373.185 269.601C373.234 269.687 373.299 269.763 373.377 269.824C373.455 269.885 373.544 269.929 373.64 269.956C373.735 269.982 373.834 269.99 373.932 269.977C374.03 269.965 374.125 269.934 374.211 269.885C374.297 269.836 374.372 269.77 374.433 269.692C374.494 269.614 374.538 269.524 374.565 269.429C376.935 260.209 383.756 255.449 391.178 250.347C397.939 245.657 404.88 241.148 411.461 236.197C416.112 232.702 420.463 228.685 422.793 223.252C425.604 216.784 425.403 209.523 425.083 202.634C425.083 201.63 423.533 201.63 423.583 202.634V202.554Z" fill="#18191C"/>
<path d="M346.059 291.009C348.63 289.256 350.774 286.942 352.33 284.24C353.74 281.951 357.14 272.932 360.101 272.762C361.101 272.711 361.101 271.205 360.101 271.255C357.36 271.416 355.4 275.634 354.25 277.683C351.739 282.111 349.699 286.821 345.308 289.734C344.498 290.266 345.248 291.562 346.059 291.029V291.009Z" fill="#18191C"/>
<path d="M359.652 272.231C360.892 274.239 358.372 279.13 357.602 280.837C356.663 282.923 355.573 284.937 354.341 286.863C353.821 287.686 355.121 288.44 355.641 287.626C357.468 284.755 358.986 281.699 360.172 278.507C360.952 276.358 362.303 273.637 360.942 271.477C360.432 270.654 359.132 271.407 359.652 272.231Z" fill="#18191C"/>
<path d="M360.352 279.06C362.467 276.502 365.168 274.497 368.223 273.215L367.223 272.944C369.743 277.333 365.693 283.77 363.152 287.456C362.602 288.249 363.903 289.002 364.453 288.209C367.333 284.041 371.404 277.162 368.523 272.141C368.419 271.98 368.259 271.864 368.074 271.814C367.89 271.764 367.694 271.784 367.523 271.869C364.35 273.205 361.546 275.293 359.352 277.955C358.732 278.688 359.782 279.763 360.412 279.02L360.352 279.06Z" fill="#18191C"/>
<path d="M366.423 273.456C364.585 278.539 362.161 283.389 359.202 287.907C358.662 288.711 359.962 289.474 360.492 288.66C363.533 284.034 366.024 279.066 367.914 273.857C368.244 272.944 366.803 272.552 366.473 273.456H366.423Z" fill="#18191C"/>
<path d="M369.774 280.455C371.774 280.375 372.414 280.033 371.714 279.451C371.594 279.953 371.454 280.455 371.314 280.927C370.957 282.082 370.519 283.209 370.004 284.302C369.047 286.313 367.848 288.198 366.433 289.916C365.823 290.659 366.883 291.723 367.493 290.98C369.914 288.017 372.754 283.799 373.164 279.853C373.464 276.99 369.984 278.366 368.713 279.431C367.963 280.054 369.033 281.118 369.774 280.495V280.455Z" fill="#18191C"/>
<path d="M345.599 292.025C351.94 294.425 360.221 292.296 366.702 291.432C367.642 291.312 367.702 289.795 366.702 289.926C360.361 290.77 352.17 292.939 345.999 290.569C345.089 290.227 344.698 291.683 345.599 292.025Z" fill="#18191C"/>
<path d="M400.439 145.47C401.909 149.537 404.19 156.136 406.44 164.441C411.631 183.362 410.361 187.539 415.392 195.463C419.792 202.393 421.393 200.173 432.815 212.998C439.976 221.032 443.816 225.571 446.537 232.079C448.064 235.81 449.113 239.722 449.657 243.719L510.508 250.076C504.12 221.909 493.575 194.86 479.223 169.824C472.273 157.727 464.45 146.157 455.818 135.206C448.217 133.128 429.214 129.181 410.691 138.621C407.026 140.506 403.586 142.804 400.439 145.47Z" fill="#e06ca9"/>
<path d="M449.267 146.194C450.479 144.21 451.946 142.393 453.628 140.791C456.029 138.511 459.379 135.338 464.36 134.816C470.151 134.213 474.572 137.578 476.122 138.753C479.293 141.173 480.883 143.915 482.903 147.62C489.904 160.535 492.055 166.009 492.055 166.009C496.486 177.317 498.706 182.981 502.056 193.787C504.967 203.177 508.408 215.409 511.628 230.021C510.8 232.534 509.4 234.817 507.537 236.69C505.27 238.838 502.479 240.348 499.446 241.068C473.242 248.098 439.156 247.184 439.156 247.184C435.455 247.084 430.154 246.913 423.653 246.582C421.598 247.177 419.44 247.328 417.322 247.024C413.721 246.481 412.451 244.844 408.7 243.228C405.156 241.729 401.344 240.977 397.499 241.018C391.557 241.169 386.817 243.599 385.746 241.932C385.517 241.527 385.416 241.061 385.456 240.596C385.553 240.098 385.761 239.627 386.064 239.22C386.367 238.813 386.758 238.48 387.207 238.246C387.521 237.706 387.879 237.192 388.277 236.71C388.736 236.145 389.248 235.627 389.807 235.163C389.939 234.476 390.137 233.804 390.397 233.155C390.911 231.931 391.632 230.807 392.528 229.83C394.458 227.872 397.829 228.093 401.849 228.404C404.936 228.653 407.986 229.25 410.941 230.182C411.111 228.274 411.581 227.169 412.361 226.868C414.115 226.198 417.422 229.546 422.283 236.911C427.886 236.408 433.445 235.495 438.916 234.179C445.036 232.693 451.037 230.75 456.869 228.364C463.41 225.683 465.28 224.257 471.151 222.439C474.819 221.307 478.572 220.474 482.373 219.948C479.293 212.105 476.602 205.567 474.582 200.747C466.09 180.52 459.109 165.999 457.219 162.092C453.988 155.464 451.218 149.98 449.267 146.194Z" fill="white"/>
<path opacity="0.21" d="M468.671 134.604C471.771 138.028 474.629 141.665 477.223 145.49C491.915 167.152 493.706 188.493 494.876 204.913C496.176 223.11 493.436 227.097 491.875 228.875C488.375 232.842 485.054 232.29 466.131 235.282C454.509 237.13 433.965 240.796 423.543 240.836C420.158 240.831 416.776 240.637 413.412 240.253C410.881 239.932 409.481 239.55 408.271 239.44C402.284 238.894 396.249 239.425 390.448 241.007C396.196 239.985 402.109 240.462 407.621 242.393C410.897 243.556 413.969 245.234 416.722 247.364L424.454 246.239C437.186 246.922 447.968 246.902 456.169 246.681C476.843 246.139 484.674 244.301 488.175 243.367C494.757 241.645 501.143 239.238 507.228 236.186L511.309 229.508C510.879 227.549 510.198 224.486 509.308 220.841C505.065 202.704 499.475 184.912 492.585 167.614C484.584 147.75 484.504 153.394 479.673 142.919C478.825 140.94 477.543 139.179 475.923 137.767C473.837 136.071 471.33 134.977 468.671 134.604Z" fill="#474C54"/>
<path d="M448.618 146.575C460.749 170.225 471.688 194.472 481.393 219.225C481.743 220.118 483.193 219.727 482.843 218.823C473.093 193.944 462.104 169.573 449.918 145.802C449.468 144.938 448.177 145.691 448.618 146.555V146.575Z" fill="#18191C"/>
<path d="M486.664 220.852C484.154 218.582 481.013 219.295 477.953 220.018C471.952 221.445 466.381 224.036 460.71 226.396C448.275 231.471 435.161 234.669 421.793 235.886C420.843 235.976 420.793 237.483 421.793 237.392C432.566 236.44 443.189 234.209 453.438 230.744C458.529 228.997 463.44 226.807 468.441 224.809C472.442 223.182 481.873 218.522 485.634 221.917C486.354 222.569 487.414 221.505 486.694 220.852H486.664Z" fill="#18191C"/>
<path d="M476.102 139.635C486.474 151.918 492.195 167.394 497.466 182.388C502.729 197.417 507.013 212.775 510.288 228.363C510.488 229.307 511.938 228.916 511.738 227.962C508.204 211.124 503.488 194.559 497.626 178.39C492.505 164.331 486.914 150.12 477.162 138.571C476.542 137.838 475.482 138.902 476.102 139.635Z" fill="#18191C"/>
<path d="M424.774 247.516C442.247 248.108 459.83 248.691 477.233 246.511C488.315 245.115 506.428 243.77 511.899 232C512.299 231.126 511.008 230.353 510.598 231.236C507.458 237.995 500.257 240.325 493.545 242.002C485.743 243.892 477.803 245.154 469.801 245.778C454.799 247.034 439.796 246.531 424.794 246.019C423.793 246.019 423.793 247.496 424.794 247.526L424.774 247.516Z" fill="#18191C"/>
<path d="M423.443 245.858C416.442 248.469 411.051 242.323 404.63 240.706C398.629 239.2 391.757 240.706 385.736 241.178C384.736 241.258 384.736 242.765 385.736 242.684C394.488 241.991 402.179 240.676 410.311 244.813C414.731 247.053 418.892 249.152 423.843 247.314C424.743 246.973 424.353 245.516 423.443 245.858Z" fill="#18191C"/>
<path d="M422.523 235.463C421.032 232.248 418.623 229.549 415.602 227.71C414.602 227.098 413.121 226.154 411.881 226.626C411.662 226.702 411.461 226.821 411.289 226.977C411.117 227.133 410.978 227.322 410.88 227.533C410.782 227.743 410.727 227.972 410.719 228.204C410.71 228.436 410.749 228.668 410.831 228.885C411.151 229.789 412.601 229.398 412.281 228.484C412.081 227.921 413.951 228.484 414.042 228.564C414.499 228.796 414.943 229.054 415.372 229.337C416.262 229.919 417.09 230.592 417.842 231.346C419.243 232.746 420.384 234.385 421.213 236.186C421.633 237.06 422.923 236.297 422.513 235.433L422.523 235.463Z" fill="#18191C"/>
<path d="M420.383 235.625C416.937 232.056 412.57 229.521 407.77 228.305C402.971 227.088 397.928 227.237 393.208 228.736C392.288 229.027 392.688 230.483 393.608 230.192C398.077 228.749 402.859 228.593 407.411 229.742C411.964 230.89 416.104 233.297 419.363 236.69C420.043 237.383 421.103 236.318 420.423 235.625H420.383Z" fill="#18191C"/>
<path d="M385.697 241.601C387.817 238.146 394.448 238.588 397.959 238.116C398.909 238.005 398.959 236.499 397.959 236.609C393.758 237.121 386.957 236.67 384.407 240.837C383.896 241.671 385.197 242.424 385.697 241.601Z" fill="#18191C"/>
<path d="M387.657 238.427C391.077 235.354 395.758 235.244 400.109 235.213C400.308 235.213 400.499 235.134 400.639 234.993C400.78 234.852 400.859 234.66 400.859 234.46C400.859 234.26 400.78 234.069 400.639 233.928C400.499 233.786 400.308 233.707 400.109 233.707C395.318 233.707 390.337 233.998 386.597 237.363C385.877 238.015 386.937 239.07 387.657 238.427Z" fill="#18191C"/>
<path d="M390.407 235.183C391.347 232.029 398.138 232.371 400.639 232.501C401.639 232.551 401.639 231.045 400.639 230.995C397.278 230.814 390.207 230.623 388.957 234.781C388.677 235.715 390.127 236.107 390.407 235.183Z" fill="#18191C"/>
<path d="M391.748 232.17C392.035 231.446 392.585 230.858 393.286 230.524C393.988 230.191 394.789 230.136 395.529 230.372C396.449 230.673 396.849 229.217 395.929 228.926C394.807 228.586 393.599 228.692 392.553 229.221C391.507 229.75 390.704 230.661 390.308 231.768C389.968 232.682 391.418 233.074 391.748 232.17Z" fill="#18191C"/>
<path d="M456.129 139.375C459.129 137.587 462.21 135.689 465.74 135.438C469.741 135.147 472.682 137.185 475.742 139.405C476.522 139.977 477.272 138.672 476.492 138.099C473.412 135.87 470.241 133.751 466.291 133.851C462.34 133.952 458.699 136.081 455.369 138.069C454.549 138.571 455.299 139.877 456.129 139.375Z" fill="#18191C"/>
<path d="M377.806 94.2825C376.983 99.6994 376.906 105.204 377.576 110.642C378.324 117.269 380.443 123.666 383.797 129.422C387.739 135.988 393.236 141.473 399.799 145.39C401.57 145.203 403.325 144.887 405.05 144.446C408.747 143.502 412.284 142.009 415.542 140.017C417.301 141.508 419.208 142.814 421.233 143.914C425.817 146.366 430.896 147.74 436.086 147.931C440.563 142.544 444.094 136.431 446.528 129.854C448.748 123.828 454.899 107.117 447.008 92.0631C444.127 86.5596 440.496 83.4464 436.326 79.8711C427.974 72.7207 417.052 63.3608 403.32 65.982C388.097 68.8844 379.756 84.5009 378.316 91.4404C378.206 91.7718 378.016 92.8665 377.806 94.2825Z" fill="white"/>
<path opacity="0.26" d="M402.78 74.0156C409.051 79.1099 413.719 85.9187 416.22 93.6194C418.721 101.32 418.947 109.583 416.872 117.41C413.221 132.886 402.77 142.086 398.689 145.319C401.549 144.677 404.61 143.863 407.841 142.819C410.601 141.935 413.171 140.981 415.522 140.017C417.283 141.506 419.189 142.811 421.213 143.913C423.998 145.413 426.982 146.506 430.074 147.157C436.895 139.486 442.052 130.474 445.217 120.694C448.127 111.596 450.748 103.371 447.107 95.0854C443.377 86.5992 435.165 82.8332 427.744 79.4387C419.898 75.8801 411.389 74.0317 402.78 74.0156Z" fill="#474C54"/>
<path d="M378.296 91.4599C384.026 82.6269 392.183 75.6505 401.78 71.3743C402.496 73.5253 403.4 75.6089 404.48 77.6008C411.211 89.9434 423.213 95.3866 429.064 97.596C431.425 94.6535 435.065 93.4182 437.986 94.4727C441.626 95.7883 442.567 100.006 442.817 101.151C443.351 103.746 442.95 106.447 441.687 108.774C439.486 112.63 434.825 114.799 429.804 114.418C428.334 115.422 421.663 120.212 420.103 129.02C418.493 138.058 423.253 146.625 429.804 151.204C433.884 153.961 438.711 155.388 443.627 155.291C448.544 155.194 453.311 153.578 457.279 150.662C464.83 145.078 466.381 136.602 466.701 134.594C472.602 139.123 479.973 139.836 484.924 136.602C490.685 132.816 491.765 124.551 490.135 118.987C487.524 110.019 478.873 110.953 464.55 96.2904C459.31 90.9376 456.919 88.1156 454.189 83.7571C447.688 73.3427 448.358 66.6843 438.186 61.3918C418.382 51.0879 396.279 61.0202 393.728 62.2053C382.492 67.5676 373.309 76.4682 367.574 87.5532C369.816 94.1642 370.833 101.132 370.574 108.111C369.974 121.809 364.573 125.856 364.643 138.41C364.643 143.662 364.733 155.834 373.265 163.296C382.016 170.938 398.599 172.696 408.021 163.025C416.302 154.518 414.282 142.075 414.022 140.599L400.489 145.44C395.423 142.643 390.94 138.892 387.287 134.393C373.505 117.25 377.475 95.5272 378.296 91.4599Z" fill="#6A0A76"/>
<path d="M377.546 91.4599C375.035 111.987 380.216 134.031 398.319 145.972C399.119 146.504 399.88 145.199 399.069 144.666C381.426 133.037 376.605 111.415 379.066 91.4398C379.186 90.4355 377.686 90.4958 377.566 91.4398L377.546 91.4599Z" fill="#18191C"/>
<path d="M399.779 146.142C407.368 145.313 414.492 142.06 420.103 136.862C420.813 136.21 419.753 135.145 419.033 135.798C413.719 140.732 406.972 143.829 399.779 144.636C398.829 144.746 398.779 146.252 399.779 146.142Z" fill="#18191C"/>
<path d="M391.588 98.1187C391.774 106.669 392.762 115.183 394.538 123.547C394.575 123.673 394.644 123.788 394.738 123.88C394.832 123.971 394.948 124.037 395.075 124.07C395.202 124.104 395.335 124.104 395.462 124.07C395.589 124.036 395.705 123.97 395.799 123.878C397.333 122.214 398.734 120.431 399.989 118.546C400.529 117.742 399.229 116.979 398.699 117.782C397.498 119.559 396.16 121.238 394.698 122.804L395.949 123.135C394.199 114.903 393.228 106.524 393.048 98.1087C393.048 97.1044 391.518 97.1044 391.548 98.1087L391.588 98.1187Z" fill="#18191C"/>
<path d="M395.759 129.672C398.793 129.802 401.821 129.3 404.653 128.197C407.484 127.094 410.058 125.415 412.212 123.265C412.902 122.582 411.841 121.517 411.151 122.2C409.145 124.213 406.742 125.782 404.097 126.81C401.451 127.837 398.622 128.299 395.789 128.166C394.789 128.166 394.789 129.632 395.789 129.672H395.759Z" fill="#18191C"/>
<path d="M382.356 92.1026C382.708 91.5964 383.178 91.1847 383.725 90.9036C384.272 90.6225 384.879 90.4807 385.494 90.4906C386.108 90.5005 386.711 90.6619 387.248 90.9605C387.786 91.2591 388.242 91.6857 388.577 92.203C389.118 92.9964 390.418 92.203 389.878 91.4397C389.427 90.724 388.812 90.1279 388.083 89.7021C387.354 89.2763 386.533 89.0334 385.691 88.994C384.849 88.9546 384.01 89.1198 383.244 89.4756C382.479 89.8315 381.811 90.3674 381.296 91.038C380.716 91.7912 381.766 92.8658 382.356 92.1026Z" fill="#18191C"/>
<path d="M401.21 91.2581C402.47 90.0381 404.129 89.318 405.877 89.2312C407.626 89.1444 409.347 89.6968 410.721 90.7861C411.471 91.3887 412.542 90.3241 411.792 89.7216C410.129 88.3577 408.026 87.6526 405.881 87.7396C403.736 87.8266 401.697 88.6996 400.15 90.1936C399.459 90.8664 400.52 91.931 401.21 91.2581Z" fill="#18191C"/>
<path d="M429.595 98.0776C431.665 96.1494 434.085 94.7032 436.976 95.0648C441.167 95.597 442.157 99.3028 442.117 102.798C442.047 109.024 438.326 112.368 432.325 112.78C431.325 112.84 431.325 114.347 432.325 114.287C440.376 113.734 444.857 108.06 443.437 99.9556C442.017 91.8511 433.435 92.3934 428.534 96.9428C427.824 97.6056 428.894 98.6701 429.595 98.0173V98.0776Z" fill="#18191C"/>
<path d="M386.837 108.231C387.56 108.231 388.147 106.531 388.147 104.435C388.147 102.338 387.56 100.639 386.837 100.639C386.113 100.639 385.527 102.338 385.527 104.435C385.527 106.531 386.113 108.231 386.837 108.231Z" fill="#18191C"/>
<path d="M405.09 107.659C405.813 107.659 406.4 105.959 406.4 103.863C406.4 101.766 405.813 100.066 405.09 100.066C404.366 100.066 403.78 101.766 403.78 103.863C403.78 105.959 404.366 107.659 405.09 107.659Z" fill="#18191C"/>
<path d="M408 111.756H407.86C407.661 111.756 407.471 111.835 407.33 111.976C407.189 112.118 407.11 112.309 407.11 112.509C407.11 112.709 407.189 112.9 407.33 113.042C407.471 113.183 407.661 113.262 407.86 113.262H408C408.199 113.262 408.39 113.183 408.531 113.042C408.671 112.9 408.75 112.709 408.75 112.509C408.75 112.309 408.671 112.118 408.531 111.976C408.39 111.835 408.199 111.756 408 111.756Z" fill="#18191C"/>
<path d="M414.412 109.547C414.611 109.547 414.801 109.468 414.942 109.327C415.083 109.186 415.162 108.994 415.162 108.794C415.162 108.594 415.083 108.403 414.942 108.262C414.801 108.12 414.611 108.041 414.412 108.041C414.213 108.041 414.022 108.12 413.881 108.262C413.741 108.403 413.662 108.594 413.662 108.794C413.662 108.994 413.741 109.186 413.881 109.327C414.022 109.468 414.213 109.547 414.412 109.547Z" fill="#18191C"/>
<path d="M414.552 115.672C414.751 115.672 414.941 115.593 415.082 115.452C415.223 115.311 415.302 115.119 415.302 114.919C415.302 114.719 415.223 114.528 415.082 114.387C414.941 114.245 414.751 114.166 414.552 114.166C414.353 114.166 414.162 114.245 414.021 114.387C413.881 114.528 413.802 114.719 413.802 114.919C413.802 115.119 413.881 115.311 414.021 115.452C414.162 115.593 414.353 115.672 414.552 115.672Z" fill="#18191C"/>
<path d="M414.992 140.549C419.061 143.761 423.603 146.319 428.454 148.131C429.354 148.473 429.744 147.017 428.844 146.675C424.234 144.956 419.918 142.527 416.052 139.475C415.302 138.892 414.232 139.947 414.992 140.549Z" fill="#18191C"/>
</g>
<defs>
<clipPath id="clip0_1647_28876">
<rect width="580" height="540" fill="white"/>
</clipPath>
</defs>
</svg>
