<svg width="312" height="258" viewBox="0 0 312 258" fill="none" xmlns="http://www.w3.org/2000/svg">
<path d="M241.07 27.7021C241.07 27.7021 212.047 3.99006 174.302 14.492C136.556 24.9939 120.744 57.548 99.1034 79.8997C87.7653 91.6059 71.0234 95.9178 57.545 104.935C14.489 133.751 20.8538 198.535 54.0631 222.97C86.1616 246.564 128.868 243.25 165.066 232.362C231.248 212.444 310.952 151.678 276.538 73.8656C268.485 55.9178 256.337 40.1071 241.07 27.7021Z" fill="#eb9dd9"/>
<path opacity="0.7" d="M241.07 27.7021C241.07 27.7021 212.047 3.99006 174.302 14.492C136.556 24.9939 120.744 57.548 99.1034 79.8997C87.7653 91.6059 71.0234 95.9178 57.545 104.935C14.489 133.751 20.8538 198.535 54.0631 222.97C86.1616 246.564 128.868 243.25 165.066 232.362C231.248 212.444 310.952 151.678 276.538 73.8656C268.485 55.9178 256.337 40.1071 241.07 27.7021Z" fill="white"/>
<path d="M156 254.264C228.806 254.264 287.826 249.562 287.826 243.762C287.826 237.962 228.806 233.26 156 233.26C83.1945 233.26 24.1738 237.962 24.1738 243.762C24.1738 249.562 83.1945 254.264 156 254.264Z" fill="#eb9dd9"/>
<path opacity="0.5" d="M156 254.264C228.806 254.264 287.826 249.562 287.826 243.762C287.826 237.962 228.806 233.26 156 233.26C83.1945 233.26 24.1738 237.962 24.1738 243.762C24.1738 249.562 83.1945 254.264 156 254.264Z" fill="white"/>
<path d="M261.668 24.707H125.28C122.32 24.707 119.92 27.1069 119.92 30.0672V101.159C119.92 104.12 122.32 106.52 125.28 106.52H261.668C264.628 106.52 267.028 104.12 267.028 101.159V30.0672C267.028 27.1069 264.628 24.707 261.668 24.707Z" fill="#760A5B"/>
<path d="M266.023 27.7695H129.636C126.675 27.7695 124.275 30.1694 124.275 33.1297V104.222C124.275 107.182 126.675 109.582 129.636 109.582H266.023C268.984 109.582 271.383 107.182 271.383 104.222V33.1297C271.383 30.1694 268.984 27.7695 266.023 27.7695Z" fill="white" stroke="#760A5B" stroke-miterlimit="10"/>
<path d="M141.928 37.7233C141.928 38.6502 141.653 39.5562 141.138 40.3269C140.623 41.0975 139.892 41.6981 139.035 42.0528C138.179 42.4075 137.237 42.5003 136.328 42.3195C135.419 42.1387 134.584 41.6924 133.928 41.037C133.273 40.3816 132.827 39.5466 132.646 38.6376C132.465 37.7285 132.558 36.7863 132.912 35.93C133.267 35.0737 133.868 34.3418 134.638 33.8269C135.409 33.312 136.315 33.0371 137.242 33.0371C137.857 33.0371 138.467 33.1583 139.035 33.3938C139.604 33.6293 140.12 33.9745 140.556 34.4097C140.991 34.8448 141.336 35.3614 141.571 35.93C141.807 36.4986 141.928 37.1079 141.928 37.7233Z" fill="#eb9dd9" stroke="#760A5B" stroke-miterlimit="10"/>
<path d="M134.141 34.209L140.381 41.1916" stroke="#760A5B" stroke-miterlimit="10"/>
<path d="M140.806 34.2715L134.435 41.1292" stroke="#760A5B" stroke-miterlimit="10"/>
<path d="M153.93 40.02V45.13C153.93 45.43 153.877 45.7033 153.77 45.95C153.67 46.1967 153.523 46.4067 153.33 46.58C153.143 46.7533 152.917 46.8867 152.65 46.98C152.383 47.0733 152.087 47.12 151.76 47.12C151.147 47.12 150.657 46.9667 150.29 46.66C149.93 46.3533 149.697 45.93 149.59 45.39L150.65 45.17C150.71 45.4567 150.823 45.6967 150.99 45.89C151.157 46.0833 151.417 46.18 151.77 46.18C152.097 46.18 152.35 46.0833 152.53 45.89C152.717 45.69 152.81 45.3867 152.81 44.98V40.96H150.38V40.02H153.93ZM157.996 47.12C157.556 47.12 157.173 47.04 156.846 46.88C156.526 46.7133 156.259 46.4767 156.046 46.17C155.839 45.8633 155.686 45.4867 155.586 45.04C155.486 44.5933 155.436 44.0833 155.436 43.51C155.436 42.9433 155.486 42.4367 155.586 41.99C155.686 41.5367 155.839 41.1567 156.046 40.85C156.259 40.5433 156.526 40.31 156.846 40.15C157.173 39.9833 157.556 39.9 157.996 39.9C158.436 39.9 158.816 39.9833 159.136 40.15C159.463 40.31 159.729 40.5433 159.936 40.85C160.149 41.1567 160.306 41.5367 160.406 41.99C160.506 42.4367 160.556 42.9433 160.556 43.51C160.556 44.0833 160.506 44.5933 160.406 45.04C160.306 45.4867 160.149 45.8633 159.936 46.17C159.729 46.4767 159.463 46.7133 159.136 46.88C158.816 47.04 158.436 47.12 157.996 47.12ZM157.996 46.19C158.496 46.19 158.849 46.0033 159.056 45.63C159.263 45.25 159.366 44.7367 159.366 44.09V42.92C159.366 42.28 159.263 41.7733 159.056 41.4C158.849 41.02 158.496 40.83 157.996 40.83C157.496 40.83 157.143 41.02 156.936 41.4C156.729 41.7733 156.626 42.28 156.626 42.92V44.1C156.626 44.74 156.729 45.25 156.936 45.63C157.143 46.0033 157.496 46.19 157.996 46.19ZM161.822 40.02H164.232C164.866 40.02 165.356 40.1833 165.702 40.51C166.056 40.8367 166.232 41.2833 166.232 41.85C166.232 42.2567 166.132 42.58 165.932 42.82C165.732 43.06 165.462 43.23 165.122 43.33V43.38C165.529 43.4733 165.856 43.6533 166.102 43.92C166.349 44.18 166.472 44.55 166.472 45.03C166.472 45.3167 166.426 45.58 166.332 45.82C166.239 46.06 166.106 46.27 165.932 46.45C165.759 46.6233 165.549 46.76 165.302 46.86C165.062 46.9533 164.796 47 164.502 47H161.822V40.02ZM164.162 46.14C164.536 46.14 164.822 46.0633 165.022 45.91C165.222 45.7567 165.322 45.51 165.322 45.17V44.81C165.322 44.47 165.222 44.2233 165.022 44.07C164.822 43.9167 164.536 43.84 164.162 43.84H162.922V46.14H164.162ZM164.002 43.02C164.356 43.02 164.622 42.9533 164.802 42.82C164.989 42.68 165.082 42.45 165.082 42.13V41.77C165.082 41.45 164.989 41.2233 164.802 41.09C164.622 40.95 164.356 40.88 164.002 40.88H162.922V43.02H164.002ZM174.644 40.96V47H173.524V40.96H171.334V40.02H176.834V40.96H174.644ZM177.88 47V46.15H179.52V40.87H177.88V40.02H182.28V40.87H180.64V46.15H182.28V47H177.88ZM186.637 40.96V47H185.517V40.96H183.327V40.02H188.827V40.96H186.637ZM192.633 40.96V47H191.513V40.96H189.323V40.02H194.823V40.96H192.633ZM196.149 47V40.02H197.269V46.06H200.449V47H196.149ZM201.925 47V40.02H206.295V40.96H203.045V42.99H206.175V43.93H203.045V46.06H206.295V47H201.925Z" fill="#18191C"/>
<rect x="193" y="82.5" width="70" height="19" rx="9.5" fill="#6A0A76"/>
<path d="M205.8 95.5V88.52H208.45C209.13 88.52 209.65 88.7133 210.01 89.1C210.37 89.4867 210.55 90.0133 210.55 90.68C210.55 91.3467 210.37 91.8733 210.01 92.26C209.65 92.6467 209.13 92.84 208.45 92.84H207.11V95.5H205.8ZM207.11 91.77H208.18C208.533 91.77 208.787 91.7 208.94 91.56C209.093 91.4133 209.17 91.1833 209.17 90.87V90.49C209.17 90.1767 209.093 89.95 208.94 89.81C208.787 89.6633 208.533 89.59 208.18 89.59H207.11V91.77ZM213.996 95.62C213.543 95.62 213.149 95.54 212.816 95.38C212.483 95.2133 212.206 94.9767 211.986 94.67C211.773 94.3633 211.613 93.9867 211.506 93.54C211.406 93.0933 211.356 92.5833 211.356 92.01C211.356 91.4433 211.406 90.9367 211.506 90.49C211.613 90.0367 211.773 89.6567 211.986 89.35C212.206 89.0433 212.483 88.81 212.816 88.65C213.149 88.4833 213.543 88.4 213.996 88.4C214.903 88.4 215.569 88.7167 215.996 89.35C216.423 89.9833 216.636 90.87 216.636 92.01C216.636 93.15 216.423 94.0367 215.996 94.67C215.569 95.3033 214.903 95.62 213.996 95.62ZM213.996 94.55C214.229 94.55 214.426 94.5067 214.586 94.42C214.746 94.3267 214.873 94.1967 214.966 94.03C215.066 93.8633 215.136 93.66 215.176 93.42C215.223 93.1733 215.246 92.9 215.246 92.6V91.41C215.246 90.81 215.153 90.3367 214.966 89.99C214.786 89.6433 214.463 89.47 213.996 89.47C213.529 89.47 213.203 89.6433 213.016 89.99C212.836 90.3367 212.746 90.81 212.746 91.41V92.61C212.746 93.21 212.836 93.6833 213.016 94.03C213.203 94.3767 213.529 94.55 213.996 94.55ZM219.912 95.62C219.312 95.62 218.799 95.5167 218.372 95.31C217.952 95.1033 217.609 94.83 217.342 94.49L218.132 93.67C218.392 93.97 218.672 94.1933 218.972 94.34C219.279 94.48 219.606 94.55 219.952 94.55C220.352 94.55 220.659 94.46 220.872 94.28C221.086 94.1 221.192 93.84 221.192 93.5C221.192 93.22 221.112 93.01 220.952 92.87C220.792 92.7233 220.522 92.62 220.142 92.56L219.402 92.44C218.756 92.3267 218.296 92.0933 218.022 91.74C217.749 91.38 217.612 90.9567 217.612 90.47C217.612 89.8033 217.829 89.2933 218.262 88.94C218.696 88.58 219.296 88.4 220.062 88.4C220.609 88.4 221.079 88.4867 221.472 88.66C221.872 88.8333 222.192 89.07 222.432 89.37L221.662 90.19C221.476 89.97 221.252 89.7967 220.992 89.67C220.732 89.5367 220.426 89.47 220.072 89.47C219.312 89.47 218.932 89.7833 218.932 90.41C218.932 90.6767 219.012 90.88 219.172 91.02C219.332 91.16 219.606 91.2633 219.992 91.33L220.722 91.46C221.329 91.5733 221.779 91.7967 222.072 92.13C222.366 92.4633 222.512 92.89 222.512 93.41C222.512 93.7367 222.456 94.0367 222.342 94.31C222.229 94.5767 222.062 94.81 221.842 95.01C221.622 95.2033 221.349 95.3533 221.022 95.46C220.702 95.5667 220.332 95.62 219.912 95.62ZM226.638 89.6V95.5H225.338V89.6H223.238V88.52H228.738V89.6H226.638ZM238 88.52V93.59C238 93.9033 237.947 94.1867 237.84 94.44C237.734 94.6867 237.58 94.8967 237.38 95.07C237.187 95.2433 236.95 95.38 236.67 95.48C236.397 95.5733 236.09 95.62 235.75 95.62C235.09 95.62 234.57 95.4533 234.19 95.12C233.817 94.7867 233.577 94.3433 233.47 93.79L234.7 93.53C234.76 93.8233 234.867 94.0667 235.02 94.26C235.18 94.4467 235.424 94.54 235.75 94.54C236.05 94.54 236.28 94.4533 236.44 94.28C236.6 94.1 236.68 93.82 236.68 93.44V89.6H234.32V88.52H238ZM241.977 95.62C241.523 95.62 241.13 95.54 240.797 95.38C240.463 95.2133 240.187 94.9767 239.967 94.67C239.753 94.3633 239.593 93.9867 239.487 93.54C239.387 93.0933 239.337 92.5833 239.337 92.01C239.337 91.4433 239.387 90.9367 239.487 90.49C239.593 90.0367 239.753 89.6567 239.967 89.35C240.187 89.0433 240.463 88.81 240.797 88.65C241.13 88.4833 241.523 88.4 241.977 88.4C242.883 88.4 243.55 88.7167 243.977 89.35C244.403 89.9833 244.617 90.87 244.617 92.01C244.617 93.15 244.403 94.0367 243.977 94.67C243.55 95.3033 242.883 95.62 241.977 95.62ZM241.977 94.55C242.21 94.55 242.407 94.5067 242.567 94.42C242.727 94.3267 242.853 94.1967 242.947 94.03C243.047 93.8633 243.117 93.66 243.157 93.42C243.203 93.1733 243.227 92.9 243.227 92.6V91.41C243.227 90.81 243.133 90.3367 242.947 89.99C242.767 89.6433 242.443 89.47 241.977 89.47C241.51 89.47 241.183 89.6433 240.997 89.99C240.817 90.3367 240.727 90.81 240.727 91.41V92.61C240.727 93.21 240.817 93.6833 240.997 94.03C241.183 94.3767 241.51 94.55 241.977 94.55ZM245.773 88.52H248.203C248.863 88.52 249.369 88.6867 249.723 89.02C250.083 89.3467 250.263 89.7933 250.263 90.36C250.263 90.76 250.163 91.08 249.963 91.32C249.769 91.56 249.493 91.7333 249.133 91.84V91.89C249.553 91.99 249.883 92.1733 250.123 92.44C250.369 92.7 250.493 93.07 250.493 93.55C250.493 93.8433 250.443 94.11 250.343 94.35C250.249 94.5833 250.113 94.7867 249.933 94.96C249.759 95.1333 249.546 95.2667 249.293 95.36C249.046 95.4533 248.766 95.5 248.453 95.5H245.773V88.52ZM248.053 94.55C248.419 94.55 248.693 94.4833 248.873 94.35C249.059 94.21 249.153 93.9733 249.153 93.64V93.31C249.153 92.9833 249.059 92.7533 248.873 92.62C248.693 92.48 248.419 92.41 248.053 92.41H247.053V94.55H248.053ZM247.883 91.5C248.236 91.5 248.496 91.4367 248.663 91.31C248.836 91.1833 248.923 90.9633 248.923 90.65V90.32C248.923 90.0067 248.836 89.7867 248.663 89.66C248.496 89.5333 248.236 89.47 247.883 89.47H247.053V91.5H247.883Z" fill="white"/>
<path d="M153.81 64L153.22 62.01H150.77L150.18 64H149.31L151.45 57.02H152.56L154.7 64H153.81ZM152.04 57.91H151.95L150.97 61.28H153.02L152.04 57.91ZM159.246 63.16H159.206C158.873 63.8 158.343 64.12 157.616 64.12C156.983 64.12 156.486 63.8833 156.126 63.41C155.773 62.9367 155.596 62.2733 155.596 61.42C155.596 60.5667 155.773 59.9033 156.126 59.43C156.486 58.9567 156.983 58.72 157.616 58.72C158.343 58.72 158.873 59.04 159.206 59.68H159.246V56.6H160.046V64H159.246V63.16ZM157.926 63.41C158.106 63.41 158.276 63.3867 158.436 63.34C158.596 63.2933 158.736 63.2267 158.856 63.14C158.976 63.0467 159.069 62.9367 159.136 62.81C159.209 62.6767 159.246 62.5233 159.246 62.35V60.49C159.246 60.3167 159.209 60.1667 159.136 60.04C159.069 59.9067 158.976 59.7967 158.856 59.71C158.736 59.6167 158.596 59.5467 158.436 59.5C158.276 59.4533 158.106 59.43 157.926 59.43C157.459 59.43 157.096 59.5733 156.836 59.86C156.583 60.14 156.456 60.5133 156.456 60.98V61.86C156.456 62.3267 156.583 62.7033 156.836 62.99C157.096 63.27 157.459 63.41 157.926 63.41ZM165.242 63.16H165.202C164.869 63.8 164.339 64.12 163.612 64.12C162.979 64.12 162.482 63.8833 162.122 63.41C161.769 62.9367 161.592 62.2733 161.592 61.42C161.592 60.5667 161.769 59.9033 162.122 59.43C162.482 58.9567 162.979 58.72 163.612 58.72C164.339 58.72 164.869 59.04 165.202 59.68H165.242V56.6H166.042V64H165.242V63.16ZM163.922 63.41C164.102 63.41 164.272 63.3867 164.432 63.34C164.592 63.2933 164.732 63.2267 164.852 63.14C164.972 63.0467 165.066 62.9367 165.132 62.81C165.206 62.6767 165.242 62.5233 165.242 62.35V60.49C165.242 60.3167 165.206 60.1667 165.132 60.04C165.066 59.9067 164.972 59.7967 164.852 59.71C164.732 59.6167 164.592 59.5467 164.432 59.5C164.272 59.4533 164.102 59.43 163.922 59.43C163.456 59.43 163.092 59.5733 162.832 59.86C162.579 60.14 162.452 60.5133 162.452 60.98V61.86C162.452 62.3267 162.579 62.7033 162.832 62.99C163.092 63.27 163.456 63.41 163.922 63.41ZM174.004 65.32H176.504V59.52H173.914V58.84H177.304V64.82C177.304 65.1667 177.211 65.45 177.024 65.67C176.844 65.89 176.558 66 176.164 66H174.004V65.32ZM176.904 57.7C176.671 57.7 176.508 57.6533 176.414 57.56C176.321 57.46 176.274 57.3367 176.274 57.19V57.03C176.274 56.8833 176.321 56.7633 176.414 56.67C176.508 56.57 176.671 56.52 176.904 56.52C177.138 56.52 177.301 56.57 177.394 56.67C177.488 56.7633 177.534 56.8833 177.534 57.03V57.19C177.534 57.3367 177.488 57.46 177.394 57.56C177.301 57.6533 177.138 57.7 176.904 57.7ZM181.98 64.12C181.62 64.12 181.294 64.0567 181 63.93C180.714 63.8033 180.467 63.6233 180.26 63.39C180.06 63.15 179.907 62.8667 179.8 62.54C179.694 62.2067 179.64 61.8333 179.64 61.42C179.64 61.0133 179.694 60.6433 179.8 60.31C179.907 59.9767 180.06 59.6933 180.26 59.46C180.467 59.22 180.714 59.0367 181 58.91C181.294 58.7833 181.62 58.72 181.98 58.72C182.34 58.72 182.664 58.7833 182.95 58.91C183.244 59.0367 183.49 59.22 183.69 59.46C183.897 59.6933 184.054 59.9767 184.16 60.31C184.267 60.6433 184.32 61.0133 184.32 61.42C184.32 61.8333 184.267 62.2067 184.16 62.54C184.054 62.8667 183.897 63.15 183.69 63.39C183.49 63.6233 183.244 63.8033 182.95 63.93C182.664 64.0567 182.34 64.12 181.98 64.12ZM181.98 63.43C182.427 63.43 182.787 63.2967 183.06 63.03C183.334 62.7633 183.47 62.35 183.47 61.79V61.05C183.47 60.49 183.334 60.0767 183.06 59.81C182.787 59.5433 182.427 59.41 181.98 59.41C181.534 59.41 181.174 59.5433 180.9 59.81C180.627 60.0767 180.49 60.49 180.49 61.05V61.79C180.49 62.35 180.627 62.7633 180.9 63.03C181.174 63.2967 181.534 63.43 181.98 63.43ZM185.927 56.6H186.727V59.68H186.767C187.1 59.04 187.63 58.72 188.357 58.72C188.99 58.72 189.483 58.9567 189.837 59.43C190.197 59.9033 190.377 60.5667 190.377 61.42C190.377 62.2733 190.197 62.9367 189.837 63.41C189.483 63.8833 188.99 64.12 188.357 64.12C187.63 64.12 187.1 63.8 186.767 63.16H186.727V64H185.927V56.6ZM188.047 63.41C188.513 63.41 188.873 63.27 189.127 62.99C189.387 62.7033 189.517 62.3267 189.517 61.86V60.98C189.517 60.5133 189.387 60.14 189.127 59.86C188.873 59.5733 188.513 59.43 188.047 59.43C187.867 59.43 187.697 59.4533 187.537 59.5C187.377 59.5467 187.237 59.6167 187.117 59.71C186.997 59.7967 186.9 59.9067 186.827 60.04C186.76 60.1667 186.727 60.3167 186.727 60.49V62.35C186.727 62.5233 186.76 62.6767 186.827 62.81C186.9 62.9367 186.997 63.0467 187.117 63.14C187.237 63.2267 187.377 63.2933 187.537 63.34C187.697 63.3867 187.867 63.41 188.047 63.41ZM200.219 64C199.825 64 199.535 63.89 199.349 63.67C199.169 63.45 199.079 63.1667 199.079 62.82V59.52H197.359V58.84H198.639C198.812 58.84 198.932 58.8067 198.999 58.74C199.072 58.6667 199.109 58.5433 199.109 58.37V57.02H199.879V58.84H202.229V59.52H199.879V63.32H202.229V64H200.219ZM206.285 57.7C206.052 57.7 205.888 57.6533 205.795 57.56C205.702 57.46 205.655 57.3367 205.655 57.19V57.03C205.655 56.8833 205.702 56.7633 205.795 56.67C205.888 56.57 206.052 56.52 206.285 56.52C206.518 56.52 206.682 56.57 206.775 56.67C206.868 56.7633 206.915 56.8833 206.915 57.03V57.19C206.915 57.3367 206.868 57.46 206.775 57.56C206.682 57.6533 206.518 57.7 206.285 57.7ZM204.025 63.32H205.885V59.52H204.025V58.84H206.685V63.32H208.425V64H204.025V63.32ZM212.211 64C211.818 64 211.528 63.89 211.341 63.67C211.161 63.45 211.071 63.1667 211.071 62.82V59.52H209.351V58.84H210.631C210.804 58.84 210.924 58.8067 210.991 58.74C211.064 58.6667 211.101 58.5433 211.101 58.37V57.02H211.871V58.84H214.221V59.52H211.871V63.32H214.221V64H212.211ZM218.207 64C217.814 64 217.524 63.89 217.337 63.67C217.157 63.45 217.067 63.1667 217.067 62.82V59.52H215.347V58.84H216.627C216.8 58.84 216.92 58.8067 216.987 58.74C217.06 58.6667 217.097 58.5433 217.097 58.37V57.02H217.867V58.84H220.217V59.52H217.867V63.32H220.217V64H218.207ZM221.753 63.32H223.553V57.28H221.753V56.6H224.353V63.32H226.153V64H221.753V63.32ZM230.039 64.12C229.666 64.12 229.329 64.0567 229.029 63.93C228.736 63.8033 228.483 63.6233 228.269 63.39C228.063 63.15 227.903 62.8667 227.789 62.54C227.676 62.2067 227.619 61.8367 227.619 61.43C227.619 61.0167 227.676 60.6433 227.789 60.31C227.909 59.9767 228.073 59.6933 228.279 59.46C228.486 59.22 228.733 59.0367 229.019 58.91C229.313 58.7833 229.636 58.72 229.989 58.72C230.336 58.72 230.649 58.7833 230.929 58.91C231.216 59.0367 231.459 59.2133 231.659 59.44C231.859 59.66 232.013 59.9233 232.119 60.23C232.226 60.5367 232.279 60.8733 232.279 61.24V61.62H228.459V61.86C228.459 62.0867 228.496 62.2967 228.569 62.49C228.643 62.6833 228.746 62.85 228.879 62.99C229.019 63.13 229.186 63.24 229.379 63.32C229.579 63.3933 229.799 63.43 230.039 63.43C230.386 63.43 230.686 63.35 230.939 63.19C231.193 63.03 231.386 62.81 231.519 62.53L232.109 62.93C231.956 63.2767 231.699 63.5633 231.339 63.79C230.986 64.01 230.553 64.12 230.039 64.12ZM229.989 59.38C229.769 59.38 229.566 59.42 229.379 59.5C229.193 59.58 229.029 59.69 228.889 59.83C228.756 59.97 228.649 60.1367 228.569 60.33C228.496 60.5167 228.459 60.7233 228.459 60.95V61.02H231.419V60.91C231.419 60.6833 231.383 60.4767 231.309 60.29C231.243 60.1033 231.146 59.9433 231.019 59.81C230.899 59.67 230.749 59.5633 230.569 59.49C230.396 59.4167 230.203 59.38 229.989 59.38ZM235.515 62.64H236.805L235.655 65.41H234.985L235.515 62.64ZM149.77 73.32H151.28V69.52H149.77V68.84H152.08V70.14H152.13C152.237 69.7333 152.437 69.4167 152.73 69.19C153.03 68.9567 153.41 68.84 153.87 68.84H154.59V69.64H153.62C153.16 69.64 152.787 69.7733 152.5 70.04C152.22 70.3067 152.08 70.6567 152.08 71.09V73.32H154.08V74H149.77V73.32ZM157.996 74.12C157.636 74.12 157.309 74.0567 157.016 73.93C156.729 73.8033 156.483 73.6233 156.276 73.39C156.076 73.15 155.923 72.8667 155.816 72.54C155.709 72.2067 155.656 71.8333 155.656 71.42C155.656 71.0133 155.709 70.6433 155.816 70.31C155.923 69.9767 156.076 69.6933 156.276 69.46C156.483 69.22 156.729 69.0367 157.016 68.91C157.309 68.7833 157.636 68.72 157.996 68.72C158.356 68.72 158.679 68.7833 158.966 68.91C159.259 69.0367 159.506 69.22 159.706 69.46C159.913 69.6933 160.069 69.9767 160.176 70.31C160.283 70.6433 160.336 71.0133 160.336 71.42C160.336 71.8333 160.283 72.2067 160.176 72.54C160.069 72.8667 159.913 73.15 159.706 73.39C159.506 73.6233 159.259 73.8033 158.966 73.93C158.679 74.0567 158.356 74.12 157.996 74.12ZM157.996 73.43C158.443 73.43 158.803 73.2967 159.076 73.03C159.349 72.7633 159.486 72.35 159.486 71.79V71.05C159.486 70.49 159.349 70.0767 159.076 69.81C158.803 69.5433 158.443 69.41 157.996 69.41C157.549 69.41 157.189 69.5433 156.916 69.81C156.643 70.0767 156.506 70.49 156.506 71.05V71.79C156.506 72.35 156.643 72.7633 156.916 73.03C157.189 73.2967 157.549 73.43 157.996 73.43ZM161.792 73.32H163.592V67.28H161.792V66.6H164.392V73.32H166.192V74H161.792V73.32ZM170.078 74.12C169.705 74.12 169.368 74.0567 169.068 73.93C168.775 73.8033 168.522 73.6233 168.308 73.39C168.102 73.15 167.942 72.8667 167.828 72.54C167.715 72.2067 167.658 71.8367 167.658 71.43C167.658 71.0167 167.715 70.6433 167.828 70.31C167.948 69.9767 168.112 69.6933 168.318 69.46C168.525 69.22 168.772 69.0367 169.058 68.91C169.352 68.7833 169.675 68.72 170.028 68.72C170.375 68.72 170.688 68.7833 170.968 68.91C171.255 69.0367 171.498 69.2133 171.698 69.44C171.898 69.66 172.052 69.9233 172.158 70.23C172.265 70.5367 172.318 70.8733 172.318 71.24V71.62H168.498V71.86C168.498 72.0867 168.535 72.2967 168.608 72.49C168.682 72.6833 168.785 72.85 168.918 72.99C169.058 73.13 169.225 73.24 169.418 73.32C169.618 73.3933 169.838 73.43 170.078 73.43C170.425 73.43 170.725 73.35 170.978 73.19C171.232 73.03 171.425 72.81 171.558 72.53L172.148 72.93C171.995 73.2767 171.738 73.5633 171.378 73.79C171.025 74.01 170.592 74.12 170.078 74.12ZM170.028 69.38C169.808 69.38 169.605 69.42 169.418 69.5C169.232 69.58 169.068 69.69 168.928 69.83C168.795 69.97 168.688 70.1367 168.608 70.33C168.535 70.5167 168.498 70.7233 168.498 70.95V71.02H171.458V70.91C171.458 70.6833 171.422 70.4767 171.348 70.29C171.282 70.1033 171.185 69.9433 171.058 69.81C170.938 69.67 170.788 69.5633 170.608 69.49C170.435 69.4167 170.242 69.38 170.028 69.38ZM179.96 74V68.84H180.76V69.68H180.8C180.854 69.5533 180.92 69.4333 181 69.32C181.08 69.2 181.177 69.0967 181.29 69.01C181.41 68.9233 181.55 68.8533 181.71 68.8C181.87 68.7467 182.057 68.72 182.27 68.72C182.81 68.72 183.244 68.8933 183.57 69.24C183.897 69.58 184.06 70.0633 184.06 70.69V74H183.26V70.83C183.26 70.3567 183.157 70.0067 182.95 69.78C182.744 69.5467 182.44 69.43 182.04 69.43C181.88 69.43 181.724 69.45 181.57 69.49C181.417 69.53 181.28 69.59 181.16 69.67C181.04 69.75 180.944 69.8533 180.87 69.98C180.797 70.1067 180.76 70.2533 180.76 70.42V74H179.96ZM189.927 74C189.613 74 189.39 73.92 189.257 73.76C189.123 73.6 189.04 73.4 189.007 73.16H188.957C188.843 73.46 188.66 73.6967 188.407 73.87C188.16 74.0367 187.827 74.12 187.407 74.12C186.867 74.12 186.437 73.98 186.117 73.7C185.797 73.42 185.637 73.0367 185.637 72.55C185.637 72.07 185.81 71.7 186.157 71.44C186.51 71.18 187.077 71.05 187.857 71.05H188.957V70.54C188.957 70.16 188.85 69.8767 188.637 69.69C188.423 69.4967 188.12 69.4 187.727 69.4C187.38 69.4 187.097 69.47 186.877 69.61C186.657 69.7433 186.48 69.9267 186.347 70.16L185.807 69.76C185.873 69.6267 185.963 69.4967 186.077 69.37C186.19 69.2433 186.33 69.1333 186.497 69.04C186.663 68.94 186.853 68.8633 187.067 68.81C187.28 68.75 187.517 68.72 187.777 68.72C188.383 68.72 188.863 68.8733 189.217 69.18C189.577 69.4867 189.757 69.9133 189.757 70.46V73.3H190.477V74H189.927ZM187.547 73.45C187.753 73.45 187.94 73.4267 188.107 73.38C188.28 73.3267 188.43 73.26 188.557 73.18C188.683 73.0933 188.78 72.9933 188.847 72.88C188.92 72.76 188.957 72.6333 188.957 72.5V71.65H187.857C187.377 71.65 187.027 71.7167 186.807 71.85C186.587 71.9833 186.477 72.1767 186.477 72.43V72.64C186.477 72.9067 186.57 73.11 186.757 73.25C186.95 73.3833 187.213 73.45 187.547 73.45ZM191.513 74V68.84H192.253V69.44H192.293C192.373 69.24 192.486 69.07 192.633 68.93C192.779 68.79 192.996 68.72 193.283 68.72C193.583 68.72 193.806 68.7967 193.953 68.95C194.099 69.0967 194.189 69.29 194.223 69.53H194.253C194.346 69.2967 194.479 69.1033 194.653 68.95C194.826 68.7967 195.066 68.72 195.373 68.72C195.793 68.72 196.073 68.8667 196.213 69.16C196.359 69.4533 196.433 69.8733 196.433 70.42V74H195.693V70.55C195.693 70.11 195.646 69.8067 195.553 69.64C195.466 69.4667 195.303 69.38 195.063 69.38C194.849 69.38 194.676 69.45 194.543 69.59C194.409 69.7233 194.343 69.93 194.343 70.21V74H193.603V70.55C193.603 70.11 193.556 69.8067 193.463 69.64C193.376 69.4667 193.216 69.38 192.983 69.38C192.769 69.38 192.593 69.45 192.453 69.59C192.319 69.7233 192.253 69.93 192.253 70.21V74H191.513ZM200.059 74.12C199.685 74.12 199.349 74.0567 199.049 73.93C198.755 73.8033 198.502 73.6233 198.289 73.39C198.082 73.15 197.922 72.8667 197.809 72.54C197.695 72.2067 197.639 71.8367 197.639 71.43C197.639 71.0167 197.695 70.6433 197.809 70.31C197.929 69.9767 198.092 69.6933 198.299 69.46C198.505 69.22 198.752 69.0367 199.039 68.91C199.332 68.7833 199.655 68.72 200.009 68.72C200.355 68.72 200.669 68.7833 200.949 68.91C201.235 69.0367 201.479 69.2133 201.679 69.44C201.879 69.66 202.032 69.9233 202.139 70.23C202.245 70.5367 202.299 70.8733 202.299 71.24V71.62H198.479V71.86C198.479 72.0867 198.515 72.2967 198.589 72.49C198.662 72.6833 198.765 72.85 198.899 72.99C199.039 73.13 199.205 73.24 199.399 73.32C199.599 73.3933 199.819 73.43 200.059 73.43C200.405 73.43 200.705 73.35 200.959 73.19C201.212 73.03 201.405 72.81 201.539 72.53L202.129 72.93C201.975 73.2767 201.719 73.5633 201.359 73.79C201.005 74.01 200.572 74.12 200.059 74.12ZM200.009 69.38C199.789 69.38 199.585 69.42 199.399 69.5C199.212 69.58 199.049 69.69 198.909 69.83C198.775 69.97 198.669 70.1367 198.589 70.33C198.515 70.5167 198.479 70.7233 198.479 70.95V71.02H201.439V70.91C201.439 70.6833 201.402 70.4767 201.329 70.29C201.262 70.1033 201.165 69.9433 201.039 69.81C200.919 69.67 200.769 69.5633 200.589 69.49C200.415 69.4167 200.222 69.38 200.009 69.38Z" fill="#9199A3"/>
<path d="M286.221 38.3477C290.209 21.8252 280.048 5.19818 263.526 1.21013C247.003 -2.77792 230.376 7.38324 226.388 23.9057C222.4 40.4282 232.561 57.0552 249.084 61.0433C265.606 65.0313 282.233 54.8702 286.221 38.3477Z" fill="#760A5B"/>
<path d="M288.049 35.0553C290.707 18.9239 279.786 3.69134 263.655 1.03238C247.523 -1.62658 232.291 9.29497 229.632 25.4263C226.973 41.5577 237.894 56.7903 254.026 59.4492C270.157 62.1082 285.39 51.1867 288.049 35.0553Z" fill="white" stroke="#760A5B" stroke-miterlimit="10"/>
<path d="M281.236 49.5672C278.486 52.7638 275.083 55.3351 271.257 57.1084C267.431 58.8817 263.27 59.8159 259.053 59.8484C254.836 59.8809 250.661 59.0109 246.808 57.2968C242.955 55.5828 239.513 53.0643 236.714 49.9104C237.906 47.9635 239.771 46.2225 241.887 45.8668C242.739 45.7215 243.583 45.5298 244.414 45.2928C244.614 45.2428 244.807 45.1867 245.001 45.1243C245.55 44.9558 246.093 44.7686 246.623 44.5627C246.891 44.4566 247.153 44.3505 247.415 44.2319C247.678 44.1134 248.002 43.9761 248.295 43.8388C248.589 43.7015 248.869 43.5518 249.15 43.402C249.431 43.2523 249.712 43.0963 249.986 42.934C250.261 42.7718 250.535 42.6033 250.804 42.4286C251.072 42.2539 251.247 42.1353 251.465 41.9793C251.543 41.9315 251.618 41.8795 251.69 41.8233C251.915 41.6611 252.133 41.4926 252.351 41.3241C252.607 41.1244 252.851 40.9247 253.094 40.7001C253.337 40.4754 253.568 40.2758 253.805 40.0761C254.261 39.6393 254.704 39.1775 255.122 38.6908L256.769 38.41L257.019 38.3663L263.321 37.2868L265.374 36.9311L265.905 36.8438C266.597 38.385 268.057 39.3834 269.649 40.0386L269.855 40.126C270.241 40.282 270.635 40.413 271.028 40.5316C273.112 41.1556 275.327 41.5238 277.137 42.7281C279.433 44.2382 280.65 46.8216 281.236 49.5672Z" fill="#eb9dd9"/>
<path d="M255.253 38.1723C254.197 39.3894 252.785 40.2428 251.217 40.6114C249.649 40.9799 248.004 40.8448 246.517 40.2252C246.388 40.6603 246.351 41.1172 246.408 41.5672C246.465 42.0172 246.615 42.4505 246.848 42.8398C246.352 42.576 245.936 42.186 245.64 41.7093C245.344 41.2327 245.179 40.6862 245.163 40.1254C244.77 40.983 244.526 41.9007 244.439 42.8398C241.487 43.4076 238.355 41.6854 236.888 39.0584C236.198 37.7104 235.825 36.2225 235.798 34.7084C235.771 33.1943 236.091 31.6941 236.732 30.3224L235.073 32.5001C234.536 31.1835 234.979 29.6672 235.697 28.4504C236.414 27.2336 237.425 26.1977 238.155 24.9809C240.09 21.7236 239.834 17.6801 240.445 13.9486C240.589 12.5414 241.109 11.1988 241.949 10.0611C242.854 8.98781 244.408 8.34509 245.693 8.86301C245.924 7.10957 248.133 6.29213 249.774 5.62445C252.489 4.53245 255.39 3.45917 258.273 3.96461C262.897 4.77581 265.979 9.32477 270.404 10.8785C272.694 11.6835 275.196 11.6336 277.536 12.2763C279.876 12.919 282.247 14.6288 282.397 17.0499L279.901 15.7457C281.712 18.0828 282.77 20.9155 282.934 23.8678C283.098 26.82 282.36 29.7524 280.818 32.2755L280.35 29.9729C280.612 31.0899 279.689 32.1132 278.79 32.8308C276.325 34.7964 273.23 36.2504 270.098 35.8885C269.174 35.7824 268.27 35.5203 267.346 35.3705C264.659 34.9667 261.915 35.5093 259.583 36.9056C258.29 37.732 256.788 38.1715 255.253 38.1723Z" fill="#760A5B"/>
<path d="M256.352 32.9117C255.459 34.1597 254.018 37.9037 253.681 41.0237C253.344 44.1437 253.681 49.2605 254.461 49.2605C255.241 49.2605 256.576 42.5837 256.576 42.5837C256.576 42.5837 257.132 45.1421 258.448 45.9221C259.765 46.7021 262.118 51.925 262.118 51.925C262.118 51.925 265.238 46.2528 265.674 44.3621C266.111 42.4714 266.236 41.5853 266.791 42.2468C267.781 43.8046 268.636 45.4432 269.35 47.1452C269.905 48.4805 270.348 42.7772 269.568 39.6572C268.788 36.5372 267.01 34.4343 266.791 33.6543C266.573 32.8743 265.344 32.0943 265.344 32.0943C261.026 27.5703 257.244 31.6887 256.352 32.9117Z" fill="white" stroke="#760A5B" stroke-linecap="round" stroke-linejoin="round"/>
<path d="M255.459 34.8025C256.337 36.809 257.008 38.8998 257.462 41.0425C258.017 44.0502 261.581 50.6147 262.136 51.9438C262.691 53.2729 264.364 47.7193 265.025 43.9379C265.687 40.1564 264.875 30.9961 264.875 30.9961C261.762 35.102 255.459 34.8025 255.459 34.8025Z" fill="white" stroke="#760A5B" stroke-linecap="round" stroke-linejoin="round"/>
<path d="M248.938 14.1413C248.384 15.4797 247.759 16.7877 247.066 18.06C246.486 19.1894 245.687 20.375 245.818 21.6979C245.949 23.0208 249.624 30.4339 251.184 32.1249C252.744 33.816 258.117 38.0342 260.438 36.4555C265.574 32.9611 265.112 22.6089 264.563 20.9179C264.014 19.2269 263.315 19.6699 263.315 19.6699C263.028 19.8509 262.285 19.2518 262.011 19.1395C260.426 18.4718 258.691 18.4281 257.087 17.7729C255.37 17.0995 253.826 16.0481 252.57 14.6966C251.571 13.5734 250.698 12.2817 249.156 11.8574C249.631 11.9885 249.344 13.0805 248.938 14.1413Z" fill="white" stroke="#760A5B" stroke-linecap="round" stroke-linejoin="round"/>
<path d="M249.974 22.7662C250.139 22.4881 250.36 22.2472 250.623 22.0586C250.886 21.8701 251.185 21.738 251.502 21.6706C251.818 21.6032 252.145 21.602 252.462 21.667C252.779 21.7321 253.079 21.862 253.343 22.0486" stroke="#760A5B" stroke-linecap="round" stroke-linejoin="round"/>
<path d="M259.584 19.3652C256.645 18.448 256.195 20.738 256.195 20.738" stroke="#760A5B" stroke-linecap="round" stroke-linejoin="round"/>
<path d="M253.462 24.8001C253.58 25.3055 253.493 25.761 253.262 25.8172C253.031 25.8733 252.744 25.5052 252.638 24.9935C252.532 24.4818 252.607 24.0325 252.838 23.9764C253.069 23.9202 253.343 24.2884 253.462 24.8001Z" fill="#760A5B"/>
<path d="M259.478 23.2965C259.596 23.8082 259.509 24.2638 259.278 24.3199C259.047 24.3761 258.76 24.0017 258.654 23.4962C258.548 22.9908 258.623 22.529 258.853 22.4791C259.084 22.4292 259.353 22.8036 259.478 23.2965Z" fill="#760A5B"/>
<path d="M256.221 22.1719C256.221 25.192 258.224 27.1202 258.093 28.1873C258.09 28.2116 258.082 28.2349 258.068 28.2554C258.055 28.2758 258.037 28.2928 258.015 28.305C257.994 28.3171 257.97 28.3241 257.946 28.3253C257.921 28.3266 257.897 28.322 257.874 28.3121C257.413 28.0687 256.863 27.6881 256.408 27.4509" stroke="#760A5B" stroke-linecap="round" stroke-linejoin="round"/>
<path d="M254.248 30.0352C254.687 30.5862 255.267 31.0093 255.925 31.2606C256.583 31.5119 257.297 31.5822 257.992 31.4641" stroke="#760A5B" stroke-linecap="round" stroke-linejoin="round"/>
<path d="M256.046 36.2256C256.046 36.2256 258.698 42.3345 260.894 41.8041C263.091 41.2737 264.383 31.2461 264.383 31.2461C264.383 31.2461 261.774 36.1445 259.596 36.9058C257.787 37.5422 256.046 36.2256 256.046 36.2256Z" fill="#760A5B"/>
<path d="M253.812 40.0625C253.581 40.2809 253.344 40.4993 253.101 40.6865C252.857 40.8737 252.614 41.1046 252.358 41.3105C252.146 41.4852 251.921 41.6475 251.697 41.8097C251.625 41.8659 251.55 41.918 251.472 41.9657C251.254 42.128 251.035 42.2715 250.811 42.415C250.586 42.5585 250.274 42.7644 249.993 42.9204C249.712 43.0764 249.438 43.2449 249.157 43.3884C248.876 43.532 248.589 43.688 248.302 43.8252C248.015 43.9625 247.722 44.0998 247.422 44.2184C247.123 44.3369 246.898 44.4492 246.63 44.5491C246.099 44.755 245.557 44.9422 245.007 45.1107C244.814 45.1731 244.614 45.2293 244.421 45.2792C243.59 45.5162 242.746 45.7079 241.894 45.8533C239.778 46.2089 237.913 47.9499 236.721 49.8968" stroke="#760A5B" stroke-linecap="round" stroke-linejoin="round"/>
<path d="M281.236 49.5668C280.65 46.8212 279.433 44.2378 277.149 42.7027C275.34 41.4984 273.124 41.1365 271.04 40.5063C270.647 40.3877 270.254 40.2567 269.867 40.1007L269.661 40.0195" stroke="#760A5B" stroke-linecap="round" stroke-linejoin="round"/>
<path d="M263.503 55.4942C263.503 56.1868 263.116 56.7422 262.641 56.7422C262.167 56.7422 261.78 56.1868 261.78 55.4942C261.78 54.8015 262.167 54.2461 262.641 54.2461C263.116 54.2461 263.503 54.8015 263.503 55.4942Z" fill="#760A5B"/>
<path d="M245.014 49.666C246.468 52.2359 247.546 55.0014 248.215 57.8777" stroke="#760A5B" stroke-linecap="round" stroke-linejoin="round"/>
<path d="M247.952 49.959L248.776 54.4893" stroke="#760A5B" stroke-linecap="round" stroke-linejoin="round"/>
<path d="M288.049 35.0553C290.707 18.9239 279.786 3.69134 263.655 1.03238C247.523 -1.62658 232.291 9.29497 229.632 25.4263C226.973 41.5577 237.894 56.7903 254.026 59.4492C270.157 62.1082 285.39 51.1867 288.049 35.0553Z" stroke="#760A5B" stroke-miterlimit="10"/>
<path d="M201.047 221.266V243.212C201.047 244.784 214.644 248.478 231.935 248.478C249.226 248.478 263.659 244.784 263.659 243.212V221.266H201.047Z" fill="white" stroke="#760A5B" stroke-miterlimit="10"/>
<path d="M201.047 234.875C201.047 236.447 214.644 240.148 231.935 240.148C249.226 240.148 263.659 236.447 263.659 234.875" fill="white"/>
<path d="M201.047 234.875C201.047 236.447 214.644 240.148 231.935 240.148C249.226 240.148 263.659 236.447 263.659 234.875" stroke="#760A5B" stroke-width="2" stroke-miterlimit="10"/>
<path d="M263.659 221.265C263.659 221.952 261.007 222.825 256.583 223.587C240.518 225.999 224.182 225.999 208.117 223.587C203.699 222.825 201.047 221.952 201.047 221.265C201.047 219.687 215.062 218.42 232.347 218.42C249.632 218.42 263.659 219.687 263.659 221.265Z" fill="#eb9dd9" stroke="#760A5B" stroke-miterlimit="10"/>
<path d="M256.583 223.599C240.518 226.012 224.182 226.012 208.117 223.599C212.679 222.801 221.845 222.258 232.347 222.258C242.849 222.258 252.022 222.788 256.583 223.599Z" fill="#760A5B"/>
<path d="M243.548 124.346C243.548 124.346 243.548 121.114 239.024 116.596C234.5 112.078 231.598 109.482 231.598 109.482C231.598 109.482 229.333 116.914 233.533 121.444C236.621 124.632 239.971 127.554 243.548 130.18V124.346Z" fill="#eb9dd9"/>
<path d="M236.983 144.526C236.983 144.526 236.983 141.293 232.459 136.776C227.935 132.258 225.028 129.662 225.028 129.662C225.028 129.662 222.769 137.094 226.968 141.618C230.045 144.805 233.385 147.728 236.952 150.354L236.983 144.526Z" fill="#eb9dd9"/>
<path d="M243.26 129.856C243.26 129.856 243.609 126.636 248.583 122.618C253.556 118.599 256.695 116.334 256.695 116.334C256.695 116.334 258.161 123.966 253.506 128.015C250.106 130.848 246.474 133.39 242.648 135.616L243.26 129.856Z" fill="#eb9dd9"/>
<path d="M235.336 153.712C235.336 153.712 236.01 150.555 241.383 147.079C246.755 143.604 250.119 141.682 250.119 141.682C250.119 141.682 250.774 149.425 245.72 152.97C242.033 155.436 238.146 157.59 234.101 159.41L235.336 153.712Z" fill="#eb9dd9"/>
<path d="M236.827 179.664C236.827 179.664 236.827 176.432 241.345 171.908C245.863 167.384 248.777 164.801 248.777 164.801C248.777 164.801 251.042 172.233 246.842 176.75C243.756 179.939 240.406 182.862 236.827 185.486V179.664Z" fill="#eb9dd9"/>
<path d="M236.752 186.004C236.752 186.004 237.208 182.803 233.376 177.686C229.545 172.569 227.049 169.574 227.049 169.574C227.049 169.574 223.748 176.6 227.267 181.655C229.872 185.245 232.773 188.61 235.941 191.714L236.752 186.004Z" fill="#eb9dd9"/>
<path d="M232.284 204.823C232.284 204.823 232.284 201.59 236.814 197.073C241.345 192.555 244.24 189.959 244.24 189.959C244.24 189.959 246.48 197.391 242.299 201.915C239.21 205.1 235.86 208.022 232.284 210.651V204.823Z" fill="#eb9dd9"/>
<path d="M244.259 216.53C242.538 219.564 240.621 222.483 238.518 225.266C237.931 225.266 237.332 225.31 236.733 225.322H236.222L235.354 222.002L235.305 221.815C235.141 220.829 235.184 219.82 235.429 218.851C235.702 217.525 236.144 216.239 236.746 215.026C237.02 214.446 237.37 213.828 237.719 213.185C240.952 207.688 243.104 204.449 243.104 204.449C243.104 204.449 247.179 211.064 244.259 216.53Z" fill="#eb9dd9"/>
<path d="M236.072 225.354C235.76 224.311 235.448 223.244 235.142 222.177C234.905 221.347 234.674 220.518 234.443 219.681C234.212 218.845 234.006 218.09 233.819 217.316C233.126 214.714 232.571 212.381 232.29 210.714C232.006 208.931 232.006 207.113 232.29 205.329C232.415 204.481 232.59 203.626 232.802 202.758C233.594 199.464 234.867 195.938 235.816 191.589C236.022 190.665 236.209 189.717 236.371 188.718V188.6C236.458 188.045 236.546 187.47 236.621 186.884C236.621 186.734 236.658 186.591 236.671 186.441C236.702 186.173 236.733 185.904 236.752 185.63V185.598C236.783 185.299 236.802 184.974 236.814 184.7C236.873 183.532 236.873 182.361 236.814 181.193C236.44 173.331 233.806 165.693 234.318 159.247C234.374 158.515 234.478 157.787 234.63 157.069C235.015 155.32 235.515 153.598 236.128 151.915C236.327 151.335 236.546 150.761 236.752 150.186C236.752 150.149 236.752 150.112 236.795 150.068C236.839 150.024 236.883 149.85 236.92 149.743C238.948 144.664 241.438 139.866 242.661 133.519C242.811 132.696 242.948 131.878 243.073 131.055V131.023C243.123 130.662 243.179 130.3 243.229 129.938C243.229 129.738 243.285 129.532 243.31 129.314C243.379 128.839 243.435 128.353 243.485 127.878C243.66 126.412 243.791 124.939 243.897 123.467" stroke="#760A5B" stroke-linecap="round" stroke-linejoin="round"/>
<path d="M243.217 131.996L248.096 128.258" stroke="#760A5B" stroke-linecap="round" stroke-linejoin="round"/>
<path d="M243.448 127.69L241.407 124.059" stroke="#760A5B" stroke-linecap="round" stroke-linejoin="round"/>
<path d="M234.942 156.713C234.942 156.713 239.023 153.649 243.217 150.592" stroke="#760A5B" stroke-linecap="round" stroke-linejoin="round"/>
<path d="M236.983 150.343C236.983 150.343 233.582 143.678 229.726 139.248" stroke="#760A5B" stroke-linecap="round" stroke-linejoin="round"/>
<path d="M236.989 184.287C239.32 180 242.263 176.075 245.725 172.637" stroke="#760A5B" stroke-linecap="round" stroke-linejoin="round"/>
<path d="M236.191 188.793C234.954 185.878 233.474 183.072 231.767 180.406C229.389 176.893 229.046 176.438 229.046 176.438" stroke="#760A5B" stroke-linecap="round" stroke-linejoin="round"/>
<path d="M232.284 210.738C233.32 208.172 234.549 205.687 235.96 203.306C237.373 201.098 238.967 199.01 240.727 197.066" stroke="#760A5B" stroke-linecap="round" stroke-linejoin="round"/>
<path d="M236.733 225.341C236.792 223.595 237.217 221.882 237.981 220.311C239.71 217.023 241.613 212.711 242.406 211.014" stroke="#760A5B" stroke-linecap="round" stroke-linejoin="round"/>
<path d="M213.932 167.515C213.932 167.515 213.577 165.487 215.923 162.161C218.269 158.835 219.81 156.895 219.81 156.895C219.81 156.895 222.038 161.306 219.891 164.607C218.3 166.937 216.516 169.129 214.556 171.159L213.932 167.515Z" fill="#eb9dd9"/>
<path d="M220.235 179.452C220.235 179.452 219.886 177.424 222.232 174.105C224.578 170.785 226.12 168.832 226.12 168.832C226.12 168.832 228.341 173.25 226.201 176.538C224.62 178.869 222.845 181.063 220.897 183.097L220.235 179.452Z" fill="#eb9dd9"/>
<path d="M214.7 170.934C214.7 170.934 214.126 168.949 210.582 166.971C207.037 164.993 204.797 163.92 204.797 163.92C204.797 163.92 204.71 168.862 208.098 170.884C210.54 172.296 213.097 173.498 215.742 174.478L214.7 170.934Z" fill="#eb9dd9"/>
<path d="M222.263 185.012C222.263 185.012 221.496 183.109 217.752 181.512C214.008 179.914 211.674 179.078 211.674 179.078C211.674 179.078 212.104 184.001 215.655 185.674C218.231 186.82 220.899 187.748 223.63 188.451L222.263 185.012Z" fill="#eb9dd9"/>
<path d="M224.147 201.472C224.147 201.472 223.798 199.437 220.472 197.104C217.146 194.77 215.043 193.453 215.043 193.453C215.043 193.453 214.419 198.358 217.539 200.741C219.825 202.391 222.242 203.852 224.765 205.109L224.147 201.472Z" fill="#eb9dd9"/>
<path d="M224.884 205.435C224.884 205.435 224.26 203.476 226.094 199.857C227.929 196.238 229.214 194.104 229.214 194.104C229.214 194.104 232.047 198.16 230.369 201.716C229.116 204.25 227.655 206.675 226.001 208.967L224.884 205.435Z" fill="#eb9dd9"/>
<path d="M230.562 221.778C230.562 221.778 230.799 219.737 234.013 217.173C237.226 214.608 239.23 213.223 239.23 213.223C239.23 213.223 240.122 218.084 237.139 220.636C234.954 222.425 232.622 224.028 230.169 225.428L230.562 221.778Z" fill="#eb9dd9"/>
<path d="M229.72 216.735C229.72 216.735 229.37 214.713 226.044 212.367C222.718 210.021 220.615 208.717 220.615 208.717C220.615 208.717 219.991 213.621 223.111 215.999C225.397 217.653 227.816 219.115 230.344 220.367L229.72 216.735Z" fill="#eb9dd9"/>
<path d="M229.052 225.365C228.204 225.365 227.355 225.328 226.525 225.297C225.439 225.266 224.378 225.216 223.336 225.166C221.14 222.089 222.9 217.678 222.9 217.678C222.9 217.678 224.597 219.462 227.224 222.589C227.952 223.43 228.567 224.364 229.052 225.365Z" fill="#eb9dd9"/>
<path opacity="0.2" d="M243.548 124.346C243.548 124.346 243.548 121.114 239.024 116.596C234.5 112.078 231.598 109.482 231.598 109.482C231.598 109.482 229.333 116.914 233.533 121.444C236.621 124.632 239.971 127.554 243.548 130.18V124.346Z" fill="#021429"/>
<path opacity="0.2" d="M236.983 144.526C236.983 144.526 236.983 141.293 232.459 136.776C227.935 132.258 225.028 129.662 225.028 129.662C225.028 129.662 222.769 137.094 226.968 141.618C230.045 144.805 233.385 147.728 236.952 150.354L236.983 144.526Z" fill="#021429"/>
<path opacity="0.2" d="M243.26 129.856C243.26 129.856 243.609 126.636 248.583 122.618C253.556 118.599 256.695 116.334 256.695 116.334C256.695 116.334 258.161 123.966 253.506 128.015C250.106 130.848 246.474 133.39 242.648 135.616L243.26 129.856Z" fill="#021429"/>
<path opacity="0.2" d="M235.336 153.712C235.336 153.712 236.01 150.555 241.383 147.079C246.755 143.604 250.119 141.682 250.119 141.682C250.119 141.682 250.774 149.425 245.72 152.97C242.033 155.436 238.146 157.59 234.101 159.41L235.336 153.712Z" fill="#021429"/>
<path opacity="0.2" d="M236.827 179.664C236.827 179.664 236.827 176.432 241.345 171.908C245.863 167.384 248.777 164.801 248.777 164.801C248.777 164.801 251.042 172.233 246.842 176.75C243.756 179.939 240.406 182.862 236.827 185.486V179.664Z" fill="#021429"/>
<path opacity="0.2" d="M232.284 204.823C232.284 204.823 232.284 201.59 236.814 197.073C241.345 192.555 244.24 189.959 244.24 189.959C244.24 189.959 246.48 197.391 242.299 201.915C239.21 205.1 235.86 208.022 232.284 210.651V204.823Z" fill="#021429"/>
<path opacity="0.2" d="M213.932 167.515C213.932 167.515 213.577 165.487 215.923 162.161C218.269 158.835 219.81 156.895 219.81 156.895C219.81 156.895 222.038 161.306 219.891 164.607C218.3 166.937 216.516 169.129 214.556 171.159L213.932 167.515Z" fill="#021429"/>
<path opacity="0.2" d="M233.377 177.686C229.539 172.563 227.049 169.574 227.049 169.574C227.049 169.574 226.906 169.874 226.712 170.392C226.56 169.847 226.362 169.317 226.12 168.807C226.12 168.807 224.578 170.754 222.232 174.079C219.886 177.405 220.235 179.427 220.235 179.427L220.859 183.071C222.616 181.244 224.232 179.288 225.695 177.218C225.822 178.808 226.362 180.337 227.261 181.655C229.866 185.245 232.767 188.609 235.935 191.714L236.746 185.979C236.746 185.979 237.208 182.803 233.377 177.686Z" fill="#021429"/>
<path opacity="0.2" d="M214.7 170.934C214.7 170.934 214.126 168.949 210.582 166.971C207.037 164.993 204.797 163.92 204.797 163.92C204.797 163.92 204.71 168.862 208.098 170.884C210.54 172.296 213.097 173.498 215.742 174.478L214.7 170.934Z" fill="#021429"/>
<path opacity="0.2" d="M222.263 185.012C222.263 185.012 221.496 183.109 217.752 181.512C214.008 179.914 211.674 179.078 211.674 179.078C211.674 179.078 212.104 184.001 215.655 185.674C218.231 186.82 220.899 187.748 223.63 188.451L222.263 185.012Z" fill="#021429"/>
<path opacity="0.2" d="M224.147 201.472C224.147 201.472 223.798 199.437 220.472 197.104C217.146 194.77 215.043 193.453 215.043 193.453C215.043 193.453 214.419 198.358 217.539 200.741C219.825 202.391 222.242 203.852 224.765 205.109L224.147 201.472Z" fill="#021429"/>
<path opacity="0.2" d="M224.884 205.435C224.884 205.435 224.26 203.476 226.094 199.857C227.929 196.238 229.214 194.104 229.214 194.104C229.214 194.104 232.047 198.16 230.369 201.716C229.116 204.25 227.655 206.675 226.001 208.967L224.884 205.435Z" fill="#021429"/>
<path opacity="0.2" d="M243.104 204.449C243.104 204.449 240.952 207.713 237.719 213.185C237.345 213.809 237.02 214.433 236.746 215.026C235.978 215.606 235.061 216.311 234.013 217.148C230.799 219.712 230.562 221.753 230.562 221.753L230.169 225.403C231.965 224.376 233.697 223.241 235.354 222.002L236.222 225.322H236.733C237.357 225.322 237.931 225.291 238.518 225.266C240.621 222.483 242.538 219.564 244.259 216.53C247.179 211.064 243.104 204.449 243.104 204.449Z" fill="#021429"/>
<path opacity="0.2" d="M229.72 216.735C229.72 216.735 229.37 214.713 226.044 212.367C222.718 210.021 220.615 208.717 220.615 208.717C220.615 208.717 219.991 213.621 223.111 215.999C225.397 217.653 227.816 219.115 230.344 220.367L229.72 216.735Z" fill="#021429"/>
<path opacity="0.2" d="M229.052 225.365C228.204 225.365 227.355 225.328 226.525 225.297C225.439 225.266 224.378 225.216 223.336 225.166C221.14 222.089 222.9 217.678 222.9 217.678C222.9 217.678 224.597 219.462 227.224 222.589C227.952 223.43 228.567 224.364 229.052 225.365Z" fill="#021429"/>
<path d="M230.069 225.379C230.25 223.426 230.369 221.635 230.363 220.462C230.344 219.327 230.148 218.203 229.782 217.13C229.614 216.593 229.395 216.05 229.158 215.501C228.297 213.535 227.124 211.476 226.069 208.874C225.807 208.25 225.558 207.589 225.333 206.883C225.233 206.596 225.134 206.297 225.04 205.997C225.043 205.954 225.043 205.91 225.04 205.866C224.971 205.648 224.915 205.43 224.853 205.211C224.797 205.018 224.753 204.818 224.709 204.587C224.566 203.963 224.46 203.302 224.372 202.653C223.711 197.623 224.553 192.457 223.505 188.413C223.387 187.962 223.243 187.518 223.074 187.084C222.645 186.033 222.147 185.011 221.583 184.026C221.39 183.677 221.19 183.34 220.959 183.009C220.95 182.986 220.939 182.963 220.928 182.941C220.884 182.866 220.847 182.803 220.803 182.741C218.987 179.771 216.903 177.038 215.449 173.194C215.262 172.694 215.087 172.189 214.919 171.671C214.906 171.645 214.895 171.618 214.888 171.59C214.825 171.397 214.763 171.209 214.707 171.01C214.669 170.91 214.632 170.804 214.601 170.698C214.501 170.386 214.407 170.074 214.313 169.762C214.045 168.863 213.802 167.958 213.577 167.041" stroke="#760A5B" stroke-linecap="round" stroke-linejoin="round"/>
<path d="M214.968 172.269L211.505 170.453" stroke="#760A5B" stroke-linecap="round" stroke-linejoin="round"/>
<path d="M214.356 169.6L215.243 167.104" stroke="#760A5B" stroke-linecap="round" stroke-linejoin="round"/>
<path d="M222.837 186.871C222.837 186.871 219.96 185.398 216.983 183.932" stroke="#760A5B" stroke-linecap="round" stroke-linejoin="round"/>
<path d="M220.896 183.095C221.745 180.409 222.863 177.817 224.235 175.357" stroke="#760A5B" stroke-linecap="round" stroke-linejoin="round"/>
<path d="M224.547 204.368C222.62 201.935 220.35 199.796 217.808 198.016" stroke="#760A5B" stroke-linecap="round" stroke-linejoin="round"/>
<path d="M225.539 207.126C226 205.159 226.627 203.235 227.411 201.373C228.528 198.914 228.659 198.59 228.659 198.59" stroke="#760A5B" stroke-linecap="round" stroke-linejoin="round"/>
<path d="M230.213 223.962C231.344 222.566 232.597 221.273 233.957 220.099C234.819 219.462 235.629 218.757 236.378 217.99" stroke="#760A5B" stroke-linecap="round" stroke-linejoin="round"/>
<path d="M230.362 220.48C229.434 218.981 228.391 217.556 227.242 216.218C226.118 214.989 224.892 213.855 223.579 212.83" stroke="#760A5B" stroke-linecap="round" stroke-linejoin="round"/>
<path d="M224.054 221.729C224.534 222.415 225.501 223.85 226.55 225.292" stroke="#760A5B" stroke-linecap="round" stroke-linejoin="round"/>
<path d="M171.694 238.638C166.028 234.663 159.495 228.23 157.342 218.863C155.617 223.319 153.291 227.518 150.428 231.343C146.39 236.57 140.797 240.379 134.454 242.22C132.9 242.694 132.026 243.224 132.026 243.786C132.026 245.776 142.996 247.393 156.531 247.393C170.065 247.393 181.042 245.776 181.042 243.786C181.042 243.299 180.368 242.825 179.17 242.401C176.518 241.494 174.002 240.228 171.694 238.638Z" fill="white" stroke="#760A5B" stroke-miterlimit="10"/>
<path d="M154.865 137.486L149.785 223.243L156.699 233.258L163.519 224.609L159.594 137.723L154.865 137.486Z" fill="white" stroke="#760A5B" stroke-miterlimit="10"/>
<path d="M184.785 130.148H116.851V134.629C116.851 138.042 134.859 140.813 157.074 140.813C179.288 140.813 197.297 138.042 197.297 134.629V130.148H184.785Z" fill="#760A5B"/>
<path d="M157.074 136.333C179.288 136.333 197.297 133.564 197.297 130.149C197.297 126.733 179.288 123.965 157.074 123.965C134.859 123.965 116.851 126.733 116.851 130.149C116.851 133.564 134.859 136.333 157.074 136.333Z" fill="#eb9dd9"/>
<path d="M157.074 136.333C179.288 136.333 197.297 133.564 197.297 130.149C197.297 126.733 179.288 123.965 157.074 123.965C134.859 123.965 116.851 126.733 116.851 130.149C116.851 133.564 134.859 136.333 157.074 136.333Z" stroke="#760A5B" stroke-linecap="round" stroke-linejoin="round"/>
<path d="M184.511 117.77H163.919C163.919 117.77 163.919 123.298 166.827 130.53C166.827 131.916 170.153 133.026 174.259 133.026C178.365 133.026 181.684 131.909 181.684 130.53C181.69 130.462 181.69 130.393 181.684 130.324C184.48 123.192 184.511 117.77 184.511 117.77Z" fill="white" stroke="#760A5B" stroke-linecap="round" stroke-linejoin="round"/>
<path d="M174.284 120.77C179.994 120.77 184.624 119.427 184.624 117.769C184.624 116.111 179.994 114.768 174.284 114.768C168.574 114.768 163.944 116.111 163.944 117.769C163.944 119.427 168.574 120.77 174.284 120.77Z" fill="white" stroke="#760A5B" stroke-linecap="round" stroke-linejoin="round"/>
<path d="M174.284 120.277C179.408 120.277 183.563 119.154 183.563 117.768C183.563 116.383 179.408 115.26 174.284 115.26C169.159 115.26 165.005 116.383 165.005 117.768C165.005 119.154 169.159 120.277 174.284 120.277Z" fill="white" stroke="#760A5B" stroke-linecap="round" stroke-linejoin="round"/>
<path d="M165.878 118.83C167.363 119.685 170.564 120.272 174.283 120.272C178.002 120.272 181.203 119.685 182.682 118.83C181.203 117.981 177.996 117.389 174.283 117.389C170.57 117.389 167.363 117.981 165.878 118.83Z" fill="#760A5B" stroke="#760A5B" stroke-linecap="round" stroke-linejoin="round"/>
<path d="M169.959 119.067C169.959 119.067 167.27 112.353 168.056 110.562C168.842 108.771 171.413 108.996 172.312 110.787C173.21 112.578 173.653 119.292 173.653 119.292C173.653 119.292 170.976 120.191 169.959 119.067Z" fill="#eb9dd9" stroke="#760A5B" stroke-miterlimit="10"/>
<path d="M172.311 119.741C172.311 119.741 170.184 107.885 170.739 105.638C171.294 103.392 174.102 102.612 176.112 104.29C178.121 105.969 177.36 114.48 177.36 115.71C177.36 116.939 177.247 119.516 177.247 119.516C175.652 120.032 173.947 120.109 172.311 119.741Z" fill="#eb9dd9" stroke="#760A5B" stroke-miterlimit="10"/>
<path d="M176.673 119.515C176.673 119.515 175.013 114.923 176.006 113.132C176.998 111.341 179.026 112.015 179.026 113.469C179.026 114.923 179.138 118.398 178.914 119.178C178.689 119.958 177.46 120.189 176.673 119.515Z" fill="#eb9dd9" stroke="#760A5B" stroke-miterlimit="10"/>
<path d="M174.215 119.391C171.413 108.783 173.766 103.498 173.766 103.498C173.766 103.498 177.123 109.32 175.332 119.391" stroke="#760A5B" stroke-linecap="round" stroke-linejoin="round"/>
<path d="M169.622 110.338C169.622 110.338 167.045 110.45 171.3 119.292" stroke="#760A5B" stroke-linecap="round" stroke-linejoin="round"/>
<path d="M108.389 239.68C102.723 236.173 96.1902 230.507 94.0374 222.252C92.2809 226.229 89.9515 229.927 87.1234 233.228C83.1486 237.877 77.4702 241.122 71.149 242.813C69.5953 243.231 68.7217 243.699 68.7217 244.192C68.7217 245.945 79.6916 247.368 93.2262 247.368C106.761 247.368 117.737 245.945 117.737 244.192C117.737 243.761 117.063 243.343 115.865 242.944C113.246 242.174 110.734 241.078 108.389 239.68Z" fill="white" stroke="#760A5B" stroke-miterlimit="10"/>
<path d="M91.5598 150.555L86.4805 226.108L93.3944 234.938L100.215 227.319L96.2897 150.767L91.5598 150.555Z" fill="white" stroke="#760A5B" stroke-miterlimit="10"/>
<path d="M120.962 154.025H53.04V158.512C53.04 161.919 71.0487 164.69 93.2631 164.69C115.477 164.69 133.486 161.919 133.486 158.512V154.025H120.962Z" fill="#760A5B"/>
<path d="M93.2572 160.215C115.472 160.215 133.48 157.447 133.48 154.031C133.48 150.616 115.472 147.848 93.2572 147.848C71.0426 147.848 53.0342 150.616 53.0342 154.031C53.0342 157.447 71.0426 160.215 93.2572 160.215Z" fill="#eb9dd9" stroke="#760A5B" stroke-miterlimit="10"/>
<path d="M157.748 227.582C156.4 229.08 154.004 229.074 152.132 228.487C149.211 227.588 146.703 225.667 143.826 224.656C140.294 223.408 136.107 223.458 133.362 220.912C131.987 219.537 131.081 217.764 130.772 215.845L130.697 215.42C130.455 213.361 130.44 211.281 130.654 209.218L137.486 205.23C141.992 211.626 149.655 217.673 154.041 221.211C155.158 222.055 156.213 222.976 157.199 223.969C158.777 225.929 157.748 227.582 157.748 227.582Z" fill="white"/>
<path d="M130.628 209.211C130.415 211.274 130.43 213.354 130.672 215.414C130.928 217.489 131.865 219.42 133.336 220.905C136.082 223.457 140.269 223.401 143.801 224.649C146.677 225.66 149.186 227.582 152.106 228.48C154.028 229.067 156.399 229.073 157.722 227.575C157.722 227.575 158.752 225.922 157.148 223.956C155.544 221.991 143.57 213.922 137.436 205.236L130.628 209.211Z" stroke="#760A5B" stroke-miterlimit="10"/>
<path d="M74.8058 128.179C74.8058 128.179 66.9184 136.241 67.636 145.956C68.3536 155.672 80.9459 159.984 89.2638 163.31C94.4342 165.427 99.2103 168.402 103.391 172.108C103.391 172.108 100.677 179.715 107.809 189.218C114.941 198.722 131.109 210.615 131.109 210.615C132.598 210.6 134.047 210.138 135.271 209.291C136.494 208.443 137.436 207.248 137.973 205.86C137.973 205.86 122.373 178.523 118.523 167.116C118.523 167.116 117.806 158.38 114.211 155.229C114.211 155.229 118.979 150.137 118.935 144.415C118.891 138.693 113.569 129.77 107.329 125.633L106.867 127.062L101.251 131.623C101.251 131.623 88.4589 132.634 79.5856 125.271V123.137L78.8805 124.023L74.8058 128.179Z" fill="#760A5B"/>
<path d="M112.357 152.59C113.033 153.432 113.658 154.313 114.229 155.229" stroke="white" stroke-linecap="round" stroke-linejoin="round"/>
<path d="M96.627 137.732C96.627 137.732 104.976 144.178 110.648 150.562" stroke="white" stroke-linecap="round" stroke-linejoin="round"/>
<path d="M103.391 143.405C103.391 143.405 106.348 140.572 106.891 137.732" stroke="white" stroke-linecap="round" stroke-linejoin="round"/>
<path d="M157.747 227.581C156.399 229.078 154.003 229.072 152.131 228.485C149.211 227.587 146.702 225.665 143.826 224.654C140.294 223.406 136.107 223.456 133.361 220.91C131.951 219.6 130.678 216.673 130.497 213.135C132.159 214.84 134.072 216.282 136.169 217.409C138.291 218.52 140.537 219.83 142.64 220.979C144.8 222.258 147.181 223.117 149.66 223.512C150.393 223.592 151.135 223.509 151.832 223.269C153.598 222.501 153.323 221.316 153.367 220.704C154.7 221.724 155.979 222.813 157.198 223.968C158.777 225.927 157.747 227.581 157.747 227.581Z" fill="#760A5B"/>
<path d="M99.3597 236.292C99.3597 241.19 97.8871 246.276 94.4676 249.758C93.9049 250.427 93.1372 250.892 92.2836 251.081C91.726 251.1 91.1723 250.982 90.6715 250.736C90.1708 250.49 89.7385 250.124 89.4132 249.671C88.0404 247.998 87.6161 245.714 87.7097 243.549C87.8033 241.384 88.3337 239.268 88.6769 237.128C88.8141 236.236 88.9202 235.344 88.9889 234.445C89.146 232.303 89.1 230.151 88.8516 228.018C88.5833 225.715 88.0716 223.425 89.7626 221.665C91.0543 220.324 93.5066 218.308 95.3786 219.837C95.9608 220.412 96.3658 221.142 96.5455 221.94C96.8325 222.832 97.1196 223.725 97.3879 224.629C98.6092 228.4 99.2734 232.329 99.3597 236.292Z" fill="white"/>
<path d="M88.8522 228.018C89.206 231.048 89.1472 234.113 88.6775 237.128C88.3405 239.268 87.7976 241.384 87.7103 243.549C87.6229 245.714 88.041 247.998 89.4138 249.671C89.7391 250.124 90.1714 250.49 90.6721 250.736C91.1729 250.982 91.7266 251.1 92.2842 251.081C93.1379 250.892 93.9055 250.427 94.4682 249.758C97.8877 246.251 99.3541 241.19 99.3603 236.292C99.3666 231.394 98.0374 226.595 96.5211 221.94C96.3414 221.142 95.9365 220.412 95.3543 219.837C93.4823 218.308 91.0549 220.324 89.7383 221.665C88.0722 223.425 88.6088 225.715 88.8522 228.018Z" stroke="#760A5B" stroke-miterlimit="10"/>
<path d="M88.7519 224.848C88.7519 224.848 92.265 230.12 97.3693 224.848C97.3693 224.848 96.6642 210.071 98.2429 202.427C99.8216 194.783 105.806 170.866 97.3693 162.604C88.9329 154.342 81.3638 162.073 79.9598 168.756C78.5558 175.439 82.9488 194.428 85.5758 203.22C88.2028 212.012 88.7519 224.848 88.7519 224.848Z" fill="#760A5B"/>
<path d="M100.103 166.873C100.103 166.873 94.8489 153.089 83.6543 161.063" stroke="white" stroke-linecap="round" stroke-linejoin="round"/>
<path d="M99.3597 236.292C99.3597 241.19 97.8871 246.276 94.4676 249.758C93.9049 250.427 93.1372 250.892 92.2836 251.081C91.726 251.1 91.1723 250.981 90.6715 250.735C90.1708 250.489 89.7385 250.123 89.4132 249.67C88.0404 247.998 87.6161 245.714 87.7097 243.549C87.8033 241.383 88.3337 239.268 88.6769 237.128C88.8141 236.235 88.9202 235.343 88.9889 234.445C89.382 236.317 89.4568 240.454 89.513 241.221C89.5341 241.979 89.6644 242.729 89.8999 243.449C90.0206 243.808 90.2175 244.136 90.4771 244.412C90.7366 244.688 91.0527 244.904 91.4037 245.046C91.8616 245.17 92.3447 245.166 92.8002 245.034C93.2558 244.902 93.6663 244.647 93.9871 244.298C94.6204 243.59 95.0874 242.75 95.3536 241.839C97.0384 237.084 97.2631 231.948 97.1944 226.907C97.153 226.143 97.2096 225.378 97.3629 224.629C98.5927 228.399 99.2654 232.328 99.3597 236.292Z" fill="#760A5B"/>
<path d="M77.2953 66.3524C76.7104 67.7132 76.4869 69.2021 76.6465 70.6747C76.8061 72.1473 77.3434 73.5537 78.2064 74.7576C81.1891 79.0071 90.3681 82.9882 95.6784 80.7293C100.989 78.4704 110.548 78.589 114.929 81.3533C119.309 84.1176 135.777 82.2207 135.777 72.2304C135.777 72.2304 138.035 74.2148 137.505 77.1226C137.505 77.1226 144.806 70.6642 136.176 61.0733C136.176 61.0733 138.622 56.6492 133.48 55.994C128.338 55.3388 127.864 52.5495 127.371 49.6292C126.878 46.7088 126.997 39.5828 120.607 39.6452C120.607 39.6452 110.286 29.424 98.7671 34.466C87.2481 39.5079 90.0312 46.946 84.6148 45.8914C84.3923 46.5363 84.3923 47.2371 84.6148 47.882C84.6148 47.882 86.3433 51.8631 83.8224 53.7226C81.3014 55.5821 74.5997 58.908 74.2627 68.0746C74.5559 67.5321 74.9957 67.0829 75.5319 66.7783C76.0681 66.4738 76.6792 66.3262 77.2953 66.3524Z" fill="#760A5B"/>
<path d="M94.1436 76.2992L96.0904 75.2634V70.4648C96.0904 70.4648 99.0856 75.9623 102.493 76.5426C105.9 77.1229 109.85 71.1762 109.85 71.1762C109.85 71.1762 109.176 75.0013 109.85 75.9623C110.524 76.9232 116.158 79.8685 116.158 79.8685C116.158 79.8685 107.503 88.0117 105.55 94.2205C105.55 94.2205 104.926 88.3549 100.883 85.2661C97.7939 83.0146 95.4473 79.8924 94.1436 76.2992Z" fill="white"/>
<path d="M94.1436 76.2998C91.8598 76.9754 89.459 77.1604 87.0986 76.8426C83.6978 76.2186 78.138 74.2094 74.107 77.1234C70.0759 80.0375 70.8247 91.7375 70.363 95.0135C69.9012 98.2896 69.5206 101.484 66.7188 104.305C63.917 107.125 62.0388 115.219 62.7751 118.208C62.7751 118.208 60.7097 121.009 62.2135 126.207C63.7174 131.405 64.9217 130.438 64.9217 130.438C64.9217 130.438 71.0868 130.681 74.2817 128.753C74.2817 128.753 77.4766 126.157 78.5436 124.017C79.6106 121.877 77.826 118.208 77.826 118.208L79.6044 120.08V125.29C79.6044 125.29 86.2812 130.164 93.1327 131.124C101.245 131.642 100.976 131.63 100.976 131.63L106.717 127.58C106.717 127.58 109.213 119.811 111.591 117.003C113.968 114.195 119.553 109.372 119.909 106.52C120.264 103.668 119.047 96.9292 119.047 96.9292C119.047 96.9292 123.122 101.191 124.071 106.015C125.019 110.838 137.799 101.085 137.799 101.085C137.799 101.085 134.023 93.934 133.031 90.0839C132.039 86.2339 130.535 81.7099 126.829 81.1607C123.122 80.6116 115.853 80.0812 115.853 80.0812C115.853 80.0812 107.834 87.5692 105.606 94.5518C105.606 94.5518 104.764 89.1355 100.858 85.2916C96.9516 81.4478 94.2559 78.9955 94.1436 76.2998Z" fill="#eb9dd9"/>
<path opacity="0.6" d="M116.158 79.8681C116.158 79.8681 107.515 88.2235 105.774 93.54C105.774 93.54 103.59 87.9239 100.277 84.6729C96.9635 81.4219 95.3286 78.8884 94.143 76.2988L92.5581 76.8417C92.5581 76.8417 91.023 80.5483 90.7734 82.283L95.26 84.6854L94.8918 92.9222C94.8918 92.9222 102.804 101.072 103.628 106.026L105.799 107.274C105.799 107.274 106.86 101.103 106.355 97.7457C106.355 97.7457 107.603 96.0734 110.673 94.8379C113.743 93.6023 115.833 92.5103 115.833 92.5103L114.96 87.2188C117.212 86.6657 119.397 85.8663 121.474 84.8351L117.574 80.1801L116.158 79.8681Z" fill="white"/>
<path opacity="0.2" d="M129.88 102.894C129.88 102.894 127.384 95.7801 117.325 91.1562L117.862 93.2779L115.322 92.9471C115.322 92.9471 115.946 103.767 112.264 107.299C108.583 110.831 94.4179 107.979 90.7363 111.149L97.1698 111.655C97.1698 111.655 91.6162 113.177 91.3229 115.087C91.0296 116.996 98.9606 116.004 102.137 117.495C102.137 117.495 102.879 126.855 100.078 131.548L100.982 131.61L106.867 127.061C106.867 127.061 110.424 117.346 113.107 115.087C115.79 112.828 119.858 109.065 119.796 106.032C119.734 103 119.234 96.6724 119.234 96.6724C119.234 96.6724 122.673 100.978 123.602 104.423C124.532 107.867 129.88 102.894 129.88 102.894Z" fill="#021429"/>
<path d="M129.524 115.373C129.524 115.373 131.633 124.234 139.727 124.016C139.727 124.016 140.675 124.446 141.736 122.013C142.797 119.579 143.883 117.071 142.872 112.297C141.861 107.524 138.529 102.238 138.529 102.238L128.838 107.692L129.524 115.373Z" fill="white"/>
<path d="M115.441 56.0123C115.441 56.0123 114.817 45.0611 106.705 42.484C98.5928 39.9069 91.5354 46.228 89.9629 54.8392C89.9629 54.8392 91.8349 63.9496 93.0018 66.1211C94.1686 68.2927 98.8861 75.6683 102.262 76.5482C105.638 77.428 110.33 70.7887 112.202 67.9183C114.074 65.0479 115.41 60.2181 115.684 56.0123" fill="white"/>
<path d="M115.441 56.0123C115.441 56.0123 114.817 45.0611 106.705 42.484C98.5928 39.9069 91.5354 46.228 89.9629 54.8392C89.9629 54.8392 91.8349 63.9496 93.0018 66.1211C94.1686 68.2927 98.8861 75.6683 102.262 76.5482C105.638 77.428 110.33 70.7887 112.202 67.9183C114.074 65.0479 115.41 60.2181 115.684 56.0123" stroke="#760A5B" stroke-miterlimit="10"/>
<path d="M102.118 67.9807C102.304 68.2974 102.536 68.5854 102.805 68.8356C103.753 69.7154 104.053 68.3177 104.053 67.5876C104.001 65.8397 104.303 64.0995 104.939 62.4707" stroke="#760A5B" stroke-linecap="round" stroke-linejoin="round"/>
<path d="M106.111 60.8303C106.866 59.6759 108.782 58.3344 110.623 59.5823" stroke="#760A5B" stroke-linecap="round" stroke-linejoin="round"/>
<path d="M96.3398 59.071C98.3616 57.823 100.758 58.5718 101.151 60.2192" stroke="#760A5B" stroke-linecap="round" stroke-linejoin="round"/>
<path d="M107.952 63.8562C107.921 64.5862 107.628 65.1665 107.297 65.154C106.966 65.1415 106.723 64.53 106.748 63.8062C106.773 63.0824 107.072 62.4897 107.403 62.5021C107.734 62.5146 107.952 63.1136 107.952 63.8562Z" fill="#760A5B"/>
<path d="M99.5664 63.6511C99.5352 64.3812 99.2419 64.9615 98.9112 64.9491C98.5804 64.9366 98.3308 64.3251 98.362 63.6012C98.3932 62.8774 98.6865 62.2846 99.0172 62.2971C99.348 62.3095 99.5976 62.9148 99.5664 63.6511Z" fill="#760A5B"/>
<path d="M114.224 63.7744C114.224 63.7744 114.891 64.1363 116.483 62.7511C118.074 61.3658 119.428 58.6765 118.779 57.5533C118.13 56.4301 116.158 58.0587 116.158 58.0587L114.224 63.7744Z" fill="white" stroke="#760A5B" stroke-miterlimit="10"/>
<path d="M90.144 56.5374C90.144 56.5374 88.4529 55.5203 87.4732 56.3315C86.3875 57.2238 87.9662 60.2253 88.5091 61.0801C89.1955 62.1597 90.5434 63.0769 91.6853 62.091L90.144 56.5374Z" fill="white" stroke="#760A5B" stroke-miterlimit="10"/>
<path d="M98.792 69.123C99.046 69.7757 99.4546 70.3569 99.9829 70.8167C100.511 71.2765 101.143 71.6011 101.825 71.7626" stroke="#760A5B" stroke-linecap="round" stroke-linejoin="round"/>
<path d="M110.23 70.6758C109.25 72.866 109.3 74.7942 109.881 77.1217" stroke="#760A5B" stroke-linecap="round" stroke-linejoin="round"/>
<path d="M95.8841 70.4648C96.0653 71.8548 96.1342 73.2571 96.09 74.6581C96.1543 75.5883 96.0225 76.5215 95.7031 77.3975" stroke="#760A5B" stroke-linecap="round" stroke-linejoin="round"/>
<path d="M89.3944 55.401C89.3944 55.401 98.6297 55.0328 100.758 45.4481C100.758 45.4481 104.801 55.6568 116.582 56.5367C116.582 56.5367 118.685 49.2795 117.499 44.6245C116.314 39.9694 110.511 35.9446 102.723 36.5873C94.9356 37.23 88.5021 40.0567 89.3944 55.401Z" fill="#760A5B"/>
<path d="M79.6104 120.067V125.277C79.6104 125.277 88.883 132.335 101.276 131.63L106.704 127.567C106.704 127.567 108.527 120.735 112.233 116.123C115.94 111.512 120.532 109.44 119.827 103.681C119.122 97.9211 118.929 95.9805 118.929 95.9805" stroke="#760A5B" stroke-linecap="round" stroke-linejoin="round"/>
<path d="M95.8843 75.7121C95.8843 75.7121 90.5803 77.7651 85.1577 76.5607C79.7352 75.3564 75.9912 75.0756 72.9336 78.1332C69.876 81.1908 71.5483 97.4772 68.9088 101.128C66.2693 104.778 61.2523 112.116 62.7811 118.225" stroke="#760A5B" stroke-linecap="round" stroke-linejoin="round"/>
<path d="M78.5247 121.158C79.9786 123.798 76.9522 126.15 74.7807 128.178C72.6091 130.206 66.4315 130.674 64.5221 130.325C62.6127 129.976 61.3022 123.293 61.6579 121.146C62.0136 118.999 63.2117 116.971 65.0026 116.123C66.7935 115.274 68.1226 109.696 69.4392 108.934C70.7559 108.173 71.5421 110.65 71.5421 110.65" stroke="#760A5B" stroke-miterlimit="10"/>
<path d="M95.3477 111.436L107.491 112.914C108.639 113.052 109.893 113.251 110.648 114.125" stroke="#760A5B" stroke-linecap="round" stroke-linejoin="round"/>
<path d="M81.457 102.007C81.457 102.007 82.1933 95.811 81.457 92.9219" stroke="#760A5B" stroke-linecap="round" stroke-linejoin="round"/>
<path d="M81.7822 99.7489C83.1017 98.4263 84.1788 96.8824 84.9646 95.1875" stroke="#760A5B" stroke-linecap="round" stroke-linejoin="round"/>
<path d="M126.791 102.021C125.979 101.889 125.215 101.55 124.573 101.035C123.93 100.521 123.432 99.8501 123.126 99.0867C122.819 98.3233 122.715 97.4937 122.824 96.6783C122.933 95.8629 123.25 95.0894 123.746 94.4329C124.37 93.5718 125.312 92.9415 125.917 92.0492C126.269 91.518 126.494 90.9131 126.575 90.2811C126.657 89.6492 126.592 89.007 126.385 88.4042C126.179 87.8013 125.837 87.2538 125.386 86.8039C124.935 86.354 124.387 86.0137 123.783 85.8091C124.982 85.7061 126.188 85.7186 127.384 85.8466C129.842 86.2023 131.334 87.9183 130.816 90.5017C130.298 93.085 127.271 93.4282 125.474 94.8697C125.009 95.1989 124.632 95.6375 124.376 96.1468C124.121 96.656 123.994 97.2203 124.008 97.79C124.052 98.6793 124.334 99.5406 124.823 100.284C125.312 101.028 125.992 101.628 126.791 102.021Z" fill="white" stroke="#760A5B" stroke-miterlimit="10"/>
<path d="M109.562 75.7129C111.871 77.8959 114.747 79.3857 117.862 80.0122C122.729 80.8359 128.145 80.5988 129.955 82.7391C131.764 84.8794 134.466 96.3111 137.986 101.415C141.505 106.52 146.541 117.203 140.401 123.761C140.401 123.761 133.761 125.932 129.973 116.897" stroke="#760A5B" stroke-linecap="round" stroke-linejoin="round"/>
<path d="M117.861 94.6953C117.861 94.6953 121.718 99.1756 123.34 103.681" stroke="#760A5B" stroke-linecap="round" stroke-linejoin="round"/>
<path d="M126.049 116.123C127.753 115.028 129.782 114.55 131.796 114.769C135.116 115.162 134.81 116.092 134.229 116.329C133.649 116.566 124.776 118.594 124.483 118.07C124.189 117.545 126.049 116.123 126.049 116.123Z" fill="white" stroke="#760A5B" stroke-miterlimit="10"/>
<path d="M94.1436 76.2988C94.4244 79.2379 96.8704 81.4156 99.0232 83.4436C100.809 85.0312 102.354 86.8705 103.61 88.9036C106.861 94.5571 106.143 101.565 105.326 108.035" stroke="#760A5B" stroke-linecap="round" stroke-linejoin="round"/>
<path d="M92.9767 76.2676C91.931 78 91.1921 79.8999 90.7927 81.8836C90.7488 82.0195 90.7488 82.1658 90.7927 82.3017C90.8675 82.4173 90.9766 82.5068 91.1047 82.5575L95.2793 84.7041C94.8926 86.7014 94.7356 88.7363 94.8113 90.7693C94.8082 91.1375 94.863 91.5039 94.9735 91.8551C95.1642 92.2996 95.4373 92.704 95.7785 93.0469C99.1668 96.9095 102.823 100.984 103.622 106.057" stroke="#760A5B" stroke-linecap="round" stroke-linejoin="round"/>
<path d="M116.557 79.6367C115.687 80.1388 114.898 80.77 114.217 81.5087C110.594 85.1536 107.725 89.4772 105.774 94.2321" stroke="#760A5B" stroke-linecap="round" stroke-linejoin="round"/>
<path d="M117.082 79.6875C118.592 81.3515 120.048 83.0779 121.45 84.8667C119.508 86.1859 117.27 87.0047 114.935 87.2504C115.228 88.8478 115.515 90.4453 115.809 92.0365C115.855 92.2017 115.855 92.3767 115.809 92.5419C115.701 92.7317 115.528 92.8759 115.322 92.9475C112.233 94.4513 108.502 95.1065 106.33 97.7773" stroke="#760A5B" stroke-linecap="round" stroke-linejoin="round"/>
<path d="M100.758 45.4492C100.758 45.4492 101.301 57.7982 116.158 58.0603" stroke="#760A5B" stroke-linecap="round" stroke-linejoin="round"/>
<path d="M133.474 102.008C134.428 104.462 134.984 107.053 135.121 109.683C135.215 113.57 131.633 115.661 129.087 116.123C126.541 116.584 123.434 116.441 121.362 113.833C119.291 111.224 118.561 105.664 118.561 105.664L133.474 102.008Z" fill="white" stroke="#760A5B" stroke-miterlimit="10"/>
<path d="M136.844 101.109C136.349 101.135 135.864 101.262 135.421 101.484C133.121 102.453 130.913 103.629 128.825 104.997C128.638 105.122 128.426 105.278 128.407 105.502C128.407 105.852 128.8 106.045 129.144 106.126C131.147 106.501 133.206 106.058 135.19 105.615C135.77 105.513 136.334 105.337 136.869 105.091C138.529 104.242 139.633 101.147 136.844 101.109Z" fill="white" stroke="#760A5B" stroke-miterlimit="10"/>
<path d="M137.973 105.665C136.296 105.862 134.638 106.2 133.018 106.676C132.504 106.774 132.014 106.973 131.577 107.262C131.497 107.309 131.43 107.374 131.381 107.452C131.332 107.53 131.303 107.62 131.296 107.712C131.296 107.936 131.521 108.08 131.72 108.173C132.437 108.456 133.192 108.63 133.96 108.691C135.832 108.928 138.091 109.228 139.707 108.03C141.486 106.732 139.439 105.559 137.973 105.665Z" fill="white" stroke="#760A5B" stroke-miterlimit="10"/>
<path d="M133.094 109.758C132.539 109.754 131.993 109.894 131.509 110.163C131.358 110.246 131.237 110.372 131.159 110.525C131.106 110.689 131.107 110.865 131.162 111.028C131.217 111.191 131.324 111.332 131.465 111.43C131.751 111.617 132.075 111.739 132.414 111.786L135.789 112.516C136.488 112.665 137.331 112.778 137.768 112.079C137.914 111.835 137.992 111.556 137.992 111.271C137.992 110.986 137.914 110.707 137.768 110.463C136.938 109.446 134.229 109.683 133.094 109.758Z" fill="white" stroke="#760A5B" stroke-miterlimit="10"/>
<path d="M65.5517 115.648C64.5034 117.664 64.3911 120.017 64.3037 122.275" stroke="#760A5B" stroke-linecap="round" stroke-linejoin="round"/>
<path d="M66.2939 116.99C66.3108 119.322 67.0116 121.598 68.3093 123.536C69.607 125.474 71.4447 126.988 73.5947 127.892" stroke="#760A5B" stroke-linecap="round" stroke-linejoin="round"/>
<path d="M108.801 114.882C105.457 114.638 102.062 114.401 98.7861 115.094" stroke="#760A5B" stroke-linecap="round" stroke-linejoin="round"/>
<path d="M100.858 85.2773L88.6396 85.7391L91.0545 108.035L102.449 107.305L100.858 85.2773Z" fill="white" stroke="#760A5B" stroke-miterlimit="10"/>
<path d="M100.969 91.6613L101.65 92.8407L98.1677 99.2055C100.04 98.7562 103.079 95.4116 103.584 96.0855C104.089 96.7594 95.472 105.252 93.3629 105.782C91.8531 106.084 90.2987 106.084 88.789 105.782C87.1104 107.748 77.7317 123.136 77.7317 123.136C77.7317 123.136 68.1533 122.1 70.044 111.592C70.044 111.592 81.8501 101.97 85.3133 98.8935C85.3133 98.8935 86.6986 93.5084 88.8451 92.928L89.6064 94.8C89.6064 94.8 101.113 89.5397 101.462 89.9266C101.812 90.3135 101.462 91.2058 101.462 91.2058C101.462 91.2058 95.0352 97.1088 93.4939 97.4458" fill="white"/>
<path d="M100.969 91.6613L101.65 92.8407L98.1677 99.2055C100.04 98.7562 103.079 95.4116 103.584 96.0855C104.089 96.7594 95.472 105.252 93.3629 105.782C91.8531 106.084 90.2987 106.084 88.789 105.782C87.1104 107.748 77.7317 123.136 77.7317 123.136C77.7317 123.136 68.1533 122.1 70.044 111.592C70.044 111.592 81.8501 101.97 85.3133 98.8935C85.3133 98.8935 86.6986 93.3399 88.8451 92.928L89.6064 94.8C89.6064 94.8 101.113 89.5397 101.462 89.9266C101.812 90.3135 101.462 91.2058 101.462 91.2058C101.462 91.2058 95.0352 97.1088 93.4939 97.4458" stroke="#760A5B" stroke-miterlimit="10"/>
<path opacity="0.2" d="M101.238 43.0957C102.732 44.7888 104.406 46.3141 106.23 47.6446C107.054 48.1847 107.908 48.6764 108.789 49.1173C111.673 50.5849 114.682 51.7919 117.781 52.724" stroke="white" stroke-width="0.75" stroke-linecap="round" stroke-linejoin="round"/>
<path opacity="0.2" d="M101.868 40.5938C106.224 43.2474 110.946 45.2468 115.883 46.528" stroke="white" stroke-width="0.75" stroke-linecap="round" stroke-linejoin="round"/>
<path d="M96.3398 71.0879C96.3398 71.0879 98.0995 78.969 102.118 79.6866C106.137 80.4042 109.338 71.8866 109.338 71.8866C109.338 71.8866 105.35 76.5729 102.836 76.5354C100.321 76.498 96.3398 71.0879 96.3398 71.0879Z" fill="#760A5B"/>
<path d="M91.435 89.3212C91.952 89.3212 92.371 88.9022 92.371 88.3852C92.371 87.8683 91.952 87.4492 91.435 87.4492C90.9181 87.4492 90.499 87.8683 90.499 88.3852C90.499 88.9022 90.9181 89.3212 91.435 89.3212Z" fill="white" stroke="#760A5B" stroke-miterlimit="10"/>
</svg>
