<!DOCTYPE svg PUBLIC "-//W3C//DTD SVG 1.1//EN" "http://www.w3.org/Graphics/SVG/1.1/DTD/svg11.dtd">
<!-- Uploaded to: SVG Repo, www.svgrepo.com, Transformed by: SVG Repo Mixer Tools -->
<svg version="1.1" id="Layer_1" xmlns="http://www.w3.org/2000/svg" xmlns:xlink="http://www.w3.org/1999/xlink" viewBox="0 0 491.52 491.52" xml:space="preserve" width="800px" height="800px" fill="#000000" transform="matrix(1, 0, 0, 1, 0, 0)" stroke="#000000" stroke-width="2.4576000000000002">
<g id="SVGRepo_bgCarrier" stroke-width="0"/>
<g id="SVGRepo_tracerCarrier" stroke-linecap="round" stroke-linejoin="round"/>
<g id="SVGRepo_iconCarrier"> <polygon style="fill:#EBF0F3;" points="326.95,0 62.336,0 62.336,491.52 429.184,491.52 429.184,102.234 "/> <polygon style="fill:#D5D6DB;" points="326.95,102.234 429.184,102.234 326.95,0 "/> <polygon style="fill:#E1E6E9;" points="429.184,102.234 326.95,102.234 429.184,173.099 "/> <g> <path style="fill:#f8e856;" d="M157.6,124.931l0.043,0.028l0,0v-0.038l0.019,0.026l0.023-0.015v-0.001l0.008-0.01v0.005 l16.108-10.764l0.002,0.001v-17.84c-1.219,0.839-2.388,1.748-3.486,2.74c-7.068,6.39-14,5.295-14,5.295 c-4.228,0.112-10.251-4.22-12.82-6.237c-0.653-0.514-1.324-1.004-2.013-1.469v17.511l0.001-0.001L157.6,124.931z"/> <polygon style="fill:#f8e856;" points="157.642,118.613 157.643,118.614 157.643,118.612 157.643,118.612 152.431,125.71 152.431,125.71 "/> </g> <path style="fill:#64798A;" d="M184.576,77.31c0,0,0.931-6.289,4.152-11.454c0.782-1.254,1.21-2.696,1.21-4.174V45.427 c0,0-1.015-7.971-8.84-9.855c0,0,3.188-6.787-5.072-8.393h-30.433l0,0c-11.124,0-20.143,9.019-20.143,20.143v11.942 c0,2.587,0.866,5.105,2.486,7.123c1.275,1.587,2.599,4.083,2.803,7.695"/> <path style="fill:#f7d368;" d="M156.316,107.742c0,0,6.932,1.095,14-5.295c1.098-0.992,2.267-1.901,3.486-2.74 c0.12-0.083,0.238-0.169,0.358-0.25c3.13-2.102,9.141-7.93,10.415-22.147V58.47c0,0-0.725-6.667-7.826-9.275l-10.554-3.705 c-1.968-0.691-4.115-0.664-6.065,0.077c-2.187,0.83-5.074,1.904-6.89,2.487c-0.871,0.279-1.778,0.417-2.693,0.417H140.52 c0,0-7.826,1.014-9.782,9.781v15.83v3.662c0,0,0.34,15.397,10.535,22.145c0.071,0.047,0.139,0.098,0.211,0.147 c0.688,0.465,1.359,0.955,2.013,1.469C146.064,103.522,152.088,107.854,156.316,107.742z"/> <g> <polygon style="fill:#D5D6DB;" points="162.854,124.331 159.555,129.068 162.602,148.269 170.237,134.387 "/> <polygon style="fill:#D5D6DB;" points="152.936,149.451 156.276,128.402 152.644,123.186 144.552,134.206 "/> <polygon style="fill:#D5D6DB;" points="152.431,125.71 152.211,126.01 157.643,118.64 157.643,118.614 157.642,118.613 "/> </g> <g> <polygon style="fill:#4351f5;" points="162.946,146.473 160.357,130.154 163.16,126.128 163.16,126.128 157.643,118.612 157.643,118.614 157.643,118.64 152.211,126.01 152.151,126.091 152.15,126.092 152.15,126.092 154.979,130.154 152.378,146.545 152.378,146.545 157.643,156.117 162.946,146.475 "/> <polygon style="fill:#4351f5;" points="157.675,156.176 158.177,155.672 157.659,156.147 "/> <polygon style="fill:#4351f5;" points="157.626,156.147 157.108,155.672 157.611,156.176 "/> <polygon style="fill:#4351f5;" points="157.619,156.184 157.643,156.208 157.666,156.184 157.643,156.162 157.643,156.162 157.642,156.162 "/> <polygon style="fill:#4351f5;" points="157.693,118.572 157.685,118.582 157.693,118.578 "/> <polygon style="fill:#4351f5;" points="157.643,118.572 157.643,118.611 157.662,118.598 "/> </g> <g> <polygon style="fill:#E1E6E9;" points="157.693,118.578 157.685,118.582 157.685,118.583 157.662,118.598 157.643,118.611 157.643,118.611 157.643,118.612 157.643,118.612 157.643,118.612 163.16,126.128 169.437,134.675 182.496,110.931 173.802,107.814 173.801,107.814 "/> <polygon style="fill:#E1E6E9;" points="152.15,126.092 152.151,126.091 152.431,125.71 157.643,118.612 157.643,118.612 157.643,118.611 157.6,118.583 141.484,107.814 141.484,107.814 132.789,110.931 145.849,134.675 "/> </g> <g> <path style="fill:#221d87;" d="M157.675,156.176l0.018,0.032h6.797h51.92c3.717,0,6.545-3.335,5.938-7.002l-2.925-17.663 c-0.789-4.764-4.089-8.731-8.63-10.374l-28.297-10.238"/> <polygon style="fill:#221d87;" points="157.666,156.184 157.643,156.208 157.643,156.208 157.693,156.208 "/> </g> <g> <polygon style="fill:#2F4859;" points="162.946,146.475 157.643,156.117 157.643,156.117 157.659,156.147 158.177,155.672 183.8,132.234 180.612,126.147 190.012,126.002 182.496,110.931 169.437,134.675 "/> <polygon style="fill:#2F4859;" points="157.619,156.184 157.642,156.162 157.643,156.162 157.626,156.147 157.611,156.176 "/> </g> <path style="fill:#221d87;" d="M157.619,156.183l-0.008-0.007l-24.822-45.245l-28.297,10.238c-4.541,1.643-7.841,5.609-8.63,10.373 l-2.925,17.665c-0.607,3.666,2.222,7.001,5.939,7.001h51.97h4.013h0.05h2.734h0.001L157.619,156.183z"/> <polygon style="fill:#2F4859;" points="157.675,156.176 157.659,156.147 157.643,156.117 157.643,156.117 152.378,146.545 145.849,134.675 132.789,110.931 125.274,126.002 134.673,126.147 131.485,132.234 157.108,155.672 157.626,156.147 157.643,156.162 157.643,156.162 157.666,156.184 157.693,156.208 "/> <g> <rect x="92.314" y="196.25" style="fill:#D5D6DB;" width="306.857" height="8.934"/> <rect x="92.314" y="235.331" style="fill:#D5D6DB;" width="306.857" height="8.934"/> <rect x="92.314" y="274.381" style="fill:#D5D6DB;" width="306.857" height="8.934"/> <rect x="92.314" y="313.446" style="fill:#D5D6DB;" width="306.857" height="8.934"/> <rect x="92.314" y="352.497" style="fill:#D5D6DB;" width="306.857" height="8.934"/> <rect x="92.314" y="391.578" style="fill:#D5D6DB;" width="306.857" height="8.934"/> <rect x="92.314" y="430.592" style="fill:#D5D6DB;" width="250.506" height="8.934"/> </g> </g>
</svg>