<?xml version="1.0" encoding="utf-8"?>
<!-- Uploaded to: SVG Repo, www.svgrepo.com, Generator: SVG Repo Mixer Tools -->
<svg width="800px" height="800px" viewBox="0 0 1024 1024" class="icon"  version="1.1" xmlns="http://www.w3.org/2000/svg"><path d="M511.251462 489.54386m-475.321637 0a475.321637 475.321637 0 1 0 950.643274 0 475.321637 475.321637 0 1 0-950.643274 0Z" fill="#7CB0F1" /><path d="M512 979.836257C241.777778 979.836257 21.707602 759.766082 21.707602 490.292398S241.777778 0 512 0 1002.292398 220.070175 1002.292398 490.292398s-220.818713 489.54386-490.292398 489.543859zM512 29.94152C258.245614 29.94152 51.649123 236.538012 51.649123 490.292398s206.596491 459.602339 460.350877 459.602339S972.350877 743.298246 972.350877 490.292398C971.602339 236.538012 765.005848 29.94152 512 29.94152z" fill="#131313" /><path d="M511.251462 489.54386m-405.707602 0a405.707602 405.707602 0 1 0 811.415204 0 405.707602 405.707602 0 1 0-811.415204 0Z" fill="#FFFFFF" /><path d="M512 910.97076c-232.046784 0-420.678363-188.631579-420.678363-420.678362S279.204678 68.865497 512 68.865497c232.046784 0 420.678363 188.631579 420.678363 420.678363s-188.631579 421.426901-420.678363 421.4269z m0-812.163742c-215.578947 0-390.736842 175.157895-390.736842 390.736842 0 215.578947 175.157895 390.736842 390.736842 390.736842s390.736842-175.157895 390.736842-390.736842c0-214.830409-175.157895-390.736842-390.736842-390.736842z" fill="#131313" /><path d="M263.48538 744.046784c-3.74269 0-7.48538-1.497076-10.479532-4.491228-5.988304-5.988304-5.988304-14.97076 0-20.959065l250.760234-250.760234c5.988304-5.988304 14.97076-5.988304 20.959064 0 5.988304 5.988304 5.988304 14.97076 0 20.959065L273.964912 739.555556c-2.994152 2.994152-6.736842 4.491228-10.479532 4.491228z" fill="#131313" /><path d="M244.77193 842.105263m-109.28655 0a109.28655 109.28655 0 1 0 218.5731 0 109.28655 109.28655 0 1 0-218.5731 0Z" fill="#FFE3A6" /><path d="M244.77193 966.362573c-68.116959 0-124.25731-55.391813-124.25731-124.25731S176.654971 718.596491 244.77193 718.596491c68.116959 0 124.25731 55.391813 124.25731 124.25731s-55.391813 123.508772-124.25731 123.508772z m0-217.824561c-51.649123 0-94.315789 41.918129-94.31579 94.315789s41.918129 94.315789 94.31579 94.31579c51.649123 0 94.315789-41.918129 94.315789-94.31579S297.169591 748.538012 244.77193 748.538012z" fill="#131313" /><path d="M417.684211 988.070175c0 11.22807 8.982456 20.959064 20.959064 20.959065h170.666667c11.22807 0 20.959064-8.982456 20.959064-20.959065v-35.181286H417.684211v35.181286z" fill="#FFE3A6" /><path d="M438.643275 1024c-19.461988 0-35.929825-15.719298-35.929825-35.929825v-35.181286c0-8.233918 6.736842-14.97076 14.970761-14.97076h212.584795c8.233918 0 14.97076 6.736842 14.97076 14.97076v35.181286c0 19.461988-15.719298 35.929825-35.929824 35.929825H438.643275z m-5.988304-35.929825c0 2.994152 2.994152 5.988304 5.988304 5.988305h170.666667c2.994152 0 5.988304-2.994152 5.988304-5.988305v-20.210526H432.654971v20.210526z" fill="#131313" /><path d="M630.269006 785.964912c0-11.22807-8.982456-20.959064-20.959064-20.959064H438.643275c-11.22807 0-20.959064 8.982456-20.959064 20.959064v35.181287h212.584795V785.964912z" fill="#FFE3A6" /><path d="M630.269006 836.116959H417.684211c-8.233918 0-14.97076-6.736842-14.970761-14.97076V785.964912c0-19.461988 16.467836-35.929825 35.929825-35.929824h170.666667c19.461988 0 35.929825 16.467836 35.929824 35.929824v35.181287c0 8.233918-6.736842 14.97076-14.97076 14.97076z m-197.614035-29.94152h182.643275V785.964912c0-2.994152-2.994152-5.988304-5.988304-5.988304H438.643275c-2.994152 0-5.988304 2.994152-5.988304 5.988304v20.210527z" fill="#131313" /><path d="M417.684211 821.146199h212.584795v65.871345H417.684211z" fill="#FFE3A6" /><path d="M630.269006 901.988304H417.684211c-8.233918 0-14.97076-6.736842-14.970761-14.97076v-65.871345c0-8.233918 6.736842-14.97076 14.970761-14.97076h212.584795c8.233918 0 14.97076 6.736842 14.97076 14.97076v65.871345c0 8.233918-6.736842 14.97076-14.97076 14.97076z m-197.614035-29.94152h182.643275v-35.929825H432.654971v35.929825z" fill="#131313" /><path d="M417.684211 887.017544h212.584795v65.871345H417.684211z" fill="#FFE3A6" /><path d="M630.269006 967.859649H417.684211c-8.233918 0-14.97076-6.736842-14.970761-14.97076v-65.871345c0-8.233918 6.736842-14.97076 14.970761-14.97076h212.584795c8.233918 0 14.97076 6.736842 14.97076 14.97076v65.871345c0 8.233918-6.736842 14.97076-14.97076 14.97076z m-197.614035-29.94152h182.643275v-35.929825H432.654971v35.929825z" fill="#131313" /><path d="M758.269006 586.853801h220.818713v59.134503H758.269006z" fill="#FFE3A6" /><path d="M979.087719 660.959064H758.269006c-8.233918 0-14.97076-6.736842-14.97076-14.97076v-59.134503c0-8.233918 6.736842-14.97076 14.97076-14.97076h220.818713c8.233918 0 14.97076 6.736842 14.970761 14.97076v59.134503c0 8.233918-6.736842 14.97076-14.970761 14.97076z m-205.847953-29.94152h190.877193v-29.192983h-190.877193v29.192983z" fill="#131313" /><path d="M758.269006 645.239766h220.818713V703.625731H758.269006z" fill="#FFE3A6" /><path d="M979.087719 718.596491H758.269006c-8.233918 0-14.97076-6.736842-14.97076-14.97076v-58.385965c0-8.233918 6.736842-14.97076 14.97076-14.97076h220.818713c8.233918 0 14.97076 6.736842 14.970761 14.97076V703.625731c0 8.233918-6.736842 14.97076-14.970761 14.97076z m-205.847953-29.94152h190.877193v-28.444445h-190.877193V688.654971z" fill="#131313" /><path d="M758.269006 765.005848h220.818713v59.134503H758.269006z" fill="#FFE3A6" /><path d="M979.087719 839.111111H758.269006c-8.233918 0-14.97076-6.736842-14.97076-14.97076v-59.134503c0-8.233918 6.736842-14.97076 14.97076-14.97076h220.818713c8.233918 0 14.97076 6.736842 14.970761 14.97076v59.134503c0 8.233918-6.736842 14.97076-14.970761 14.97076z m-205.847953-29.94152h190.877193v-29.192983h-190.877193v29.192983z" fill="#131313" /><path d="M711.111111 706.619883h207.345029v59.134503H711.111111z" fill="#FFE3A6" /><path d="M918.45614 780.725146H711.111111c-8.233918 0-14.97076-6.736842-14.97076-14.97076v-59.134503c0-8.233918 6.736842-14.97076 14.97076-14.97076h207.345029c8.233918 0 14.97076 6.736842 14.970761 14.97076v59.134503c0 8.233918-6.736842 14.97076-14.970761 14.97076z m-192.374269-29.94152h177.403509v-29.192983H726.081871v29.192983z" fill="#131313" /><path d="M711.111111 890.011696h207.345029v59.134503H711.111111z" fill="#FFE3A6" /><path d="M918.45614 964.116959H711.111111c-8.233918 0-14.97076-6.736842-14.97076-14.97076v-59.134503c0-8.233918 6.736842-14.97076 14.97076-14.97076h207.345029c8.233918 0 14.97076 6.736842 14.970761 14.97076v59.134503c0 8.233918-6.736842 14.97076-14.970761 14.97076z m-192.374269-29.94152h177.403509v-29.192983H726.081871v29.192983z" fill="#131313" /><path d="M758.269006 824.140351h220.818713v58.385965H758.269006z" fill="#FFE3A6" /><path d="M979.087719 897.497076H758.269006c-8.233918 0-14.97076-6.736842-14.97076-14.97076v-58.385965c0-8.233918 6.736842-14.97076 14.97076-14.97076h220.818713c8.233918 0 14.97076 6.736842 14.970761 14.97076v58.385965c0 8.233918-6.736842 14.97076-14.970761 14.97076z m-205.847953-29.94152h190.877193v-28.444445h-190.877193v28.444445z" fill="#131313" /><path d="M291.929825 276.210526c-3.74269 0-7.48538-1.497076-10.479533-4.491228l-21.707602-21.707602c-5.988304-5.988304-5.988304-14.97076 0-20.959064 5.988304-5.988304 14.97076-5.988304 20.959064 0l21.707603 21.707602c5.988304 5.988304 5.988304 14.97076 0 20.959064-2.994152 2.994152-6.736842 4.491228-10.479532 4.491228z" fill="#131313" /><path d="M196.116959 493.28655h-30.690058c-8.233918 0-14.97076-6.736842-14.970761-14.970761s6.736842-14.97076 14.970761-14.97076h30.690058c8.233918 0 14.97076 6.736842 14.97076 14.97076s-6.736842 14.97076-14.97076 14.970761z" fill="#131313" /><path d="M854.830409 493.28655h-30.690058c-8.233918 0-14.97076-6.736842-14.97076-14.970761s6.736842-14.97076 14.97076-14.97076h30.690058c8.233918 0 14.97076 6.736842 14.970761 14.97076s-6.736842 14.97076-14.970761 14.970761z" fill="#131313" /><path d="M729.824561 276.210526c-3.74269 0-7.48538-1.497076-10.479532-4.491228-5.988304-5.988304-5.988304-14.97076 0-20.959064l21.707603-21.707602c5.988304-5.988304 14.97076-5.988304 20.959064 0 5.988304 5.988304 5.988304 14.97076 0 20.959064L740.304094 271.719298c-2.994152 2.994152-6.736842 4.491228-10.479533 4.491228z" fill="#131313" /><path d="M500.77193 132.491228h20.210526c11.22807 0 20.959064 8.982456 20.959064 20.959064v328.608188c0 11.22807-8.982456 20.959064-20.959064 20.959064H500.77193c-11.22807 0-20.959064-8.982456-20.959065-20.959064V153.450292c0-11.22807 8.982456-20.959064 20.959065-20.959064z" fill="#7CB0F1" /><path d="M520.982456 517.988304H500.77193c-19.461988 0-35.929825-15.719298-35.929825-35.929824V153.450292c0-19.461988 15.719298-35.929825 35.929825-35.929824h20.210526c19.461988 0 35.929825 15.719298 35.929825 35.929824v328.608188c-0.748538 20.210526-16.467836 35.929825-35.929825 35.929824zM500.77193 147.461988c-2.994152 0-5.988304 2.994152-5.988304 5.988304v328.608188c0 2.994152 2.994152 5.988304 5.988304 5.988304h20.210526c2.994152 0 5.988304-2.994152 5.988304-5.988304V153.450292c0-2.994152-2.994152-5.988304-5.988304-5.988304H500.77193z" fill="#131313" /><path d="M741.052632 468.584795v28.444445c0 8.982456-7.48538 17.216374-17.216375 17.216374H517.239766c-8.982456 0-17.216374-7.48538-17.216374-17.216374v-28.444445c0-8.982456 7.48538-17.216374 17.216374-17.216374h206.596491c9.730994 0 17.216374 7.48538 17.216375 17.216374z" fill="#7CB0F1" /><path d="M723.836257 528.467836H517.239766c-17.216374 0-32.187135-14.222222-32.187134-32.187134v-28.444445c0-17.216374 14.222222-32.187135 32.187134-32.187134h206.596491c17.216374 0 32.187135 14.222222 32.187135 32.187134v28.444445c0 17.964912-14.222222 32.187135-32.187135 32.187134z m-206.596491-62.128655c-0.748538 0-2.245614 0.748538-2.245614 2.245614v28.444445c0 0.748538 0.748538 2.245614 2.245614 2.245614h206.596491c0.748538 0 2.245614-0.748538 2.245614-2.245614v-28.444445c0-0.748538-0.748538-2.245614-2.245614-2.245614H517.239766z" fill="#131313" /><path d="M514.245614 478.315789m-45.660819 0a45.660819 45.660819 0 1 0 91.321638 0 45.660819 45.660819 0 1 0-91.321638 0Z" fill="#FFFFFF" /><path d="M514.245614 538.947368c-33.684211 0-60.631579-26.947368-60.631579-60.631579s26.947368-60.631579 60.631579-60.631578 60.631579 26.947368 60.631579 60.631578-26.947368 60.631579-60.631579 60.631579z m0-91.321637c-17.216374 0-30.690058 13.473684-30.690058 30.690058s13.473684 30.690058 30.690058 30.690059 30.690058-13.473684 30.690059-30.690059-14.222222-30.690058-30.690059-30.690058z" fill="#131313" /><path d="M244.77193 842.105263m-50.152047 0a50.152047 50.152047 0 1 0 100.304094 0 50.152047 50.152047 0 1 0-100.304094 0Z" fill="#FFE3A6" /><path d="M244.77193 907.22807c-35.929825 0-65.122807-29.192982-65.122807-65.122807s29.192982-65.122807 65.122807-65.122807 65.122807 29.192982 65.122807 65.122807-29.192982 65.122807-65.122807 65.122807z m0-99.555555c-19.461988 0-35.181287 15.719298-35.181287 35.181286s15.719298 35.181287 35.181287 35.181287 35.181287-15.719298 35.181286-35.181287-15.719298-35.181287-35.181286-35.181286z" fill="#131313" /></svg>