<svg width="56" height="57" viewBox="0 0 56 57" fill="none" xmlns="http://www.w3.org/2000/svg">
<rect y="0.618652" width="56" height="56" rx="4" fill="#1E60C6"/>
<path d="M20.1774 32.7194C20.0872 32.2313 19.9699 31.7523 19.9067 31.2643C19.6541 29.3573 20.0601 27.5949 21.1879 26.0222C22.0721 24.784 23.2811 23.9254 24.6706 23.3289C26.3398 22.6149 28.1353 22.2263 29.9488 22.1901C31.5638 22.145 32.9714 22.7415 34.1984 23.7537C35.4616 24.8021 36.436 26.0945 37.1849 27.5497C37.5458 28.2546 37.8796 28.9777 38.2225 29.7007C38.2586 29.782 38.2856 29.8724 38.3037 29.9628C37.8255 30.252 37.3653 30.5503 36.8781 30.8124C35.0736 31.8066 33.1247 32.4844 31.0947 32.8369C29.9849 33.0267 28.8661 33.1351 27.7473 33.2074C26.6826 33.2797 25.618 33.3159 24.5533 33.2888C23.1007 33.2526 21.6571 33.0267 20.1774 32.7194ZM22.4691 27.875C22.442 29.4657 23.7323 30.7491 25.3022 30.7672C26.818 30.7853 28.2345 29.6194 28.2345 27.9112C28.2345 26.1397 26.8721 25.019 25.3473 25.019C23.7684 25.019 22.4781 26.2934 22.4691 27.875ZM33.5578 28.7065C34.415 28.7698 35.3714 28.0558 35.3804 26.8809C35.3894 25.9048 34.6044 25.1094 33.63 25.1004H33.5939C32.6014 25.0823 31.7894 25.8776 31.7714 26.8628V26.8899C31.7714 27.9202 32.5383 28.7065 33.5578 28.7065Z" fill="white"/>
<path d="M38.3578 30.3696C38.4841 31.888 38.1052 33.2256 37.3473 34.4548C36.3187 36.1178 34.7849 37.1662 32.9804 37.826C31.1398 38.4948 29.1819 38.7569 27.233 38.6123C26.0691 38.5309 24.8962 38.3592 23.8496 37.8079C22.0451 36.8499 20.9263 35.3224 20.3398 33.3793C20.3127 33.2618 20.3037 33.1352 20.2947 33.0178C26.6556 34.4909 32.6917 33.8402 38.3578 30.3696Z" fill="white"/>
<path d="M38.0601 24.8474C38.5293 24.6757 38.5293 24.6667 38.4842 24.2238C38.4571 23.9708 38.4481 23.7177 38.5744 23.4737C38.6285 23.3742 38.6195 23.2477 38.6285 23.1302C38.6466 22.7687 38.9443 22.4885 39.3052 22.4885C39.6661 22.4885 39.9729 22.7777 39.991 23.1393C39.991 23.5008 39.7022 23.799 39.3413 23.8171C39.224 23.8261 39.1067 23.8171 38.9443 23.8171C38.9263 23.9979 38.8902 24.1606 38.9082 24.3142C38.9624 24.7571 38.8902 25.1276 38.3849 25.3174L39.4135 27.1431L37.8707 28.1011C37.221 26.5918 36.2285 25.3445 35.0376 24.2057L35.9579 23.085C36.815 23.4917 37.4556 24.1425 38.0601 24.8474ZM19.4917 30.442L17.994 29.9358C17.9218 29.032 18.1113 28.1915 18.4451 27.369L17.9218 26.5375C17.7323 26.5375 17.5428 26.5737 17.3804 26.5285C17.0195 26.4472 16.6677 26.3387 16.3338 26.2031C16.0722 26.0947 15.9549 25.7332 16.027 25.4711C16.1263 25.1547 16.424 24.9559 16.7489 24.983C17.0556 25.0101 17.3083 25.2451 17.3534 25.5524C17.3714 25.697 17.3534 25.8507 17.3534 26.0314H18.1473C18.4812 26.167 18.4631 26.5737 18.7158 26.8358C19.212 26.1851 19.6992 25.5343 20.4391 25.0734L21.1248 25.6066C20.6015 26.3297 20.0421 27.0075 19.8526 27.848C19.6631 28.6976 19.609 29.5472 19.4917 30.442Z" fill="white"/>
<path d="M25.6271 22.8138L25.3203 22.0546C26.1684 21.3767 27.1338 21.0966 28.1534 20.961C28.1714 20.6899 28.0361 20.5724 27.8286 20.4639C27.1248 20.1024 27.0075 19.2528 27.5669 18.7377C27.9008 18.4304 28.2978 18.3852 28.6947 18.5388C29.0556 18.6654 29.3083 18.9998 29.3353 19.3884C29.3985 19.8041 29.2 20.2108 28.8391 20.4187C28.7399 20.4729 28.6316 20.5181 28.5323 20.5633L28.6406 20.9068C29.5519 20.8887 30.4451 20.8977 31.3293 21.2502L31.203 22.0004C29.3353 22.0094 27.4406 21.91 25.6271 22.8138Z" fill="white"/>
</svg>
