<svg width="56" height="57" viewBox="0 0 56 57" fill="none" xmlns="http://www.w3.org/2000/svg">
<rect y="0.618652" width="56" height="56" rx="4" fill="#6FDA44"/>
<path d="M34.4835 29.7574C33.397 29.7574 32.379 29.2985 31.454 28.5515L31.6793 27.497L31.6891 27.4579C31.8896 26.3351 32.5259 24.4505 34.4835 24.4505C35.9516 24.4505 37.1458 25.6418 37.1458 27.1063C37.1408 28.5661 35.9467 29.7574 34.4835 29.7574ZM34.4835 21.7605C31.9826 21.7605 30.0447 23.3814 29.2568 26.047C28.0529 24.2455 27.1425 22.0828 26.6092 20.2617H23.9175V27.2479C23.9175 28.6247 22.7919 29.7475 21.4118 29.7475C20.0317 29.7475 18.9062 28.6247 18.9062 27.2479V20.2617H16.2143V27.2479C16.2045 30.1089 18.5389 32.4571 21.4067 32.4571C24.2746 32.4571 26.609 30.1089 26.609 27.2479V26.0763C27.1326 27.165 27.7737 28.2634 28.5519 29.2399L26.9026 36.9729H29.6579L30.852 31.3635C31.8993 32.0324 33.1032 32.4523 34.4833 32.4523C37.4343 32.4523 39.8373 30.0405 39.8373 27.0966C39.8373 24.1576 37.4343 21.7605 34.4833 21.7605H34.4835Z" fill="white"/>
</svg>
