<?xml version="1.0" encoding="utf-8"?>
<!-- Uploaded to: SVG Repo, www.svgrepo.com, Generator: SVG Repo Mixer Tools -->
<svg width="800px" height="800px" viewBox="0 -36.5 378.383 378.383" xmlns="http://www.w3.org/2000/svg"><defs><style>.a{fill:#ffffff;}.b{fill:#bdbdbd;}.c{fill:#211715;}.d{fill:#3d8dcc;}.e{fill:#85807f;}</style></defs><path class="a" d="M25.312,161.684q.279-1.614.606-3.171c.371-1.772.772-3.583,1.2-5.413-12.555-.621-20.877,9.067-19.234,19.985,1.35,8.95,3.4,23.01,4.85,32.894,5.356-1.025,12.174-2.328,20.092-3.837A32.882,32.882,0,0,1,25.7,188.8C23.427,180.509,23.791,170.512,25.312,161.684Z"/><path class="a" d="M110.088,192.259a20.855,20.855,0,0,1,1.986.915A20.193,20.193,0,0,0,114.2,192c.3-.161.6-.3.92-.45,3.971-1.8,9.151-2.432,13.225-4.15a5.362,5.362,0,0,1,4.488.142c4.8,2.425,9.709,6.761,11.417,10.251,1.042,2.116.054,5.825-1.411,7.486a146.984,146.984,0,0,1-12.489,15.361c-1.736,2.458-5.2,2.63-7.856,2.844a18.631,18.631,0,0,1-12-3.7l-4.8.088a9.008,9.008,0,0,1,.924,1.5,3.872,3.872,0,0,1-.508,3.351,3.119,3.119,0,0,1-3.858,1.172c-1.384-.487-2.9-2.3-4.314-2.684-2.6-.708-6.613-.047-9.318-.6-3.59-.737-7.712-1.643-9.273-4.958l-4.408-3.078c-.74-3.24-.05-6.62.76-9.84.8-3.15,1.81-6.43,4.17-8.66a15,15,0,0,1,7.25-3.66c3.92-.71,14.82-1.72,17.23-1.52A19.791,19.791,0,0,1,110.088,192.259Z"/><path class="a" d="M69.172,101.175A45.688,45.688,0,0,0,97,110.355c9.7-.1,16.277-3.267,21.251-10.663,21.187,5.71,30.557,15.489,33.755,36.012,1.911,12.271,2.292,25.422,2.309,38.5.006.1.009.158.009.158a59.42,59.42,0,0,1-.162,12.866c-.675,4.244-.615,6.466-3.728,9.43l-5.772,2.741a4.476,4.476,0,0,0-.411-1.611c-1.708-3.49-6.617-7.826-11.417-10.251a5.362,5.362,0,0,0-4.488-.142c-4.074,1.718-9.254,2.35-13.225,4.15-.317.149-.622.289-.92.45a20.193,20.193,0,0,1-2.129,1.175,20.135,20.135,0,0,0-7.718-2.273c-2.41-.2-13.31.81-17.23,1.52a15,15,0,0,0-7.25,3.66c-2.36,2.23-3.37,5.51-4.17,8.66-.81,3.22-1.5,6.6-.76,9.84l-5.814,3.5c-14.445,0-28.036-6.47-35.694-15.23A33.372,33.372,0,0,1,25.7,188.8c-2.55-9.3-1.782-20.747.218-30.283,2.256-10.758,5.589-22.98,10.122-31.7,7.385-14.208,18.524-19.354,32.8-25.519"/><path class="a" d="M110.805,106.991c-3.777,2.259-8.286,3.309-13.8,3.364a45.683,45.683,0,0,1-27.832-9.182,25.007,25.007,0,0,0,3.573-2.21,6.7,6.7,0,0,0,2.43-3.2,53.486,53.486,0,0,0,1.981-9.386,44.082,44.082,0,0,0,7.268,4.763,49.215,49.215,0,0,0,10.085,3.449c1.19.227,2.41.4,3.675.511a26.991,26.991,0,0,0,13.929-2.189,6.488,6.488,0,0,0,.994,3.615,9.335,9.335,0,0,0,5.092,3.244A23.483,23.483,0,0,1,110.805,106.991Z"/><path class="a" d="M84.422,91.139a49.215,49.215,0,0,0,10.085,3.449c1.19.227,2.41.4,3.675.511a27,27,0,0,0,20.6-6.4c5.884-4.807,8.449-12.394,9.376-20.784.535-4.838,1-10.1,1.7-15.351,0,0,6.318-22.228-17.842-22.228-42.509,0-48.579,24.318-48.579,24.318a5.326,5.326,0,0,0-3.846-.85,4.811,4.811,0,0,0-4,2.752c-1.164,2.562-.586,6.957.708,9.571a13.946,13.946,0,0,0,5.267,6.208,10.154,10.154,0,0,0,5.487,1.134c.248.515.406.846.406.846.6,1.259,2.029,3.464,2.029,3.464a44.609,44.609,0,0,0,4.957,6.208,43.061,43.061,0,0,0,9.978,7.155"/><path class="a" d="M328.6,131.38a47.509,47.509,0,0,0,10.614-26.639,48.158,48.158,0,0,0-5.578-25.257c-9.477-17.387-21.7-21.423-29.31-23.138a48.551,48.551,0,0,0-22.146.481c-14.568,3.529-22.016,12.866-23.338,14.977a33.466,33.466,0,0,0-5.488,14.264,47.655,47.655,0,0,0-1.1,8.144c-.792,6.167-1.867,14.724-7.825,17.232a5.789,5.789,0,0,0-2.885,2.38c-1.657,2.945.86,4.587,2.329,6.522a9.52,9.52,0,0,1,1.757,4.224,59.037,59.037,0,0,0,.381,9.035,25.038,25.038,0,0,0,1.428,6.173,11.865,11.865,0,0,0,5.912,6.635c4.514,2.173,10.862,3.413,15.12,2.7a2.065,2.065,0,0,1,2.31,1.45,54.983,54.983,0,0,1,2.695,6.968l.088.3a46.881,46.881,0,0,1,14.317-6.988,85.767,85.767,0,0,1,24.016-3.668c.185,0,.368,0,.548.019,2.611-3.707,7.341-6.985,10.319-9.652A52.455,52.455,0,0,0,328.6,131.38Z"/><path class="b" d="M281.851,98.429a49.1,49.1,0,0,1-.036,11.14c.852.17,3.89.957,4.742,1.126l.611.121a6.7,6.7,0,0,1,2.852-.958,5.919,5.919,0,0,1,4.845,1.486c1.808,1.767,2.288,4.984,1.794,7.5a14.893,14.893,0,0,1-6.785,10.274c.172.9.311,1.614.311,1.614a25.921,25.921,0,0,0,5.018,11.1c2.494,2.827,9.26,5.367,13.427,6.3l2.839.677c2.2-4.38,7.894-8.227,11.3-11.276,6.112-5.476,15.3-16.426,16.447-32.8a48.158,48.158,0,0,0-5.578-25.257c-8.5-15.584-19.2-20.443-26.8-22.518-.88-.24-1.719-.442-2.508-.62a48.551,48.551,0,0,0-22.146.481c-14.568,3.529-22.016,12.866-23.338,14.977a34.186,34.186,0,0,0-4.655,10.187l.287.357a14.218,14.218,0,0,0,4.664,3.118c6.04,2.84,13.482,6.811,19.4,9.668a6.425,6.425,0,0,1,2.084,1.374,4.718,4.718,0,0,1,1.144,2.6,43.36,43.36,0,0,1,.049,10.457c.852.17,3.89.957,4.742,1.126"/><path class="c" d="M275.407,157a51.975,51.975,0,0,0-1.81-4.972q-.38-.9-.781-1.794c-.067-.148-.13-.3-.2-.444-.19-.38.277.668-.026-.076-1.5-3.68-5.6-2.229-8.67-2.479a27.241,27.241,0,0,1-9.554-2.547,10.62,10.62,0,0,1-5.382-6.51,37.956,37.956,0,0,1-1.386-11.259,11.156,11.156,0,0,0-3.313-9.172c-.669-.757-1.57-1.6-1.138-2.68.559-1.4,2.212-1.741,3.373-2.444a13.341,13.341,0,0,0,5.174-6.54c2.816-6.783,2.146-14.3,4.048-21.3.676-2.487-3.181-3.549-3.857-1.063-1.739,6.4-1.331,13.156-3.375,19.489-.752,2.328-1.945,4.765-4.138,6.038-1.451.843-2.878,1.372-3.966,2.742a5.773,5.773,0,0,0-1.272,4.8c.688,3.1,4.118,4.63,4.493,7.907.184,1.607-.031,3.341.052,4.966a54.432,54.432,0,0,0,.635,6.055,18.273,18.273,0,0,0,4.36,9.732c2.2,2.34,5.276,3.579,8.295,4.484a27.549,27.549,0,0,0,11.192,1.233c.794-.1.6-.276.923.475.151.343.312.683.464,1.025a46.8,46.8,0,0,1,2,5.4c.748,2.456,4.61,1.409,3.857-1.063Z"/><path class="c" d="M255.239,86.884a33.309,33.309,0,0,1,2.792-9.6,46.888,46.888,0,0,1,2.337-4.146c.159-.256.319-.51.491-.758.108-.154.6-.8.267-.373a36.039,36.039,0,0,1,10.024-8.583,46.22,46.22,0,0,1,39.1-3.254c11.41,4.3,20.247,14.854,24.293,26.257a44.762,44.762,0,0,1,2,23.42,46.326,46.326,0,0,1-7.717,17.929,56.517,56.517,0,0,1-10.62,10.986,41.237,41.237,0,0,0-7.185,7,12.151,12.151,0,0,0-2.428,8.072,44.636,44.636,0,0,0,.394,4.7,2.011,2.011,0,0,0,2.46,1.4,2.053,2.053,0,0,0,1.4-2.46,34.621,34.621,0,0,1-.267-4.631,5.467,5.467,0,0,1,.737-3.262c1.567-2.907,4.253-5.12,6.755-7.2a67.1,67.1,0,0,0,11.573-11.708,48.788,48.788,0,0,0,7.546-42.891c-3.827-12.838-13.017-25.031-25.481-30.492a50.307,50.307,0,0,0-40.84.7c-9.554,4.446-17.253,12.126-20.305,22.355a41.671,41.671,0,0,0-1.186,5.47,2.065,2.065,0,0,0,1.4,2.46,2.017,2.017,0,0,0,2.461-1.4Z"/><path class="c" d="M287.306,113.143c1.924-1.554,5.283-2.1,6.73.376,1.345,2.294.8,5.144-.044,7.5-1.714,4.791-5.954,7.435-10.694,8.641-2.494.633-1.437,4.492,1.063,3.857,5.079-1.291,9.8-4.072,12.337-8.8s3.7-12.66-1.827-15.859c-3.459-2-7.472-.9-10.394,1.458a2.012,2.012,0,0,0,0,2.828,2.047,2.047,0,0,0,2.829,0Z"/><path class="c" d="M254.861,102.735c-.876,1.713-1.33,5.947,1.863,6.915,4.315.784,5.51-4.213,4.513-6.856C260.421,100.63,257.083,99.166,254.861,102.735Z"/><path class="c" d="M288.256,131.266a26.953,26.953,0,0,0,2.512,7.319,16.519,16.519,0,0,0,4.057,5.639,25.585,25.585,0,0,0,6.44,3.617,42.153,42.153,0,0,0,6.834,2.225c2.506.573,3.576-3.283,1.063-3.857a41.491,41.491,0,0,1-6.194-1.962,29.614,29.614,0,0,1-2.862-1.334,20.249,20.249,0,0,1-2.453-1.518,13.375,13.375,0,0,1-3.432-4.829,23.337,23.337,0,0,1-2.108-6.363,2.015,2.015,0,0,0-2.46-1.4,2.047,2.047,0,0,0-1.4,2.46Z"/><path class="c" d="M246.026,130.383a24.759,24.759,0,0,0,7.517.62,2,2,0,1,0,0-4,24.1,24.1,0,0,1-4.978-.178l.531.071c-.674-.094-1.345-.211-2.007-.37a2,2,0,0,0-1.063,3.857Z"/><path class="c" d="M253.06,83.762c2.226,2.555,5.8,3.753,8.761,5.215,3.274,1.615,6.521,3.286,9.778,4.935q2.25,1.138,4.51,2.257c1.494.734,3.305,1.232,3.666,3.068a36.272,36.272,0,0,1,.04,10.332,2,2,0,0,0,1.468,1.929c1.591.332,3.152.794,4.743,1.126,2.512.523,3.586-3.331,1.063-3.857-1.59-.332-3.152-.794-4.742-1.126l1.468,1.928a37.216,37.216,0,0,0-.183-11.4c-.867-3.945-4.9-5.142-8.1-6.748-3.391-1.7-6.763-3.442-10.157-5.138q-2.425-1.212-4.874-2.38a13.594,13.594,0,0,1-4.616-2.973c-1.694-1.945-4.513.894-2.828,2.828Z"/><path class="c" d="M155.744,295.751c5.142-1.473,10.231-3.154,15.334-4.755q14.475-4.542,28.941-9.115l17.942-5.663c2.446-.772,1.4-4.635-1.063-3.857-18.66,5.889-37.308,11.814-55.992,17.626-2.072.645-4.14,1.309-6.226,1.907-2.47.707-1.42,4.568,1.064,3.857Z"/><path class="c" d="M254.23,270.26c-.905,11.054-1.655,22.117-3.122,33.115a2.01,2.01,0,0,0,2,2,2.051,2.051,0,0,0,2-2c1.467-11,2.217-22.061,3.122-33.115.21-2.565-3.791-2.552-4,0Z"/><path class="d" d="M299.614,158.118a115.6,115.6,0,0,1,18.75-1.96c1.27.185,2.277.329,2.277.329,3.4.486,8.28,2.766,9.728,3.573,7.873,4.392,14.627,11.691,19.208,19.229-22.268,6.48-50.588,14.737-70.8,20.568-7.744,2.234-12.675,9.317-13.112,17.364-.881,16.212-1.552,32.776-2.258,48.348-.2.183-12.545,12.02-16.159,14.423-5.937,3.915-12.42,7.352-19.264,6.759-2.2-.191-6.731-1.454-8.689-2.794a17.356,17.356,0,0,1-7.144-11.331c-1.718-9.8,1.842-19.731,5.426-29.036,5.2-13.5,19.333-42.381,25.949-56.249a41.8,41.8,0,0,1,19.832-18.19A162.587,162.587,0,0,1,299.614,158.118Z"/><path class="a" d="M217.619,228.871a9.609,9.609,0,0,0-4.312,2.891,14.5,14.5,0,0,0-3.068,9.057,45.36,45.36,0,0,0,1.164,9.66,4,4,0,0,1-.272,3.139l2.583,1.088c1.074-3.771,2.467-7.491,3.863-11.116,1.446-3.752,3.581-8.692,6.052-14.167A7.271,7.271,0,0,0,217.619,228.871Z"/><path class="a" d="M266.96,164.31a19.818,19.818,0,0,0-2.39,4.3c15.414-6.731,36.833-12.2,53.6-12.449-.13-.62-.218-1.055-.218-1.055l-.852-4.223a5.056,5.056,0,0,0-5.2-3.712,85.767,85.767,0,0,0-24.016,3.668C280.2,153.075,271.638,157.839,266.96,164.31Z"/><path class="c" d="M357.2,228.013a75.237,75.237,0,0,0-.284-37.113,57.168,57.168,0,0,0-19.594-28.569c-4.628-3.607-10.263-6.852-16.146-7.773a2.063,2.063,0,0,0-2.46,1.4,2.015,2.015,0,0,0,1.4,2.46,32.124,32.124,0,0,1,13.2,5.88,52.488,52.488,0,0,1,12.023,12.2,50.867,50.867,0,0,1,7.29,14.046,62.519,62.519,0,0,1,2.711,16.908,67.416,67.416,0,0,1-2,19.5c-.66,2.491,3.2,3.554,3.857,1.064Z"/><path class="c" d="M319.884,154.574c-.5-2.485-.664-5.382-2.555-7.268a7.905,7.905,0,0,0-5.668-2.135,71.383,71.383,0,0,0-8.6.523c-9.992,1.175-20.326,3.63-28.823,9.233a31.168,31.168,0,0,0-10.577,10.89c-1.22,2.267,2.232,4.289,3.454,2.019,3.772-7.011,11.378-11.61,18.677-14.218a80.4,80.4,0,0,1,14.01-3.46,74.679,74.679,0,0,1,7.549-.849q1.791-.111,3.587-.134a6.112,6.112,0,0,1,2.578.3c2.146.929,2.107,4.179,2.507,6.161.508,2.521,4.365,1.454,3.857-1.064Z"/><path class="a" d="M262.52,283.824c1.087-20.419,1.909-43.859,3.145-66.6.437-8.047,5.368-15.13,13.112-17.364,22.993-6.633,56.481-16.407,79.613-23.131,9.024-2.623,18.264,4.2,17.972,13.59-.477,15.369-3.422,35.314-4.882,50.4"/><path class="c" d="M264.52,283.824c.989-18.634,1.679-37.282,2.594-55.92.364-7.417-.362-15.808,5.059-21.678a17.214,17.214,0,0,1,8.294-4.775q5.282-1.524,10.562-3.055,23.4-6.78,46.8-13.6c7.184-2.091,14.348-4.449,21.6-6.275a12.185,12.185,0,0,1,14.384,7.828c1.071,3.378.443,7.221.213,10.693-.281,4.242-.671,8.476-1.105,12.705-.862,8.4-1.919,16.769-2.837,25.158q-.318,2.907-.6,5.817a2.015,2.015,0,0,0,2,2,2.043,2.043,0,0,0,2-2c.837-8.6,1.934-17.166,2.882-25.75.484-4.38.937-8.763,1.3-13.154a108.462,108.462,0,0,0,.695-12.371A15.989,15.989,0,0,0,365.9,174.56c-3.75-.824-7.124-.028-10.725,1.019l-11.138,3.241q-24.312,7.076-48.625,14.142-5.691,1.65-11.384,3.3c-3.5,1.012-7.219,1.77-10.378,3.657a20.14,20.14,0,0,0-7.249,7.557,24.965,24.965,0,0,0-2.8,10.959c-1.05,19.586-1.773,39.187-2.74,58.777q-.163,3.307-.339,6.615c-.136,2.573,3.864,2.565,4,0Z"/><path class="c" d="M241.069,187.862c-4.525,9.45-9.092,18.881-13.544,28.366-4.283,9.128-8.606,18.282-12.212,27.7-4.533,11.846-10.151,28.584-.025,39.224,3.678,3.864,9.536,5.814,14.823,5.653,6.634-.2,13.026-3.508,18.364-7.239a95.774,95.774,0,0,0,9.735-8.381q3.334-3.075,6.612-6.211c1.861-1.786-.97-4.612-2.829-2.829-4.537,4.351-9.1,8.723-13.951,12.73-.574.475-.974.8-1.287,1.023-1.014.727-2.081,1.387-3.148,2.034a36.765,36.765,0,0,1-8.617,4.04,17.183,17.183,0,0,1-8.1.6,18.486,18.486,0,0,1-6.588-2.345c-5.163-3.439-6.715-9.741-6.592-15.588.146-6.868,2.4-13.518,4.79-19.888,3.341-8.906,7.357-17.545,11.378-26.16,4.8-10.278,9.744-20.484,14.642-30.714,1.106-2.31-2.342-4.342-3.454-2.018Z"/><path class="c" d="M222.555,226.805c-5.9-1.5-11.166,2.567-13.2,7.9a20.34,20.34,0,0,0-1.037,8.789c.135,1.717.4,3.425.7,5.119.186,1.034.977,3.031.381,4-1.354,2.2,2.1,4.209,3.454,2.019,1.445-2.344.321-5.31-.1-7.8a24.3,24.3,0,0,1-.3-8.316c.763-4.233,4.095-9.1,9.036-7.848,2.5.634,3.561-3.223,1.064-3.857Z"/><path class="c" d="M245.034,188.724a43.505,43.505,0,0,1,9.489-11.744,48.011,48.011,0,0,1,13.126-7.518,160.843,160.843,0,0,1,32.836-9.476,110.49,110.49,0,0,1,18.324-1.833c2.573-.024,2.579-4.024,0-4-11.676.111-23.373,2.334-34.593,5.455a159.249,159.249,0,0,0-16.566,5.565A58.362,58.362,0,0,0,253.107,173a46.159,46.159,0,0,0-11.527,13.7c-1.276,2.24,2.179,4.258,3.454,2.019Z"/><path class="c" d="M162.964,177.114q19.981-3.809,39.962-7.619h-1.064q19.105,5.281,38.21,10.56c2.484.691,3.544-3.167,1.064-3.857q-14.315-3.982-28.642-7.918l-7.129-1.968a8.809,8.809,0,0,0-3.5-.674c-1.308.208-2.608.5-3.909.744q-8.005,1.522-16.01,3.052L161.9,173.257c-2.526.481-1.456,4.337,1.063,3.857Z"/><path class="c" d="M2.506,209.968q14.7-2.809,29.4-5.62c2.526-.482,1.457-4.338-1.063-3.857q-14.7,2.8-29.4,5.62c-2.525.482-1.456,4.338,1.064,3.857Z"/><path class="c" d="M19.334,152.047A19.336,19.336,0,0,0,5.788,168.4c-.415,3.734.523,7.557,1.069,11.238q.947,6.37,1.879,12.741,1.036,7.065,2.071,14.129a2.014,2.014,0,0,0,2.461,1.4,2.051,2.051,0,0,0,1.4-2.46q-1.719-11.716-3.44-23.433c-.967-6.537-3.036-13.545.678-19.6a15.417,15.417,0,0,1,8.5-6.51c2.44-.786,1.4-4.65-1.064-3.857Z"/><path class="e" d="M128.461,27.265a30.154,30.154,0,0,0-5.737-10.75,28.131,28.131,0,0,0-5.852-5.976C110.12,4.987,102.244,2.383,91.9,2,83.934,1.708,72.119,3.7,61.377,15.34c-4.926,5.6-6.96,9.409-8.522,16.056a50.539,50.539,0,0,0-1.223,12.558c.277,3.467.97,10.522,2.986,14.736l.972-2.137a4.811,4.811,0,0,1,4-2.752,5.326,5.326,0,0,1,3.846.85l7.089-.014c1.63-3.031,11.1-14.369,19.738-17.989.7-.294,1.556.227,1.751,1.271a6.051,6.051,0,0,1-.018,2.464A1.392,1.392,0,0,0,93.916,41.9c4.337-1.768,12.1-5.4,17.53-7l.74-.218a10.7,10.7,0,0,1,3.33.167,33.6,33.6,0,0,1,5.242,1.739c3.537,1.476,8.471,8.088,8.715,14.333l.1,2.617a61.813,61.813,0,0,0,.147-21.142A48.658,48.658,0,0,0,128.461,27.265Z"/><path class="c" d="M109.488,221.514a21.321,21.321,0,0,0,16.819,3.537,9.935,9.935,0,0,0,3.88-1.5,21.59,21.59,0,0,0,3.381-3.461c1.8-2,3.553-4.037,5.217-6.15,1.882-2.39,3.662-4.854,5.5-7.274a10.724,10.724,0,0,0,2.323-7.7c-.346-2.874-2.608-5.351-4.6-7.285a33.159,33.159,0,0,0-7.8-5.681,7.815,7.815,0,0,0-5.587-.8c-1.741.439-3.415,1.229-5.16,1.707-3.486.956-7.24,1.631-10.415,3.447-2.234,1.278-.221,4.735,2.019,3.454,2.365-1.352,5.182-1.921,7.793-2.6,1.241-.324,2.483-.649,3.706-1.039,1.332-.424,2.818-1.351,4.255-1.182a9.276,9.276,0,0,1,3.522,1.714,29.935,29.935,0,0,1,3.327,2.437c1.761,1.494,4.008,3.431,4.86,5.662.685,1.8-.338,4.058-1.411,5.467-1.532,2.013-3.008,4.066-4.555,6.067q-2.165,2.8-4.506,5.451-1.226,1.392-2.484,2.755a6.831,6.831,0,0,1-2.688,2.238,16.392,16.392,0,0,1-7.349.624,17.343,17.343,0,0,1-8.026-3.343,2.013,2.013,0,0,0-2.736.717,2.05,2.05,0,0,0,.717,2.737Z"/><path class="c" d="M121,201.221a11.265,11.265,0,0,0,1.731-.539,11.722,11.722,0,0,0,1.921-.936,2.1,2.1,0,0,0,.92-1.2,2.047,2.047,0,0,0-.2-1.541,2,2,0,0,0-2.736-.718,8.914,8.914,0,0,1-1.316.682l.478-.2a11.292,11.292,0,0,1-1.859.592,2,2,0,0,0-.478,3.655,2.169,2.169,0,0,0,1.541.2Z"/><path class="c" d="M57.617,159.754c-1.723,6.459-3.138,13.03-2.523,19.737.308,3.371.95,6.38,3.044,9.142,2.474,3.262,5.885,4.992,9.575,6.561a53.506,53.506,0,0,0,10.3,3.15c2.513.514,3.588-3.34,1.063-3.857A51.62,51.62,0,0,1,71,192.24c-3.134-1.194-6.493-2.526-8.837-5.007a11.8,11.8,0,0,1-3.035-7.413,34.156,34.156,0,0,1,.015-7.957,89.758,89.758,0,0,1,2.334-11.046c.665-2.49-3.193-3.552-3.857-1.063Z"/><path class="c" d="M67.831,99.568c-8.848,3.823-17.885,7.792-24.915,14.58-7.869,7.6-11.967,17.975-15.036,28.265-3.409,11.434-6.218,23.5-5.749,35.5A45.829,45.829,0,0,0,25.7,194.732a38.161,38.161,0,0,0,9.262,12.524c9.2,8.363,21.809,12.772,34.167,12.826,2.574.011,2.577-3.989,0-4A48.178,48.178,0,0,1,40,206.3a37.038,37.038,0,0,1-9.507-10.9,36.455,36.455,0,0,1-4.208-14.873c-.948-11.406,1.484-22.726,4.484-33.666,2.7-9.853,6.1-20.214,13.087-27.928,6.965-7.691,16.651-11.866,25.991-15.9a2.013,2.013,0,0,0,.718-2.736,2.053,2.053,0,0,0-2.737-.718Z"/><path class="c" d="M124.157,103.613a42.737,42.737,0,0,1,14.584,8.249,32.471,32.471,0,0,1,8.407,12.676c2.48,6.628,3.381,13.751,4.047,20.757.836,8.792,1.069,17.631,1.114,26.459.025,4.819.641,9.67,0,14.474a42.624,42.624,0,0,1-.861,5.113,8.252,8.252,0,0,1-2.423,3.907c-1.845,1.8.984,4.628,2.829,2.828a13.752,13.752,0,0,0,3.964-8.461,65.415,65.415,0,0,0,.622-13.34c-.251-4.6-.144-9.225-.265-13.834-.123-4.688-.336-9.374-.707-14.049-1.058-13.333-2.767-28.032-12.569-38.075-4.877-5-11.167-8.225-17.675-10.561-2.428-.871-3.473,2.992-1.064,3.857Z"/><path class="c" d="M129.733,135.6c-.622,14.113-.844,28.238-1.431,42.351-.107,2.574,3.894,2.569,4,0,.587-14.113.809-28.238,1.431-42.351.113-2.573-3.887-2.568-4,0Z"/><path class="c" d="M68.162,102.9a47.021,47.021,0,0,0,23.212,9.145c7.029.831,14.812.259,20.925-3.627a27.144,27.144,0,0,0,8.08-8.326c1.405-2.166-2.057-4.173-3.454-2.019a21.234,21.234,0,0,1-13.989,9.734c-7.063,1.4-14.709.267-21.421-2.142a41.5,41.5,0,0,1-11.334-6.219,2.011,2.011,0,0,0-2.736.717,2.052,2.052,0,0,0,.717,2.737Z"/><path class="c" d="M69.267,103.353c2.713-1.309,5.9-3.035,7.323-5.826a22.247,22.247,0,0,0,1.54-5.1c.361-1.574.629-3.165.852-4.765a2.07,2.07,0,0,0-1.4-2.46,2.014,2.014,0,0,0-2.46,1.4c-.2,1.453-.44,2.9-.755,4.333-.166.754-.351,1.5-.549,2.249q-.167.625-.344,1.247c-.063.222-.125.446-.193.667-.01.033-.172.5-.056.223-.92,2.185-3.8,3.532-5.98,4.582a2.018,2.018,0,0,0-.718,2.736,2.043,2.043,0,0,0,2.737.718Z"/><path class="c" d="M110.12,93.784a9.788,9.788,0,0,0,.98,3.255,7.093,7.093,0,0,0,1.58,2,13.467,13.467,0,0,0,4.988,2.659,2.015,2.015,0,0,0,2.46-1.4,2.048,2.048,0,0,0-1.4-2.461c-.541-.181-1.079-.371-1.606-.592l.478.2a9.465,9.465,0,0,1-2-1.137l.4.313a7.886,7.886,0,0,1-1.358-1.35l.313.405a5.031,5.031,0,0,1-.6-1.091l.2.477a7.024,7.024,0,0,1-.494-1.71l.071.532-.013-.1a2.186,2.186,0,0,0-.586-1.414,2,2,0,0,0-2.828,0,1.915,1.915,0,0,0-.586,1.414Z"/><path class="c" d="M56.576,58.141c-1.991-3.875-2.447-8.638-2.836-12.917a42.386,42.386,0,0,1,1.044-13.3,31.451,31.451,0,0,1,5.692-12.395A42.009,42.009,0,0,1,72.867,8.615C80.393,4.335,88.85,3.3,97.341,4.439a35.12,35.12,0,0,1,24.51,14.155c3.566,4.6,5.413,10.325,6.23,16.033a57.411,57.411,0,0,1-.447,18.455c-.472,2.516,3.382,3.594,3.857,1.063,2.1-11.185,1.689-24.272-4.074-34.379A39.158,39.158,0,0,0,102.127,1.25C92.741-.837,82.94-.457,74.106,3.507,64.25,7.929,55.311,16.8,51.94,27.18a48.168,48.168,0,0,0-1.861,8.57,40.215,40.215,0,0,0-.428,8.439c.424,5.343.987,11.136,3.471,15.97,1.178,2.291,4.63.269,3.454-2.018Z"/><path class="c" d="M131.473,50.923a20.228,20.228,0,0,0-3.4-9.964c-1.543-2.368-3.645-4.945-6.309-6.1a2.066,2.066,0,0,0-2.737.717,2.016,2.016,0,0,0,.718,2.737,7.636,7.636,0,0,1,1.331.749c.111.077.22.157.328.238-.228-.172-.075-.057.058.057.249.214.494.431.731.659a15.1,15.1,0,0,1,2.426,2.958,19.771,19.771,0,0,1,1.935,3.758,17.332,17.332,0,0,1,.634,2.128,9.153,9.153,0,0,1,.281,2.059,2.043,2.043,0,0,0,2,2,2.019,2.019,0,0,0,2-2Z"/><path class="c" d="M110.914,32.974A111.292,111.292,0,0,0,99.1,37.53c-1.734.743-3.461,1.508-5.2,2.231a3.3,3.3,0,0,0-.515.212c.019-.054,1.314.774.553.487.14.053-.165.624.083-.166a3.811,3.811,0,0,0,.1-.859,5.825,5.825,0,0,0-.6-3.141c-2.362-4-7.812.349-10.265,2.161a62.794,62.794,0,0,0-8.784,7.953,38.653,38.653,0,0,0-5.674,7.22c-1.242,2.257,2.211,4.277,3.453,2.019a30.968,30.968,0,0,1,4.291-5.576,61.842,61.842,0,0,1,8.133-7.711,33.982,33.982,0,0,1,4.546-3c.386-.209.777-.41,1.174-.6.077-.036.4-.131.439-.2.214-.367-.709-.177-.7-.189-.039.04-.175,1.972-.169,2.321a3.444,3.444,0,0,0,4.482,3.133,53.123,53.123,0,0,0,4.948-2.1,116.316,116.316,0,0,1,12.582-4.9c2.459-.738,1.412-4.6-1.064-3.857Z"/><path class="c" d="M101.485,219.014a6.213,6.213,0,0,1,2.919,2.493c.489.773.61,2.181-.489,2.575-1.136.407-2.424-1.028-3.229-1.618a7.924,7.924,0,0,0-4.085-1.49c-2.959-.318-5.878.078-8.808-.574-2.53-.564-5.446-1.249-6.712-3.751-1.163-2.3-4.615-.275-3.454,2.019,1.81,3.577,5.789,4.873,9.447,5.664a27.737,27.737,0,0,0,6.052.53c1.781-.006,3.726-.215,5.25.843,1.7,1.185,3.117,2.481,5.341,2.422a5.156,5.156,0,0,0,4.68-3.573c1.6-4.164-2.206-8.018-5.849-9.4a2.015,2.015,0,0,0-2.46,1.4,2.044,2.044,0,0,0,1.4,2.46Z"/><path class="c" d="M123.406,205.851c.215-5.736-4.513-10.852-9.084-13.693a22.09,22.09,0,0,0-13-3.211c-3.919.207-7.841.59-11.731,1.1-4.858.638-9.569,2.195-12.6,6.324a22.75,22.75,0,0,0-3.28,8.068c-.878,3.52-1.448,7.075-.7,10.672.522,2.519,4.379,1.453,3.857-1.063a18.091,18.091,0,0,1,.533-7.852,24.974,24.974,0,0,1,2.213-6.514c2.062-3.672,6.037-5.1,9.991-5.637,3.28-.446,6.724-.766,10.078-1,3.415-.235,6.49-.216,9.75,1.093,4.464,1.792,10.166,6.4,9.967,11.71-.1,2.574,3.9,2.57,4,0Z"/><path class="c" d="M104.326,203.03a23.854,23.854,0,0,1,4.028,1.006c.267.094.531.193.794.3.136.055.377.162.111.044q.2.09.405.183.764.356,1.491.782c.42.247.83.513,1.224.8.017.013.383.3.144.105s.079.068.127.108c.172.143.341.291.5.444a12.99,12.99,0,0,1,2.086,2.5,2,2,0,1,0,3.454-2.019,17.288,17.288,0,0,0-5.383-5.307,22.39,22.39,0,0,0-7.922-2.8,2.051,2.051,0,0,0-2.461,1.4,2.024,2.024,0,0,0,1.4,2.46Z"/><path class="c" d="M104.526,211.533c.082.006.163.014.244.021.349.026-.1-.039-.183-.027a1.657,1.657,0,0,1,.509.1,9.184,9.184,0,0,1,1.1.325c.089.032.176.067.265.1.328.12-.333-.15-.107-.048.178.08.355.159.529.246q.561.278,1.091.61c.17.107.337.217.5.332.082.057.164.116.245.175.256.188.029.063-.07-.058a11.012,11.012,0,0,0,.9.784c.294.285.558.591.824.9.155.18-.3-.418-.07-.09.053.077.109.152.161.229.114.167.22.339.321.514a2,2,0,0,0,3.454-2.019,12.534,12.534,0,0,0-4.248-4.222,11.948,11.948,0,0,0-5.467-1.871,2.011,2.011,0,0,0-2,2,2.048,2.048,0,0,0,2,2Z"/><path class="c" d="M96.014,60.9c.464-1.713-.009-5.6-3.23-5.822-4.243.17-4.309,4.891-2.805,7.058C91.21,63.914,94.675,64.551,96.014,60.9Z"/><path class="c" d="M121.235,60.837c.424-1.718-.01-5.618-2.96-5.842-3.885.17-3.944,4.906-2.567,7.081C116.836,63.857,120.009,64.5,121.235,60.837Z"/><path class="c" d="M104.958,66.643a28.987,28.987,0,0,1,1.656,3.076l-.2-.478a1.891,1.891,0,0,1,.132.448l-.071-.532a1.272,1.272,0,0,1,0,.185l.071-.532a.767.767,0,0,1-.044.171l.2-.477a.53.53,0,0,1-.061.1l.313-.405a2.065,2.065,0,0,1-.291.27l.405-.312a1.936,1.936,0,0,1-.349.2l.478-.2a1.9,1.9,0,0,1-.418.112l.531-.072c-.328.042-.652.071-.981.119a1.993,1.993,0,0,0-1.195.919,2,2,0,0,0,.717,2.737l.478.2a2,2,0,0,0,1.063,0l.042-.006-.532.072a8.9,8.9,0,0,0,1.142-.152,3.8,3.8,0,0,0,1.571-.9,2.6,2.6,0,0,0,.86-1.978,4.115,4.115,0,0,0-.524-1.76c-.466-.97-.993-1.912-1.542-2.836a2.071,2.071,0,0,0-1.2-.919,2,2,0,0,0-2.259,2.938Z"/><path class="c" d="M64.443,52.924A7.723,7.723,0,0,0,55.7,53.3c-2.028,1.571-2.7,4.1-2.733,6.572-.066,5.431,2.83,11.48,7.658,14.221a10.544,10.544,0,0,0,9.284.587,2.015,2.015,0,0,0,.717-2.736,2.047,2.047,0,0,0-2.736-.718,5.468,5.468,0,0,1-3.4.065,6.1,6.1,0,0,1-2.818-1.3,12.629,12.629,0,0,1-3.975-5.713c-.7-2.048-1.215-5.034-.261-6.945a4.174,4.174,0,0,1,.308-.509c-.245.353.088-.091.137-.138a2.733,2.733,0,0,1,1.062-.676,3.734,3.734,0,0,1,3.49.365,2,2,0,0,0,2.019-3.454Z"/><path class="c" d="M85.431,89.412a38.64,38.64,0,0,1-9.417-6.688A35.378,35.378,0,0,1,69.185,73.3a2.02,2.02,0,0,0-2.737-.718,2.041,2.041,0,0,0-.717,2.736,33.942,33.942,0,0,0,2.885,4.7,41.39,41.39,0,0,0,4.57,5.531,43.1,43.1,0,0,0,10.226,7.313c2.28,1.19,4.3-2.26,2.019-3.454Z"/><path class="c" d="M127.854,52.561c-.717,5.465-1.1,10.971-1.827,16.433a34.7,34.7,0,0,1-3.8,12.455c-4.271,7.582-13.044,11.911-21.6,11.779a37.947,37.947,0,0,1-15.2-3.816,2.059,2.059,0,0,0-2.736.718,2.016,2.016,0,0,0,.717,2.736c9.392,4.309,19.984,6.192,29.705,1.773a28.044,28.044,0,0,0,11.206-9.03A33.018,33.018,0,0,0,129.5,72.432c1.216-6.546,1.487-13.272,2.353-19.871a2.01,2.01,0,0,0-2-2,2.052,2.052,0,0,0-2,2Z"/><path class="c" d="M87.2,50.888l-2.089,1.924a1.5,1.5,0,0,0-.414.643,1.814,1.814,0,0,0,0,1.542,1.5,1.5,0,0,0,.414.643,2.012,2.012,0,0,0,1.414.586l.532-.071a1.992,1.992,0,0,0,.882-.515l2.089-1.923a1.934,1.934,0,0,0,.414-2.185,1.509,1.509,0,0,0-.414-.644,2.009,2.009,0,0,0-1.414-.585l-.532.071a2,2,0,0,0-.882.514Z"/><path class="c" d="M107.6,78.236a13.056,13.056,0,0,0-5.455-1.258,14.514,14.514,0,0,0-5.314.959A2,2,0,1,0,97.9,81.794a18.261,18.261,0,0,1,2.272-.695c.162-.034.333-.046.493-.087-.093.024-.425.047-.147.022.11-.01.22-.021.33-.029.387-.029.775-.038,1.163-.03s.747.031,1.118.069c.07.007.479.058.15.014-.3-.04.017,0,.078.015q.27.044.538.1a10.575,10.575,0,0,1,1.077.279c.175.056.345.129.519.184.235.074-.361-.186-.155-.065.078.046.17.081.251.121a2,2,0,1,0,2.019-3.454Z"/></svg>