<!DOCTYPE svg PUBLIC "-//W3C//DTD SVG 1.1//EN" "http://www.w3.org/Graphics/SVG/1.1/DTD/svg11.dtd">
<!-- Uploaded to: SVG Repo, www.svgrepo.com, Transformed by: SVG Repo Mixer Tools -->
<svg width="800px" height="800px" viewBox="0 -54.7 299.821 299.821" xmlns="http://www.w3.org/2000/svg" fill="#000000" stroke="#000000">

<g id="SVGRepo_bgCarrier" strokeWidth="0"/>

<g id="SVGRepo_tracerCarrier" stroke-linecap="round" strokeLinejoin="round"/>

<g id="SVGRepo_iconCarrier">

<defs>

<style>.a{fill:#ffffff;}.b{fill:#cfcfcf;}.c{fill:#211715;}</style>

</defs>

<path class="a" d="M32.384,102.987c-.012-28.959-.027-67.343-.036-91.845a8.675,8.675,0,0,1,8.678-8.679c37.39-.011,145.732-.048,190.065-.064a8.679,8.679,0,0,1,8.685,8.681c0,32.869.014,86.255.027,120.266C246.668,141,261.4,161.3,268.6,173.6a7.948,7.948,0,0,1,1.086,4.031c0,1.255-.026,2.774-.026,4.343a6.027,6.027,0,0,1-6.026,6.019H7.52a5.024,5.024,0,0,1-5.026-5.023c0-7.751-.029,2.275-.029-5.329a8,8,0,0,1,1.09-4.047c7.281-12.434,22.071-33.379,28.84-42.882C32.392,123.7,32.388,114.03,32.384,102.987Z"/>

<path class="b" d="M225.558,137.234a5.247,5.247,0,0,1,4.307,2.25c3.266,4.664,6.779,9.821,9.9,14.847a2.529,2.529,0,0,1-2.141,3.87H34.53a2.526,2.526,0,0,1-2.156-3.849c3.129-5.039,6.652-10.21,9.926-14.889a5.236,5.236,0,0,1,4.3-2.234c37.475,0,141.488,0,178.963,0"/>

<path class="c" d="M227.793,140.7c2.053,2.935,4.083,5.886,6.06,8.873q1.441,2.178,2.842,4.384c.261.412.939,1.252,1.052,1.548.078.2.015.3-.141.335-.064.016-.6-.034-.775-.034h-201c-.409,0-.916.005-1.287.009-.015,0-.173-.276-.142,0-.045-.393.522-1,.8-1.447,1.955-3.1,3.987-6.156,6.056-9.183q1.444-2.113,2.912-4.21c.222-.318.587-1.148.936-1.32a2.807,2.807,0,0,1,.974-.019H80.589l62.468,0H214.2c3.089,0,3.094-4.8,0-4.8H91.981l-27.721,0H47.991c-2.212,0-4.662-.285-6.342,1.489a34,34,0,0,0-2.941,4.116q-1.617,2.334-3.2,4.687-1.473,2.19-2.91,4.405c-.951,1.469-2.311,3.057-2.8,4.762a5,5,0,0,0,4.752,6.313c1.483.056,2.979,0,4.463,0H235.36c.647,0,1.294.008,1.941,0a5.03,5.03,0,0,0,5.249-4.806c.017-1.65-.86-2.923-1.71-4.266q-1.4-2.207-2.842-4.384c-1.977-2.987-4.007-5.938-6.061-8.873a2.464,2.464,0,0,0-3.283-.861,2.421,2.421,0,0,0-.861,3.284Z"/>

<path class="c" d="M41.641,13.9q.011,25.7.022,51.409l.021,50.505q0,5.229.005,10.457a2.435,2.435,0,0,0,2.4,2.4l27.346-.01,40.1-.014,44.453-.015,40.891-.014,28.859-.009h2.374a2.436,2.436,0,0,0,2.4-2.4q-.009-22.325-.019-44.648-.011-23.232-.02-46.464l-.009-21.256a2.435,2.435,0,0,0-2.4-2.4l-15.821.006-38.919.012-49.2.016-46.664.015-31.2.009H44.041c-3.088,0-3.094,4.8,0,4.8L72.657,16.3l45.5-.015,49.571-.016,40.824-.013,13.125-.005c2.02,0,4.092.134,6.109,0,.091-.006.185,0,.276,0l-2.4-2.4.018,40.866q.009,23.762.02,47.524,0,11.99.01,23.978l2.4-2.4-26.914.008-39.878.013-44.44.015-41.088.015-29.264.01H44.089l2.4,2.4q-.016-14.785-.013-29.57L46.452,40.1Q46.446,27,46.441,13.9C46.44,10.814,41.64,10.809,41.641,13.9Z"/>

<path class="c" d="M34.784,102.987l-.021-52.995q0-12.775-.01-25.55,0-5.613,0-11.227a11.034,11.034,0,0,1,.53-4.635A6.372,6.372,0,0,1,38.463,5.4C40.458,4.5,43,4.863,45.141,4.862l6.692,0,15.891,0,38.932-.013,43.7-.015L192.5,4.813,226.877,4.8c2.5,0,5.3-.407,7.533.944a6.173,6.173,0,0,1,2.64,3.328,15.036,15.036,0,0,1,.326,4.679q0,11.189,0,22.377,0,25.55.011,51.1,0,12.447.008,24.894,0,5.722,0,11.445,0,2.683,0,5.367c0,.8-.054,1.617,0,2.412a4.864,4.864,0,0,0,1.245,2.5c8.645,12.116,17.447,24.167,25.345,36.79.862,1.378,1.748,2.754,2.536,4.175,1.115,2.011.749,4.427.733,6.642a3.875,3.875,0,0,1-1.8,3.646,4.994,4.994,0,0,1-2.678.494H9.914c-1.2,0-2.773.25-3.816-.416-1.8-1.149-1.084-3.547-1.211-5.347-.179-2.548-4.1-3.438-4.714-.638a14.491,14.491,0,0,0-.1,1.494h4.8a11.588,11.588,0,0,1,.4-5.175,45.971,45.971,0,0,1,3.977-6.627c3.113-4.936,6.352-9.792,9.632-14.618q4.869-7.165,9.861-14.247,2.1-2.983,4.209-5.957a10.306,10.306,0,0,0,1.763-2.712c.377-1.367.085-3.208.084-4.613l-.009-23.75c0-3.089-4.8-3.094-4.8,0q0,13.862.011,27.725l.328-1.212c-9.437,13.251-18.936,26.549-27.391,40.456C1.586,172.171.313,174.281.1,176.933a21.28,21.28,0,0,0-.028,3.753,2.4,2.4,0,0,0,4.8,0c.045-.393.2-1.447-.07-.218L.087,179.83c.056.789.007,1.6.007,2.388a8.164,8.164,0,0,0,1.948,5.754c1.9,2.114,4.442,2.421,7.1,2.421H260.683a18.477,18.477,0,0,0,5.359-.35,8.61,8.61,0,0,0,4.776-3.675c1.241-2,1.235-4.163,1.254-6.438.023-2.686-.057-5.131-1.4-7.541-.847-1.522-1.795-3-2.721-4.47-2.077-3.309-4.234-6.569-6.421-9.808-4.611-6.828-9.368-13.557-14.152-20.265q-2.751-3.856-5.5-7.711l.328,1.211q-.009-23.457-.016-46.913-.008-25.151-.01-50.3,0-10.947,0-21.894c0-3.809-1.06-7.328-4.149-9.782C235.206.216,232.077,0,228.627,0l-33.2.012L154.2.026,110.92.041,71.55.054,41.961.063c-3.528,0-6.845,1.007-9.233,3.747-2.68,3.076-2.78,6.6-2.779,10.465L29.958,37.9l.021,52.972q0,6.059.005,12.117C29.985,106.075,34.785,106.081,34.784,102.987Z"/>

<path class="c" d="M248.857,171.864H31.077c-2.947,0-5.9-.059-8.847,0-.127,0-.254,0-.381,0-3.089,0-3.094,4.8,0,4.8h217.78c2.946,0,5.9.059,8.846,0,.127,0,.255,0,.382,0,3.088,0,3.093-4.8,0-4.8Z"/>

<path class="a" d="M167.157,43.012c2.367,16.359,5.433,37.556,7.818,54.042a5.506,5.506,0,0,0,6.241,4.662c18.952-2.742,59.307-8.574,79.124-11.443A5.5,5.5,0,0,0,265,84.032c-2.391-16.479-5.455-37.674-7.817-54.038a5.5,5.5,0,0,0-6.239-4.664c-16.62,2.4-60.608,8.764-79.125,11.443A5.505,5.505,0,0,0,167.157,43.012Z"/>

<path class="c" d="M165.1,43.756q2.682,18.545,5.365,37.089.657,4.547,1.315,9.092l.645,4.455a24.353,24.353,0,0,0,.693,4.126,7.936,7.936,0,0,0,5.955,5.3c2.178.412,4.506-.206,6.674-.52q29.52-4.269,59.04-8.537L257.7,92.892c2.356-.341,4.632-.514,6.57-2.064a7.983,7.983,0,0,0,2.8-7.539c-1.717-12.325-3.568-24.633-5.348-36.95q-.671-4.636-1.34-9.275-.291-2.016-.583-4.034a26.884,26.884,0,0,0-.745-4.5,7.959,7.959,0,0,0-5.791-5.269c-1.968-.43-4,.077-5.957.36l-24.9,3.6-29.731,4.3-13.059,1.889-5.553.8c-2.231.323-4.326.536-6.161,2a7.812,7.812,0,0,0-2.883,6.9,2.472,2.472,0,0,0,2.4,2.4,2.416,2.416,0,0,0,2.4-2.4,3.267,3.267,0,0,1,2.877-3.893c1.595-.274,3.209-.464,4.811-.7l11.535-1.668,27.855-4.028,25.655-3.71,5.149-.745,2.15-.311a8.649,8.649,0,0,1,1.965-.2c2.275.207,2.746,2.2,3.02,4.091q.609,4.224,1.22,8.449,2.567,17.774,5.141,35.545c.4,2.731.932,5.482,1.193,8.229a3.229,3.229,0,0,1-2.9,3.641c-3.8.674-7.655,1.108-11.471,1.66q-28.522,4.127-57.046,8.249l-5.964.862c-1.6.232-3.533.8-4.975.532-2.236-.417-2.472-2.561-2.743-4.431l-1.233-8.525q-2.586-17.871-5.171-35.743l-1.149-7.945a2.415,2.415,0,0,0-2.952-1.676A2.461,2.461,0,0,0,165.1,43.756Z"/>

<path class="c" d="M175.538,49.306q15.579,10.218,31.545,19.833,1.8,1.08,3.6,2.15a25.833,25.833,0,0,0,4.238,2.372,5.472,5.472,0,0,0,4.286-.306,14.5,14.5,0,0,0,3.478-3.227q6.8-7.193,13.336-14.622,7.525-8.512,14.818-17.226a2.464,2.464,0,0,0,0-3.394,2.42,2.42,0,0,0-3.394,0c-8.2,9.754-16.548,19.385-25.222,28.72q-1.54,1.656-3.095,3.3-.73.773-1.464,1.542c-.307.322-.568.769-1.056.724-.4-.038-.942-.517-1.268-.709l-1.673-.986q-1.893-1.12-3.781-2.253-7.733-4.641-15.368-9.442-8.331-5.227-16.558-10.62c-2.591-1.7-5,2.455-2.423,4.144Z"/>

<path class="c" d="M296.8,38.309,274.76,41.5l-3.182.462a2.416,2.416,0,0,0-1.677,2.952,2.463,2.463,0,0,0,2.953,1.676L294.889,43.4l3.182-.461a2.416,2.416,0,0,0,1.676-2.953,2.461,2.461,0,0,0-2.952-1.676Z"/>

<path class="c" d="M290.118,52.774l-14.557,2.11-2.067.3a2.416,2.416,0,0,0-1.676,2.953,2.461,2.461,0,0,0,2.952,1.676l14.557-2.11,2.067-.3a2.415,2.415,0,0,0,1.676-2.952,2.462,2.462,0,0,0-2.952-1.676Z"/>

<path class="c" d="M283.808,67.185l-7.354,1.066-1.044.151a2.393,2.393,0,0,0-1.434,1.1,2.4,2.4,0,0,0,.861,3.284,2.806,2.806,0,0,0,1.849.242l7.354-1.066,1.044-.152a2.4,2.4,0,0,0,1.434-1.1,2.453,2.453,0,0,0,.242-1.849,2.426,2.426,0,0,0-1.1-1.434,2.807,2.807,0,0,0-1.849-.242Z"/>

</g>

</svg>