<!DOCTYPE svg PUBLIC "-//W3C//DTD SVG 1.1//EN" "http://www.w3.org/Graphics/SVG/1.1/DTD/svg11.dtd">
<!-- Uploaded to: SVG Repo, www.svgrepo.com, Transformed by: SVG Repo Mixer Tools -->
<svg width="800px" height="800px" viewBox="-60.38 0 361.088 361.088" xmlns="http://www.w3.org/2000/svg" fill="#000000">
<g id="SVGRepo_bgCarrier" stroke-width="0"/>
<g id="SVGRepo_tracerCarrier" stroke-linecap="round" stroke-linejoin="round"/>
<g id="SVGRepo_iconCarrier">
<defs>
<style>.a{fill:#ffffff;}.b{fill:#211715;}.c{fill:#303030;}.d{fill:#323030;}.e{fill:#800080;}.f{fill:#d9d9d9;}.g{fill:#645d5c;}</style>
</defs>
<path class="a" d="M167.531,88.218a7.954,7.954,0,0,1,6.36-1.861,7.507,7.507,0,0,1,5.4,3.588,10.609,10.609,0,0,1,1.111,4.269,31.805,31.805,0,0,1-3.242,16.857,20.216,20.216,0,0,1-5.227,6.86c-2.136,1.7-4.282,2.517-7.826.722a47.4,47.4,0,0,1-2.07,7.476c-1.677,4.483-10.458,19.15-21.872,26.137.015,3.605.208,7.356,1.409,10.33,2.58,6.39,16.52,14.43,17.48,14.85,0,0-5.409,34.723-45.7,34.723s-41.775-34.723-41.775-34.723c.96-.42,12.71-7.34,15.3-13.73,1.215-3,1.4-6.769,1.406-10.366a44.966,44.966,0,0,1-14.312-11.613,53.851,53.851,0,0,1-10.858-21.891c-3.286,1.313-5.738-.383-7.659-1.915a20.2,20.2,0,0,1-5.227-6.86,31.806,31.806,0,0,1-3.243-16.857,10.61,10.61,0,0,1,1.112-4.269,7.506,7.506,0,0,1,5.4-3.588,7.955,7.955,0,0,1,6.361,1.861S58.309,43.5,114.309,43.5C170.087,43.5,167.531,88.218,167.531,88.218Z"/>
<path class="b" d="M137.771,153.266c.074,4.05.3,8.588,2.553,12.1a28.365,28.365,0,0,0,6.077,6.416,78.15,78.15,0,0,0,7.327,5.3,33.987,33.987,0,0,0,4.112,2.44,2.471,2.471,0,0,0,3.283-.861,2.419,2.419,0,0,0-.861-3.284,31.764,31.764,0,0,1-3.711-2.185,70.746,70.746,0,0,1-6.292-4.423,42.879,42.879,0,0,1-3.306-2.91,20.687,20.687,0,0,1-2.219-2.514,11.245,11.245,0,0,1-.922-1.572c.261.55-.189-.519-.2-.563-.175-.521-.319-1.051-.442-1.586a30.913,30.913,0,0,1-.595-6.355c-.056-3.085-4.856-3.095-4.8,0Z"/>
<path class="b" d="M72.782,179.519a28.737,28.737,0,0,0,3.959-2.421,58.666,58.666,0,0,0,6.77-5.238,21.919,21.919,0,0,0,5.235-6.48c1.766-3.729,1.916-8.028,1.935-12.084.015-3.089-4.785-3.092-4.8,0a44.226,44.226,0,0,1-.29,5.754,15.246,15.246,0,0,1-1.217,4.36,20.139,20.139,0,0,1-4.721,5.471,51.722,51.722,0,0,1-5.752,4.351,26.843,26.843,0,0,1-3.541,2.142,2.419,2.419,0,0,0-.861,3.284,2.457,2.457,0,0,0,3.283.861Z"/>
<path class="c" d="M2.6,296.488c-1.039,20.256,1.8,35.181,11.818,41.352,7.138,4.4,16.318,4.6,22.711,1.4-.175,6.026-.445,11.842-.452,19.444l201.244-.3C233.03,290.836,225.379,230.7,219.2,210.1c-1.778-5.926-4.445-9.481-7.408-11.852s-7.889-3.944-11.314-5.6c-11.13-5.377-25.663-11.363-37.072-16.123l-2.175-.908a60.935,60.935,0,0,0-11.217-9.223c-4.982,21.36-13.834,44.417-20.851,65.2Q122.1,252.5,115.035,273.42c-6.279-15.57-10.432-26.049-15.761-41.831-7.017-20.781-15.869-43.838-20.852-65.2l-16.915,11.8c-10.34,5.544-23.247,9.156-33.9,14.234-2.933,1.4-6.562,1.837-9.3,4.213-3.333,2.888-5.822,7.775-6.815,12.74-2.963,14.815-7.111,43.26-8.889,87.111"/>
<path class="d" d="M59.753,87.892c1.722,1.772,2.682-1.859,3.334-3.278,1.037-2.26,2.555-5.556,3.666-7.778.612-1.224,1.494-3.016,2.035-4.265q.86-1.983,1.824-3.91a79.649,79.649,0,0,1,4.293-7.528,10.008,10.008,0,0,1,2.747-3.114c3.371-2.212,8-.427,12.107-.736,4.566-.344,8.349-3.292,12.56-4.97,5.855-2.333,14.835-2.948,20.508-.255,2.871.148,5.546.022,8.148,0a51.717,51.717,0,0,1,8.723.389c8.369,1.921,14.178,6.539,18.389,13.537a65.8,65.8,0,0,1,6.63,14.671,51.476,51.476,0,0,1,1.239,5.568c.1.631.171,1.277.23,1.91.039.431.47.584,1.484-.1l-.139.189a7.951,7.951,0,0,1,6.319-1.867c3.973-13.051,2.9-29.6-.962-39.464-2.657-6.788-6.727-14.622-14.97-19.146l-7.569-6.7c-3.4-6.9-10.5-12.808-19.83-16.142C120.738,1.41,92.226.817,82.64,9.106L72.8,15.836c-10.977,5.01-18.721,17-22.019,29.358-3.4,12.733-3.429,31.19,1.356,41.513a7.865,7.865,0,0,1,7.711,1.511Z"/>
<path class="b" d="M152.422,19.833C147.408,9.827,136.41,3.072,125.582,1.227a86.137,86.137,0,0,0-30.771.324c-4.921.973-9.987,2.558-13.868,5.857a2.422,2.422,0,0,0,0,3.4,2.45,2.45,0,0,0,3.394,0c.037-.032.584-.477.185-.168.175-.135.356-.263.538-.389.378-.261.768-.505,1.165-.736.693-.4,1.912-.993,2.313-1.158a37.907,37.907,0,0,1,6.238-1.9A72.15,72.15,0,0,1,109.224,4.9c8.952-.168,17.7.326,25.762,4.561,5.552,2.916,10.451,7.13,13.291,12.8,1.384,2.762,5.526.334,4.145-2.423Z"/>
<path class="b" d="M161.983,115.846a25.62,25.62,0,0,1-1.22,6.465c-.237.794-.5,1.581-.765,2.366-.093.271-.183.544-.278.814-.063.181-.361.838-.05.146a49.958,49.958,0,0,1-3.317,6.068,64.379,64.379,0,0,1-13.548,15.765,28.594,28.594,0,0,1-10.072,5.524c-2.965.847-1.7,5.48,1.276,4.628,7.661-2.188,14.042-7.7,19.168-13.613A66.147,66.147,0,0,0,163.664,128.4a34.025,34.025,0,0,0,3.119-12.552c.1-3.09-4.7-3.086-4.8,0Z"/>
<path class="b" d="M59.8,115.913c3.012,16.135,12.1,32.024,27.266,39.509a2.461,2.461,0,0,0,3.284-.861,2.422,2.422,0,0,0-.861-3.283,44.56,44.56,0,0,1-17.723-16.652,58.337,58.337,0,0,1-7.338-19.989,2.421,2.421,0,0,0-2.952-1.676,2.451,2.451,0,0,0-1.676,2.952Z"/>
<path class="b" d="M169.228,89.915a5.482,5.482,0,0,1,7.6.637c1.081,1.367,1.182,3.324,1.254,4.992a28.345,28.345,0,0,1-.3,5.777,29.33,29.33,0,0,1-4,10.865c-1.538,2.446-4.083,5.753-7.328,4.86-2.983-.821-4.256,3.809-1.276,4.628,8.347,2.3,13.82-7.566,16-14.107a33.658,33.658,0,0,0,1.691-12.245c-.2-4.015-1.27-7.835-4.926-10.017a10.441,10.441,0,0,0-12.114,1.216,2.421,2.421,0,0,0,0,3.394,2.448,2.448,0,0,0,3.394,0Z"/>
<path class="b" d="M61.544,86.521a10.449,10.449,0,0,0-11.1-1.724c-3.837,1.7-5.448,5.237-5.843,9.218-.8,8.1,1.631,17.156,6.923,23.417,2.833,3.352,6.921,6.044,11.452,4.99,3.007-.7,1.734-5.328-1.276-4.628-3.153.733-6.22-2.766-7.77-5.089a28.83,28.83,0,0,1-4.258-10.946,28.391,28.391,0,0,1-.393-5.772c.047-1.678.087-3.7,1.069-5.138a5.437,5.437,0,0,1,7.8-.934,2.462,2.462,0,0,0,3.395,0,2.421,2.421,0,0,0,0-3.394Z"/>
<path class="b" d="M71.588,13.763c-9.655,4.481-16.452,13.586-20.5,23.189-4.166,9.886-5.508,20.955-5.044,31.621a55.519,55.519,0,0,0,3.008,16.938,2.464,2.464,0,0,0,2.952,1.676,2.418,2.418,0,0,0,1.676-2.952c-3.418-9.168-3.457-19.659-2.325-29.26C52.5,45.3,55.736,35.7,61.752,27.934A33.459,33.459,0,0,1,74.01,17.908a2.42,2.42,0,0,0,.861-3.284,2.455,2.455,0,0,0-3.283-.861Z"/>
<path class="b" d="M156.707,29.813c6.632,3.706,10.789,10.064,13.572,16.97,2.972,7.375,3.87,15.5,3.648,23.4a60.6,60.6,0,0,1-2.132,14.65c-.832,2.98,3.8,4.251,4.629,1.276a70.067,70.067,0,0,0,1.63-28.123A52,52,0,0,0,169.877,35.7a31.956,31.956,0,0,0-10.748-10.026c-2.7-1.509-5.122,2.636-2.422,4.144Z"/>
<path class="b" d="M122.023,50.818A26.485,26.485,0,0,0,104.9,49a35.22,35.22,0,0,0-8.086,3.3c-2.261,1.163-4.66,2.445-7.251,2.6-2.716.163-5.4-.524-8.118-.383a9.552,9.552,0,0,0-7.332,3.615c-3.719,4.718-5.968,10.4-8.58,15.746-1.2,2.461-2.139,5.041-3.377,7.483-.567,1.116-1.238,2.159-1.732,3.31-.209.485-.415.97-.669,1.434.019-.035-.256.4-.253.4-.334-.65,1.954-.307,1.952-.309-2.266-2.093-5.669,1.293-3.394,3.395,2.073,1.914,4.6,1.179,5.9-1.178.393-.715.643-1.5,1.008-2.224.666-1.326,1.448-2.578,2.061-3.935,2.243-4.964,4.322-10.023,6.93-14.815q1.091-2,2.294-3.94A12.9,12.9,0,0,1,78.6,60.306c1.881-1.592,4.848-.983,7.083-.773a19.19,19.19,0,0,0,8.3-.72,75.552,75.552,0,0,0,7.659-3.591,21.3,21.3,0,0,1,17.958-.26,2.47,2.47,0,0,0,3.284-.861,2.42,2.42,0,0,0-.861-3.283Z"/>
<path class="b" d="M113.156,40.377a29.635,29.635,0,0,1,3.423.728,26.06,26.06,0,0,1,2.783.954c.152.066.87.408,1.221.591q.615.321,1.209.681.626.381,1.222.809c.076.054.672.52.308.225.17.137.339.276.5.418a17.863,17.863,0,0,1,1.892,1.89c.161.186.318.375.47.569-.258-.328.046.07.128.185q.363.51.689,1.045.351.577.656,1.182c.11.217.209.438.315.657.224.463-.115-.334.084.193a21.016,21.016,0,0,1,.812,2.606,2.4,2.4,0,1,0,4.629-1.277,19.891,19.891,0,0,0-6.281-10.444,25.493,25.493,0,0,0-12.789-5.641,2.476,2.476,0,0,0-2.952,1.677,2.417,2.417,0,0,0,1.676,2.952Z"/>
<path class="b" d="M139.723,53.93a24.046,24.046,0,0,1,14.1,9.905,57.024,57.024,0,0,1,8.766,18.145c.3,1.15.58,2.307.807,3.474.211,1.086.217,2.25.477,3.318.6,2.442,3.246,2.426,5.01,1.329,2.618-1.627.211-5.781-2.422-4.144q-1.158.569,1.044.366l.861.861q.287.948.122-.007-.069-.558-.146-1.116-.135-.947-.318-1.883c-.241-1.245-.539-2.479-.867-3.7a47.042,47.042,0,0,0-2.117-6.033,71.656,71.656,0,0,0-5.953-11.385C154.753,56.408,148.87,51.168,141,49.3c-3-.712-4.285,3.915-1.276,4.629Z"/>
<path class="a" d="M116.854,175.633a.755.755,0,0,0-.2.207h-4.637a6,6,0,0,0-2.054-1.162c-10.565-4.25-19.379-10.731-23.24-15.921-3.809,3.5-5.019,6.21-7.495,10.953,5.086,20.413,13.391,42.17,20.047,61.879,5.329,15.782,9.482,26.261,15.761,41.831q7.064-20.916,14.126-41.831c6.688-19.807,15.043-41.681,20.123-62.182-2.372-4.557-3.61-7.224-7.337-10.65-3.86,5.19-12.675,11.671-23.24,15.921A9.233,9.233,0,0,0,116.854,175.633Z"/>
<path class="a" d="M132.642,193.5a103.467,103.467,0,0,0,16-25.334c-1.985-3.827-3.319-6.308-6.695-9.412-3.86,5.19-12.675,11.671-23.24,15.921a6,6,0,0,0-2.054,1.162c-.253.471.239.885.471,1.255.363.582,2.148,2.074,5.185,5.408C125.754,186.284,129.79,190.1,132.642,193.5Z"/>
<path class="a" d="M96.027,193.5a103.5,103.5,0,0,1-16-25.334c1.985-3.827,3.319-6.308,6.695-9.412,3.861,5.19,12.675,11.671,23.24,15.921a6,6,0,0,1,2.054,1.162c.253.471-.239.885-.47,1.255-.364.582-2.149,2.074-5.186,5.408C102.915,186.284,98.879,190.1,96.027,193.5Z"/>
<path class="e" d="M117.284,178.835c-2.609.009-4.778.014-7.413.016-.864.856-2.041,2.038-3.511,3.652-.787.863-1.6,1.729-2.432,2.59.582,3.019.99,4.927,1.632,7.674.1.483.224.949.345,1.432a13.261,13.261,0,0,1,.518,3.175c0,.617-3.02,22.656-5.134,40.092,4.424,12.7,8.279,22.4,13.746,35.954l12.957-38.369c-2.658-17.775-5.472-36.348-5.454-37.332a19.339,19.339,0,0,1,1.242-5.625c.744-2.285,1.2-4.283,1.687-6.247-1.073-1.11-2.142-2.229-3.158-3.344-1.482-1.627-2.666-2.815-3.532-3.673Z"/>
<path class="b" d="M107.156,199.628c4.969,0,9.938-.11,14.907-.112a2.4,2.4,0,1,0,0-4.8c-4.969,0-9.938.11-14.907.112a2.4,2.4,0,0,0,0,4.8Z"/>
<path class="b" d="M101.848,186.935q.644,3.248,1.4,6.47a14.611,14.611,0,0,1,.758,4.184c-.1,1.483-.371,2.972-.563,4.445-.886,6.783-1.786,13.564-2.659,20.349q-.9,7-1.762,14.008a2.413,2.413,0,0,0,2.4,2.4,2.459,2.459,0,0,0,2.4-2.4c.991-8.115,2.041-16.223,3.1-24.329.624-4.763,1.471-9.554,1.866-14.344a13.876,13.876,0,0,0-.631-4.4c-.629-2.538-1.174-5.1-1.682-7.663a2.4,2.4,0,0,0-4.629,1.276Z"/>
<path class="b" d="M118.494,176.436q-4.421.009-8.841.019a2.4,2.4,0,1,0,0,4.8q4.42-.007,8.841-.019a2.4,2.4,0,0,0,0-4.8Z"/>
<path class="b" d="M130.3,234.4q-1.738-11.624-3.476-23.247-.641-4.322-1.266-8.645-.222-1.54-.433-3.083c-.025-.185.056.441-.007-.052-.019-.149-.039-.3-.057-.446-.033-.261-.072-.523-.094-.785a9.4,9.4,0,0,1,.459-3.278c.583-2.108,1.3-4.167,1.837-6.291.755-3-3.873-4.274-4.628-1.276-.852,3.385-2.635,6.991-2.5,10.536.058,1.481.371,2.979.577,4.444.9,6.405,1.873,12.8,2.83,19.2q1.062,7.1,2.127,14.2a2.417,2.417,0,0,0,2.952,1.677A2.462,2.462,0,0,0,130.3,234.4Z"/>
<path class="b" d="M111.291,277.02a50.593,50.593,0,0,0-2.782,16.5c.072,3.536.459,7.083.682,10.612.683,10.78,1.126,21.572,1.877,32.349q.774,11.109,1.747,22.2a2.464,2.464,0,0,0,2.4,2.4,2.417,2.417,0,0,0,2.4-2.4c-1.86-21.155-2.783-42.353-4.229-63.534A44.893,44.893,0,0,1,115.92,278.3c.959-2.944-3.674-4.2-4.629-1.276Z"/>
<path class="b" d="M147.7,165.753c-3.405,14.529-8.184,28.7-13.077,42.778q-7.476,21.52-14.759,43.1L111.29,277.02c-.991,2.933,3.644,4.192,4.629,1.276q7.7-22.8,15.4-45.6c4.731-14,9.848-27.879,14.34-41.965,2.5-7.821,4.8-15.708,6.671-23.7.7-3-3.923-4.287-4.629-1.276Z"/>
<path class="b" d="M148.8,168.464a55.032,55.032,0,0,1,10.09,8.2,56.173,56.173,0,0,1,4.582,5.122c.588.753,1.141,1.536,1.66,2.337.262.4.515.813.755,1.231q.153.266.3.535.106.195.207.4.168.345-.053-.173l.327-1.211q.255-.253-.111,0l-.645.356-.861.475-2.368,1.306-4.521,2.493a2.42,2.42,0,0,0-.485,3.77c2.22,2.01,4.43,4.033,6.573,6.125q.676.661,1.345,1.332a8.873,8.873,0,0,1,1.642,1.687c.092.2.118-.057-.031.292-.32.75-.785,1.478-1.169,2.2q-4.035,7.557-8.216,15.033-8.613,15.441-17.62,30.655-4.95,8.414-9.965,16.788c-1.588,2.658,2.56,5.075,4.145,2.423,12.585-21.054,25.033-42.213,36.547-63.876.831-1.565,1.541-3.1.944-4.889-.528-1.579-1.908-2.727-3.05-3.871-2.507-2.511-5.122-4.909-7.751-7.29l-.486,3.769,6.027-3.324c1.75-.965,4.407-1.886,4.529-4.237.081-1.571-1.04-3.14-1.863-4.41a44.9,44.9,0,0,0-2.986-4.025,61.093,61.093,0,0,0-15.068-13.353c-2.643-1.615-5.057,2.535-2.423,4.145Z"/>
<path class="b" d="M76.108,167.029c3.405,14.529,8.185,28.7,13.077,42.778,4.723,13.6,9.239,27.283,14.3,40.76,2.8,7.458,5.759,14.852,8.736,22.24a2.476,2.476,0,0,0,2.952,1.677,2.417,2.417,0,0,0,1.676-2.953c-5.282-13.11-10.4-26.268-14.944-39.656-4.75-14-9.846-27.89-14.352-41.974-2.549-7.967-4.9-16-6.813-24.148-.7-3.006-5.333-1.733-4.628,1.276Z"/>
<path class="b" d="M77.211,164.319a61.1,61.1,0,0,0-15.069,13.353,46.031,46.031,0,0,0-2.9,3.886c-.852,1.3-2.032,2.937-1.952,4.549.116,2.36,2.775,3.269,4.528,4.237l6.028,3.324-.486-3.769c-2.454,2.222-4.9,4.459-7.249,6.789a18.057,18.057,0,0,0-3.144,3.454,5.074,5.074,0,0,0,.113,5.009c2.655,5.313,5.674,10.477,8.606,15.64,6.282,11.061,12.821,21.975,19.454,32.828q5.508,9.015,11.092,17.984c1.627,2.619,5.781.211,4.145-2.423-12.59-20.273-25.138-40.611-36.539-61.584q-1.119-2.058-2.22-4.125a3.767,3.767,0,0,1-.472-.9c-.05-.308-.1.186.047-.136.278-.6,1.18-1.221,1.643-1.687,2.557-2.571,5.23-5.023,7.918-7.457a2.42,2.42,0,0,0-.486-3.77l-4.52-2.493L63.6,185.843l-1.076-.594c-.179-.1-.955-.723-.757-.353l.328,1.211c.016.382-.148.322.084-.09.1-.177.193-.357.292-.533q.354-.624.741-1.226c.512-.8,1.059-1.581,1.638-2.333a62.606,62.606,0,0,1,14.785-13.461c2.631-1.609.222-5.762-2.423-4.145Z"/>
<path class="b" d="M134.339,195.2A109.718,109.718,0,0,0,147.2,176.5q1.314-2.456,2.512-4.971a17.435,17.435,0,0,0,1.247-2.718c.328-1.191-.451-2.264-.983-3.268a31.524,31.524,0,0,0-6.329-8.479,2.446,2.446,0,0,0-3.769.486c-4.025,5.337-10.919,9.605-17.06,12.667-2,1-4.088,1.762-6.09,2.731-2.093,1.012-3.315,2.981-1.836,5.135,1.56,2.271,3.865,4.1,5.723,6.121,3.4,3.7,7.087,7.154,10.333,11a2.42,2.42,0,0,0,3.394,0,2.45,2.45,0,0,0,0-3.394c-3.052-3.616-6.506-6.866-9.719-10.333-1.382-1.49-2.766-2.972-4.209-4.4-.39-.386-.773-.778-1.163-1.163-.155-.154-.5-.66-.008.043-.059-.084-.38-.634-.343-.472v1.276l.07-.276-.617,1.059c-.244.286.251-.17.433-.267s.372-.192.562-.277c.808-.365,1.642-.677,2.455-1.031q2.142-.933,4.221-2a69.861,69.861,0,0,0,7.383-4.371,44.029,44.029,0,0,0,10.616-9.621l-3.77.485a31.153,31.153,0,0,1,6.32,8.927v-2.423a109.915,109.915,0,0,1-15.625,24.848,2.465,2.465,0,0,0,0,3.394A2.421,2.421,0,0,0,134.339,195.2Z"/>
<path class="b" d="M97.724,191.806A109.95,109.95,0,0,1,82.1,166.958v2.423a31.167,31.167,0,0,1,6.32-8.927l-3.769-.485a44.006,44.006,0,0,0,10.615,9.621,70.134,70.134,0,0,0,7.383,4.371q1.977,1.017,4.014,1.911c.812.357,1.638.681,2.451,1.035.264.115.518.227.773.363.163.086.722.606.433.267l-.617-1.059.07.276v-1.276c.037-.162-.284.388-.343.472.5-.7.147-.2-.008-.043-.39.385-.773.777-1.162,1.163-1.444,1.431-2.828,2.913-4.209,4.4-3.214,3.467-6.668,6.717-9.72,10.333a2.464,2.464,0,0,0,0,3.394,2.421,2.421,0,0,0,3.394,0c2.855-3.383,6.066-6.444,9.1-9.665,1.405-1.494,2.777-3.016,4.227-4.468.7-.7,1.459-1.372,2.1-2.136,1.372-1.643,1.985-3.83-.03-5.3-1.651-1.2-3.817-1.782-5.662-2.647a69.64,69.64,0,0,1-10.888-6.325,37.5,37.5,0,0,1-7.769-7.115,2.446,2.446,0,0,0-3.769-.486,31.561,31.561,0,0,0-6.329,8.479c-.486.917-1.172,1.87-1.026,2.949a10.63,10.63,0,0,0,1.2,2.846q1.243,2.608,2.6,5.162A109.718,109.718,0,0,0,94.33,195.2a2.42,2.42,0,0,0,3.394,0A2.451,2.451,0,0,0,97.724,191.806Z"/>
<path class="b" d="M192.935,358.688c-.016-9.939-.585-19.866-.6-29.805-.017-10.872-.044-21.657,1.886-32.395,3.71-20.63,6.807-41.373,9.484-62.161,1.368-10.629,2.615-21.274,3.671-31.939a2.416,2.416,0,0,0-2.4-2.4,2.454,2.454,0,0,0-2.4,2.4c-1.953,19.714-4.5,39.372-7.436,58.963q-2.331,15.577-5.054,31.093a152.56,152.56,0,0,0-2.2,16.251c-.364,5.367-.373,10.749-.359,16.126.031,11.294.594,22.575.612,33.867,0,3.088,4.805,3.094,4.8,0Z"/>
<path class="b" d="M34.727,339.241c-.19,6.483-.442,12.961-.452,19.447,0,3.089,4.8,3.094,4.8,0,.01-6.486.262-12.964.452-19.447.091-3.09-4.709-3.087-4.8,0Z"/>
<path class="b" d="M162.766,178.837c14.334,5.978,28.532,12.209,42.694,18.573a19.139,19.139,0,0,1,7.509,5.382,24.21,24.21,0,0,1,4.051,8.4c1.049,3.574,1.867,7.216,2.624,10.861,2.261,10.876,3.923,21.878,5.45,32.877,2.039,14.683,3.731,29.415,5.253,44.16q2.7,26.153,4.659,52.373.263,3.462.513,6.926a2.459,2.459,0,0,0,2.4,2.4,2.42,2.42,0,0,0,2.4-2.4q-1.957-27.011-4.63-53.965c-1.559-15.575-3.316-31.133-5.4-46.647-1.559-11.582-3.257-23.165-5.532-34.631-1.917-9.661-3.69-21.1-12.17-27.3-2.983-2.179-6.59-3.328-9.928-4.83-3.464-1.559-6.874-3.237-10.344-4.787-7.627-3.408-15.334-6.634-23.043-9.849q-2.613-1.089-5.227-2.178a2.415,2.415,0,0,0-2.952,1.676,2.462,2.462,0,0,0,1.676,2.953Z"/>
<path class="b" d="M131.3,286.945c.267.241.482.531.742.774q-.366-.483-.15-.186c.046.067.091.135.135.2.074.117.143.237.207.359.1.192.208.609-.024-.107.046.14.106.276.149.417a5.409,5.409,0,0,1,.184.835l-.086-.638a6.072,6.072,0,0,1,0,1.512l.085-.638a6.674,6.674,0,0,1-.172.839q-.049.175-.108.348c-.038.112-.232.587-.035.122s0-.017-.054.092-.109.208-.169.309-.116.185-.176.277c-.248.383.42-.482.141-.179-.1.108-.5.65-.644.626.016,0,.556-.389.188-.156-.059.038-.117.078-.177.116q-.2.126-.416.234c-.064.032-.128.061-.192.092-.338.168.5-.184.228-.1-.136.044-.269.1-.406.139a6.692,6.692,0,0,1-1,.219l.638-.085a7.121,7.121,0,0,1-1.816.006l.638.085a8.4,8.4,0,0,1-1.4-.358c.723.232.394.172.209.081-.118-.058-.233-.12-.345-.188-.083-.05-.162-.105-.244-.157-.329-.212.513.441.13.1a8.336,8.336,0,0,1-.625-.622c-.282-.311.344.508,0-.014-.067-.1-.13-.2-.189-.306s-.107-.208-.161-.312c-.188-.362.22.622.034.046a4.8,4.8,0,0,1-.17-.751l.085.638a5.3,5.3,0,0,1,0-1.3l-.085.638a5.96,5.96,0,0,1,.2-.905c.043-.141.093-.278.142-.417.163-.456-.242.5-.024.063a9.449,9.449,0,0,1,.461-.829c.08-.125.164-.249.251-.37a.99.99,0,0,1,.133-.179c-.073.063-.394.476-.133.181.09-.1.178-.2.275-.3s.464-.39.1-.113.041-.019.139-.081q.2-.128.416-.234c.025-.013.173-.1.195-.093,0,0-.593.227-.273.116.139-.048.275-.1.416-.142a6.583,6.583,0,0,1,.983-.208l-.638.086a6.4,6.4,0,0,1,1.577,0l-.638-.086a5.962,5.962,0,0,1,.662.132c.09.024.18.051.269.08s.5.194.08.015c-.4-.172-.073-.029.019.017s.2.1.294.161.187.122.281.184c.337.221-.46-.377-.132-.1a2.554,2.554,0,0,0,1.7.7,2.4,2.4,0,0,0,1.7-4.1,7.637,7.637,0,0,0-4.9-1.866,8.123,8.123,0,0,0-4.511,1.236,8.606,8.606,0,0,0-3.607,8.656,7.448,7.448,0,0,0,3.058,4.353,8.37,8.37,0,0,0,11.584-2.631,8.377,8.377,0,0,0,.967-4.49,7.95,7.95,0,0,0-2.587-5.258,2.4,2.4,0,0,0-3.394,3.394Z"/>
<path class="b" d="M5,296.488c.858-21.039,2.332-42.081,5.03-62.971.794-6.145,1.776-12.721,2.924-19.042.635-3.5,1.193-7.067,2.76-10.291a16.982,16.982,0,0,1,4.424-5.972c1.944-1.541,4.5-2.042,6.763-2.906,2.9-1.108,5.686-2.546,8.571-3.71,3.057-1.233,6.142-2.392,9.222-3.564a156.23,156.23,0,0,0,18.026-7.77c2.728-1.452.306-5.6-2.422-4.144-10.475,5.577-22.01,8.745-32.766,13.7-2.319,1.069-4.768,1.744-7.109,2.756a15.6,15.6,0,0,0-6.148,4.876C11.2,201.384,9.687,206,8.763,210.836c-2.877,15.08-4.654,30.383-6.022,45.666-1.19,13.3-2,26.641-2.543,39.986-.126,3.089,4.674,3.083,4.8,0Z"/>
<path class="b" d="M27.39,94.858c-1.1.508-2.2.994-3.311,1.471l-.941.4c-.361.152.3-.126-.063.026l-.427.179q-.965.4-1.931.8c-2.4.99-4.809,1.966-7.2,2.979A2.4,2.4,0,0,0,12.654,104a2.477,2.477,0,0,0,3.284.861c-.525.222.239-.1.389-.162l.741-.308c.556-.231,1.113-.459,1.669-.688q1.844-.756,3.685-1.514c2.479-1.025,4.957-2.058,7.391-3.185a2.41,2.41,0,0,0,.861-3.284,2.469,2.469,0,0,0-3.284-.861Z"/>
<path class="b" d="M27.664,81.8c-4.67-.369-9.346-.719-14-1.261a2.406,2.406,0,0,0-2.4,2.4,2.471,2.471,0,0,0,2.4,2.4c4.655.542,9.331.892,14,1.261a2.411,2.411,0,0,0,2.4-2.4,2.46,2.46,0,0,0-2.4-2.4Z"/>
<path class="b" d="M32.9,70.678c-3.74-3.072-7.256-6.41-10.733-9.775a2.4,2.4,0,1,0-3.394,3.4c3.476,3.364,6.993,6.7,10.733,9.775a2.458,2.458,0,0,0,3.394,0,2.427,2.427,0,0,0,0-3.395Z"/>
<path class="b" d="M103.413,130.205c3.016,2.955,7.8,3.811,11.845,3.811s8.83-.847,11.85-3.8c2.213-2.164-1.183-5.557-3.394-3.394-.1.1-.6.521-.3.285.28-.221-.369.245-.517.336-.263.162-.534.311-.81.449-.186.093-.374.182-.564.265.325-.142-.008,0-.161.054a17.755,17.755,0,0,1-6.1,1,17.264,17.264,0,0,1-5.993-.971c-.028-.01-.722-.3-.27-.1-.159-.07-.317-.144-.472-.22-.307-.151-.608-.315-.9-.5-.224-.138-.433-.292-.65-.44.614.418-.017-.036-.166-.183-2.208-2.164-5.605,1.228-3.4,3.394Z"/>
<path class="b" d="M142.489,93.319c.852,2.773.293,9.152-4.961,9.692-6.943-.046-7.309-7.758-4.97-11.383C134.473,88.66,140.1,87.428,142.489,93.319Z"/>
<path class="f" d="M81.71,56.525c-22.979,1.14-37.979,19.726-36.946,40.552,1.2,24.108,16.985,38.6,40.816,37.42,24.386-1.21,38.108-17.168,36.912-41.276C121.452,72.253,104.609,55.389,81.71,56.525Z"/>
<path class="a" d="M82.323,68.86A26.082,26.082,0,0,0,57.067,96.581c.817,16.481,11.61,26.389,27.9,25.581,16.67-.827,26.05-11.736,25.233-28.217A26.06,26.06,0,0,0,82.323,68.86Z"/>
<path class="g" d="M78.135,134.866c.286,5.772,2,35.474,2.407,43.762a7.9,7.9,0,0,0,8.091,7.783c5.119-.254,7.574-2.635,7.281-8.545-.429-8.65-1.957-35-2.362-43.171Z"/>
<path class="b" d="M81.71,54.125a42.284,42.284,0,0,0-25.22,9.717A40.384,40.384,0,0,0,43.428,85.393c-3.749,16.143,1.675,35.264,15.7,44.848,6.866,4.692,15.28,6.682,23.519,6.722,8.512.042,17.314-1.726,24.658-6.176a35.741,35.741,0,0,0,14.646-17.555,48.249,48.249,0,0,0,2.308-25.609A40.169,40.169,0,0,0,88.665,54.341a43.667,43.667,0,0,0-6.955-.216c-3.076.14-3.093,4.941,0,4.8a37.451,37.451,0,0,1,23.184,6.364,35.456,35.456,0,0,1,13.259,17.776,43.459,43.459,0,0,1,.862,23.489,32.025,32.025,0,0,1-10.262,17.318c-5.365,4.584-12.577,7.144-19.7,7.945-7.6.855-15.745.242-22.648-2.962a31.318,31.318,0,0,1-14.621-13.843A42.842,42.842,0,0,1,47.21,92.28,35.48,35.48,0,0,1,75.6,59.711a39.376,39.376,0,0,1,6.11-.786C84.783,58.76,84.8,53.959,81.71,54.125Z"/>
<path class="b" d="M75.735,134.866c.7,14.123,1.6,28.235,2.335,42.356a14.249,14.249,0,0,0,1.415,6.328,10.367,10.367,0,0,0,5.585,4.713c3.952,1.43,9.48.248,11.8-3.45,2.078-3.307,1.416-7.518,1.218-11.218q-.325-6.058-.667-12.115c-.5-8.928-1.028-17.854-1.473-26.785-.153-3.074-4.954-3.092-4.8,0,.363,7.3.791,14.6,1.2,21.9q.349,6.264.7,12.528c.174,3.151.461,6.324.489,9.48a8.813,8.813,0,0,1-.286,2.619,3.341,3.341,0,0,1-.886,1.595,3.624,3.624,0,0,1-1.465.817,8.131,8.131,0,0,1-2.564.387,5.4,5.4,0,0,1-4.188-2.064,7.634,7.634,0,0,1-1.269-4.562c-.366-7.095-.773-14.188-1.17-21.282s-.821-14.161-1.174-21.245c-.153-3.074-4.954-3.092-4.8,0Z"/>
<path class="b" d="M82.323,66.46a29.813,29.813,0,0,0-17.772,6.861,28.287,28.287,0,0,0-9.113,15c-2.674,11.374,1.147,24.752,10.987,31.535a29.345,29.345,0,0,0,16.31,4.749,33.136,33.136,0,0,0,17.454-4.317C110.5,114.045,114.1,101.425,112.154,90A28.2,28.2,0,0,0,87.129,66.615a30.136,30.136,0,0,0-4.806-.155c-3.077.134-3.094,4.935,0,4.8a24.973,24.973,0,0,1,15.37,4.182,23.383,23.383,0,0,1,8.8,11.741c3.1,9.21,1.248,20.721-6.128,27.1A24.4,24.4,0,0,1,87.4,119.564c-5.091.593-10.622.2-15.205-1.941a20.673,20.673,0,0,1-9.676-9.177,28.619,28.619,0,0,1-3.027-15,23.8,23.8,0,0,1,18.69-21.634,26.04,26.04,0,0,1,4.144-.547C85.394,71.089,85.414,66.288,82.323,66.46Z"/>
<path class="a" d="M47.759,243.011c2.076-6.744,5.948-12.345,7.1-19.338a148.58,148.58,0,0,0,1.941-20.9c.158-7.643.1-15.822,1.208-22.41.9-5.323,7.376-9.642,13.9-11.3,5.2-1.028,14.457-1.74,17.708-2.091,4.056-.437,7.642.575,8.9,3.871,1.561,4.092-.094,7.139-3.445,9.314a5.8,5.8,0,0,1,4.9,5.273c.148,1.425.428,4.059-2.477,5.528a5.759,5.759,0,0,1,3.578,4.929c.113,3.1-1.749,5.792-5.845,6.871,8.369,9.6-5.836,10.053-10.057,14.437-1.162,3.15.085,6.84-.258,10.2-.41,4.016-.668,3.7-3.445,6.573-4.619,4.781-5.832,5.709-6.877,12.569Z"/>
<path class="b" d="M50.073,243.649c1.25-3.976,3.148-7.687,4.735-11.531a49.6,49.6,0,0,0,3.09-12.67c1.216-9.108,1.221-18.194,1.521-27.357.074-2.25.182-4.5.377-6.741a25.661,25.661,0,0,1,.8-5.431c.961-3.053,4.064-5.179,6.755-6.583a27.793,27.793,0,0,1,9.609-2.658c3.323-.423,6.658-.736,9.993-1.05,2.669-.251,6.38-1.114,8.528.85a4.738,4.738,0,0,1,1.213,3.894,5.755,5.755,0,0,1-2.822,3.707c-1.573,1.051-1.593,3.967.574,4.387a3.71,3.71,0,0,1,2.384,1.242,4.348,4.348,0,0,1,.765,1.8c.236,1.4.238,2.537-1.3,3.376a2.419,2.419,0,0,0,0,4.145,4.261,4.261,0,0,1,2.246,2.128,3.42,3.42,0,0,1,.1,1.695c-.357,1.971-2.065,3.035-4.039,3.59a2.43,2.43,0,0,0-1.059,4.011,11.606,11.606,0,0,1,1.573,2.294c.027.053.189.434.053.089a5.23,5.23,0,0,1,.173.522c.046.165.085.33.115.5-.1-.586-.033-.007-.025.11.038.557.1-.354.024-.031-.033.137-.068.273-.1.41s-.193.358.055-.108c-.066.124-.142.244-.206.368-.212.414.213-.134-.215.268-.134.124-.264.254-.4.38-.091.086-.549.418-.112.1-2.349,1.693-5.2,2.529-7.747,3.857-1.435.747-3.276,1.757-3.863,3.342-1.036,2.8-.413,5.821-.3,8.7a17.938,17.938,0,0,1-.163,3.18,10.742,10.742,0,0,1-.253,1.168c-.115.428-.011.065.035-.031a5.523,5.523,0,0,1-.319.554c-.193.307.389-.419-.05.052-.1.109-.2.22-.3.328-.317.337-.649.659-.975.987-.845.851-1.679,1.715-2.508,2.582a21.439,21.439,0,0,0-3.752,4.8,22.692,22.692,0,0,0-1.994,7.017,2.476,2.476,0,0,0,1.676,2.952,2.418,2.418,0,0,0,2.953-1.676c.4-2.571.809-4.912,2.107-6.892a43.536,43.536,0,0,1,5.135-5.615,11.714,11.714,0,0,0,2.091-2.5,9.981,9.981,0,0,0,.953-3.685,26.2,26.2,0,0,0,.011-5.393,12.907,12.907,0,0,1,.282-5.253l-.617,1.059c.172-.173.35-.334.535-.493-.315.27-.051.033.128-.088.4-.269.808-.517,1.23-.749.851-.466,1.737-.866,2.623-1.26a30.9,30.9,0,0,0,5.424-2.742,7.137,7.137,0,0,0,3.4-5.327c.169-2.756-1.58-5.187-3.28-7.172l-1.059,4.011c3.559-1,6.763-3.4,7.443-7.226a8.23,8.23,0,0,0-4.6-8.96v4.145c3.134-1.713,4.058-4.805,3.594-8.156a8.236,8.236,0,0,0-6.592-7.033l.573,4.387c3.53-2.357,5.779-5.822,5.05-10.182a8.833,8.833,0,0,0-7.808-7.4c-3.24-.465-6.672.182-9.909.5-3.833.375-7.682.763-11.475,1.436a25.612,25.612,0,0,0-11.433,5.408,15.531,15.531,0,0,0-3.808,4.446,16.148,16.148,0,0,0-1.594,5.948c-1.252,9.757-.567,19.649-1.382,29.441-.451,5.413-.9,11.072-2.688,16.234-1.683,4.874-4.249,9.387-5.8,14.315-.929,2.954,3.7,4.218,4.628,1.276Z"/>
<path class="b" d="M74.429,183.424c3.638-.237,7.282-.4,10.924-.559,3.232-.143,6.489-.37,9.726-.313,3.09.053,3.09-4.747,0-4.8-3.237-.057-6.494.17-9.726.313-3.642.16-7.286.322-10.924.559a2.455,2.455,0,0,0-2.4,2.4,2.421,2.421,0,0,0,2.4,2.4Z"/>
<path class="b" d="M73.167,193.735c8.111-.206,16.226-.178,24.337-.382,3.083-.077,3.095-4.877,0-4.8-8.111.2-16.226.176-24.337.382-3.083.078-3.095,4.879,0,4.8Z"/>
<path class="b" d="M76.6,205.554q9.425-.237,18.849-.481c3.083-.079,3.1-4.879,0-4.8q-9.424.24-18.849.481c-3.083.077-3.095,4.878,0,4.8Z"/>
<path class="b" d="M78.217,98.941c-.854-3.559.346-11.55,6.987-11.822,8.717.6,8.575,10.34,5.355,14.724C87.922,105.432,80.758,106.546,78.217,98.941Z"/>
<path class="c" d="M45.752,228.692c-.276-.063-.528-.116-.754-.157-2.463,4.639-14.315,24.787-22.318,41.875l43.559,24.032c8.1-19.86,16.2-42.668,17.925-51.046C81.273,241.3,53.668,230.514,45.752,228.692Z"/>
<path class="b" d="M24.752,271.621c5.894-12.558,12.665-24.684,19.473-36.763.957-1.7,1.928-3.391,2.845-5.112l-2.71,1.1c5.213.969,10.335,3.111,15.289,4.933q4.935,1.815,9.825,3.749,2.314.913,4.615,1.858c1.488.611,2.128.877,3.532,1.486a29.259,29.259,0,0,1,5.332,2.593l-1.1-2.71A103.1,103.1,0,0,1,79.011,252.9c-1.585,4.985-3.3,9.927-5.077,14.847-4.071,11.3-8.418,22.509-13.132,33.554-2.1,4.929-4.17,9.948-6.716,14.667a72.58,72.58,0,0,1-11.493,15.882,25.908,25.908,0,0,1-6.286,5.121,18.871,18.871,0,0,1-8.3,2.042,22.971,22.971,0,0,1-9.4-1.7,17.458,17.458,0,0,1-6.1-4.072c-3.173-3.272-4.972-7.79-6.064-12.375a76.3,76.3,0,0,1-1.632-18.718c.026-1.888.095-3.774.189-5.66.154-3.087-4.646-3.079-4.8,0A105.019,105.019,0,0,0,1,318c.846,5.4,2.421,10.961,5.569,15.5a23.76,23.76,0,0,0,14.12,9.512c6.466,1.572,14.007.964,19.617-2.86,5.461-3.72,9.777-9.231,13.5-14.61a96.16,96.16,0,0,0,8.528-15.841c5.124-11.5,9.77-23.214,14.149-35.013,3.478-9.371,7.044-18.847,9.5-28.55.178-.7.344-1.4.491-2.111a2.511,2.511,0,0,0-1.1-2.71,25.316,25.316,0,0,0-4.486-2.224c-2.839-1.252-5.711-2.431-8.592-3.583-6.4-2.561-12.862-5.014-19.4-7.2a54.962,54.962,0,0,0-7.256-2.1,2.473,2.473,0,0,0-2.71,1.1C37.5,237.507,31.6,247.424,26.3,257.681c-1.965,3.806-3.876,7.64-5.7,11.517a2.469,2.469,0,0,0,.861,3.284,2.42,2.42,0,0,0,3.284-.861Z"/>
<path class="f" d="M80.653,81.01c.411-.134.826-.254,1.248-.352.24-.056.482-.105.725-.149q.183-.032.366-.06l-.271.035A10.468,10.468,0,0,1,85.4,80.4c.216.013.431.037.646.053.5.038-.454-.079.189.025q.641.1,1.269.265t1.24.377a4.757,4.757,0,0,1,.606.231c-.564-.292.165.084.272.136a2.4,2.4,0,0,0,2.423-4.145,17.107,17.107,0,0,0-12.671-.96,2.4,2.4,0,1,0,1.276,4.629Z"/>
</g>
</svg>